<svg width="170" height="52" viewBox="0 0 170 52" fill="none" xmlns="http://www.w3.org/2000/svg">
<g opacity="0.4" clip-path="url(#clip0_718_2361)">
<path d="M169.896 0.11307C169.88 0.0888408 169.856 0.072688 169.824 0.0484586C169.783 0.0323058 169.751 0 169.703 0L18.5278 0.258446C18.4228 0.258446 18.3259 0.331134 18.2936 0.428051L0.0166172 51.4712C0.000464311 51.5196 0.00854075 51.56 0.0246936 51.6085C0.0327701 51.6408 0.0408465 51.665 0.0569994 51.6973C0.0731523 51.7215 0.0973816 51.7458 0.121611 51.7619C0.161993 51.7861 0.202375 51.8184 0.250834 51.8184L151.539 51.6165C151.644 51.6165 151.741 51.5438 151.773 51.4469L169.937 0.339211C169.953 0.290752 169.937 0.25037 169.929 0.209987C169.921 0.169605 169.913 0.137299 169.896 0.11307ZM156.853 27.5649C154.899 32.3704 152.104 35.3667 146.749 35.3829C141.5 35.399 136.25 35.4071 131.008 35.4152C128.125 35.4152 126.292 34.341 126.316 31.3366C126.324 30.8601 126.179 30.8116 125.88 31.1912C123.417 34.3895 120.646 35.9402 116.39 35.7948C111.302 35.6252 106.222 35.496 101.142 35.399C100.859 35.391 100.601 35.3344 100.35 35.2214L98.7592 34.4945C98.4604 34.3572 98.315 34.446 98.3311 34.7772C98.3473 35.1648 98.1211 35.399 97.6446 35.4879C97.4427 35.5202 97.2408 35.5283 97.0308 35.5202C95.3671 35.4394 93.7033 35.4798 92.0315 35.6413C91.555 35.6898 91.1108 35.391 90.9735 34.9306L90.0528 31.7969C89.9639 31.5062 89.7701 31.3608 89.4632 31.3608H77.0901C76.8074 31.3608 76.549 31.4497 76.3148 31.6193L53.0869 48.9352C52.1016 49.6701 52.0208 49.5813 52.8446 48.6767L64.3697 35.9644C64.6362 35.6656 64.5635 35.5202 64.1678 35.5121L61.1634 35.4556C60.8241 35.4475 60.6949 35.2779 60.7757 34.9468C61.1714 33.3315 62.7786 31.1751 60.8403 29.899C60.6868 29.794 60.5092 29.7455 60.3234 29.7455H49.5171C49.291 29.7455 49.0971 29.8828 49.0164 30.0928L47.07 35.3748C46.965 35.6575 46.755 35.8029 46.4562 35.8029H34.9876C34.7534 35.8029 34.608 35.6898 34.5434 35.4636L33.7035 32.3138C33.6065 31.9504 33.3723 31.7646 32.9927 31.7646H20.3046C20.0381 31.7646 19.7877 31.8858 19.6343 32.0958L17.0983 35.4071C16.9125 35.6575 16.6137 35.8029 16.2987 35.8029H9.51451C9.05416 35.8029 8.98147 35.6333 9.28837 35.294L28.9303 13.5442C29.2453 13.1888 29.7056 13.0031 30.1821 13.0354L37.3621 13.4473C37.7255 13.4634 38.0243 13.7219 38.097 14.0772L41.5457 30.7228C41.5861 30.9408 41.6507 30.9489 41.7314 30.7389L48.1199 14.0934C48.2814 13.6734 48.6853 13.3907 49.1375 13.3907H71.2104C72.3735 13.3907 73.3426 14.2791 73.4315 15.4341C73.8272 20.3688 72.0181 24.1001 67.9879 26.6361C67.7457 26.7896 67.7457 26.9349 67.9879 27.0884C68.9975 27.7183 69.4094 28.6471 69.2156 29.8748C69.2075 29.9313 69.2156 29.9878 69.2317 30.0363C69.2398 30.0524 69.2479 30.0605 69.2559 30.0767C69.2721 30.109 69.2883 30.1413 69.3206 30.1736C69.3367 30.1897 69.3529 30.2059 69.369 30.214C69.3932 30.2301 69.4094 30.2463 69.4336 30.2543C69.4579 30.2624 69.4821 30.2705 69.5063 30.2786C69.5305 30.2867 69.5467 30.2867 69.5709 30.2867C69.6113 30.2867 69.6436 30.2867 69.684 30.2786C69.7001 30.2786 69.7163 30.2705 69.7325 30.2705C69.7809 30.2543 69.8294 30.222 69.8698 30.1817L85.3038 13.6976C85.4896 13.5038 85.74 13.3907 86.0065 13.3907H93.9052C94.2768 13.3907 94.6079 13.6573 94.6806 14.0207L97.6366 28.3968C97.6446 28.4371 97.6689 28.4695 97.7012 28.4937C97.7093 28.5018 97.7173 28.5018 97.7254 28.5098C97.7496 28.5179 97.7739 28.526 97.7981 28.526C97.8223 28.526 97.8465 28.526 97.8708 28.5179C97.8789 28.5098 97.8869 28.5098 97.9031 28.5018C97.9354 28.4775 97.9596 28.4452 97.9677 28.4048C99.4295 22.3314 102.563 13.7219 109.46 12.9465C109.735 12.9223 112.005 13.0111 116.269 13.2211C119.839 13.3988 123.417 13.4715 126.994 13.4311C131.13 13.3907 129.91 15.9833 130.241 18.4224C130.265 18.6566 130.338 18.6647 130.451 18.4547C132.462 14.6184 135.313 12.9627 139.828 12.8577C145.11 12.7446 150.392 12.7365 155.666 12.8335C162.983 12.9627 158.662 23.1229 156.853 27.5649Z" fill="#3A405A"/>
<path d="M65.2167 18.8665C65.1036 18.8099 65.0067 18.7372 64.9178 18.6403C64.829 18.5434 64.724 18.4546 64.6109 18.3819C64.4736 18.293 64.2879 18.2446 64.0698 18.2446C60.6212 18.2203 57.1079 18.2203 53.5139 18.2526C53.2393 18.2607 52.997 18.4303 52.9082 18.6888L51.309 23.4539C51.204 23.7446 51.309 23.89 51.6159 23.89H63.8194C64.1183 23.89 64.409 23.7769 64.6352 23.575C65.5478 22.7431 66.9692 19.7226 65.2167 18.8665Z" fill="#3A405A"/>
<path d="M128.537 21.2647L123.223 21.2567C122.964 21.2567 122.754 21.0467 122.754 20.7882C122.811 16.7419 113.765 18.2684 110.979 18.7772C108.241 19.2699 107.732 20.5136 106.722 22.8316C105.882 24.7538 103.128 29.8661 107.465 30.0923C110.219 30.2377 119.136 31.1341 120.767 27.1848C120.872 26.9425 121.107 26.7809 121.373 26.7809L126.703 26.7648C126.986 26.7648 127.228 26.5871 127.317 26.3206L128.828 21.6605C128.908 21.394 128.811 21.2647 128.537 21.2647Z" fill="#3A405A"/>
<path d="M152.322 19.2626C149.536 17.6796 145.61 18.2045 142.533 18.2288C139.182 18.253 137.17 19.6664 135.652 22.7435C134.441 25.2149 132.68 29.6246 136.904 29.8588C140.563 30.0608 144.197 29.8992 147.823 29.3743C151.256 28.8816 152.443 23.22 152.895 20.4417C152.968 19.9733 152.742 19.5048 152.322 19.2626Z" fill="#3A405A"/>
<path d="M88.0174 18.5429C88.0093 18.4864 87.9689 18.4379 87.9205 18.4056C87.8963 18.3895 87.8639 18.3814 87.8316 18.3733C87.7993 18.3653 87.7751 18.3491 87.7428 18.3572C87.6863 18.3653 87.6297 18.3895 87.5893 18.4299L81.1767 25.8763C81.1363 25.9248 81.1201 25.9813 81.1201 26.046C81.1201 26.0783 81.1443 26.1025 81.1524 26.1348C81.1686 26.1671 81.1686 26.1913 81.1928 26.2156C81.2332 26.2559 81.2897 26.2882 81.3543 26.2882L88.9946 26.369C89.035 26.369 89.0593 26.3448 89.0916 26.3286C89.1158 26.3125 89.1481 26.3044 89.1723 26.2802C89.1885 26.2559 89.1966 26.2236 89.2046 26.1994C89.2127 26.1671 89.2369 26.1348 89.2289 26.0944L88.0174 18.5429Z" fill="#3A405A"/>
<path d="M31.9014 19.4487C31.756 18.746 31.4491 18.6653 30.9726 19.1983L24.883 25.9906C24.7133 26.1925 24.7537 26.2894 25.0203 26.2894L32.8867 26.3621C33.1532 26.3621 33.2663 26.2329 33.2098 25.9745L31.9014 19.4487Z" fill="#3A405A"/>
</g>
<defs>
<clipPath id="clip0_718_2361">
<rect width="169.953" height="51.8998" fill="white"/>
</clipPath>
</defs>
</svg>
