<svg width="266" height="72" viewBox="0 0 266 72" fill="none" xmlns="http://www.w3.org/2000/svg">
<g opacity="0.4" clip-path="url(#clip0_718_1835)">
<path d="M173.891 22.2742C173.202 19.4447 176.027 18.3495 178.189 19.3978C178.224 19.4151 178.243 19.4447 178.243 19.4843V21.0874C178.243 21.1312 178.223 21.1424 178.185 21.12C177.462 20.6915 176.892 20.4849 176.074 20.6742C175.452 20.8177 175.412 21.8192 175.808 22.1348C176.229 22.4686 177.954 22.3444 178.514 22.3261C178.559 22.3241 178.597 22.3597 178.599 22.4055C178.599 22.4065 178.599 22.4075 178.599 22.4086V23.8864C178.599 23.92 178.582 23.9373 178.548 23.9373H173.326C173.285 23.9373 173.25 23.9027 173.25 23.861V22.3963C173.25 22.3526 173.271 22.3312 173.315 22.3322L173.837 22.3404C173.866 22.3414 173.892 22.318 173.892 22.2874C173.892 22.2823 173.892 22.2783 173.891 22.2742Z" fill="#3A405A"/>
<path d="M103.909 23.3777H107.412C107.436 23.3777 107.456 23.397 107.456 23.4215V44.1729C107.456 44.1973 107.436 44.2166 107.412 44.2166H103.909C103.885 44.2166 103.865 44.1973 103.865 44.1729V23.4215C103.865 23.397 103.885 23.3777 103.909 23.3777Z" fill="#3A405A"/>
<path d="M124.088 44.2176C120.486 44.2604 115.653 44.3428 114.356 39.9957C113.041 35.5895 115.021 31.1172 119.861 30.3254C122.933 29.8225 126.238 30.6592 127.347 33.8867C127.701 34.9178 127.773 35.903 127.78 37.1305C127.786 38.4466 127.786 39.7565 127.781 41.0603C127.78 41.1021 127.814 41.1367 127.857 41.1377H127.858C129.789 41.1387 131.725 41.1387 133.667 41.1377C136.35 41.1346 138.165 40.3377 137.918 37.2364C137.755 35.1814 136.55 34.2002 134.488 34.1951C132.82 34.191 131.146 34.19 129.466 34.1931C129.422 34.1931 129.387 34.1585 129.387 34.1157V31.1956C129.387 31.1528 129.404 31.1121 129.432 31.0806L136.442 23.4153C136.464 23.3909 136.495 23.3777 136.528 23.3777H140.716C140.739 23.3777 140.756 23.395 140.756 23.4174C140.756 23.4276 140.752 23.4367 140.746 23.4449L133.838 31.0551C133.824 31.0724 133.825 31.0979 133.841 31.1121C133.848 31.1193 133.858 31.1223 133.868 31.1223C137.037 31.0185 139.992 32.1666 141.187 35.2537C141.912 37.1254 141.753 39.2466 140.932 41.0726C140.912 41.1163 140.926 41.1387 140.975 41.1387H144.133C144.155 41.1387 144.166 41.1275 144.166 41.1051C144.158 39.7748 144.158 38.4466 144.166 37.1183C144.187 33.7625 145.251 31.0287 148.848 30.3488C150.085 30.1147 151.328 30.136 152.576 30.4119C156.703 31.3238 158.485 35.0552 157.82 39.0216C157.036 43.7067 152.933 44.1871 149.046 44.1952C142.014 44.2115 134.984 44.2197 127.954 44.2207C127.915 44.2207 127.896 44.24 127.896 44.2777C127.837 51.5246 121.124 51.4696 115.965 50.522C115.92 50.5139 115.887 50.4742 115.887 50.4284V47.1215C115.887 47.0879 115.914 47.0614 115.946 47.0614C115.953 47.0614 115.961 47.0625 115.968 47.0645C118.648 48.0202 124.112 48.8569 124.15 44.2797C124.15 44.238 124.13 44.2176 124.088 44.2176ZM117.882 38.6532C118.519 41.5163 121.939 41.156 124.063 41.1346C124.097 41.1346 124.115 41.1173 124.115 41.0827C124.118 39.8125 124.117 38.5422 124.111 37.273C124.102 35.214 123.616 33.275 121.127 33.2842C118.115 33.2943 117.339 36.2114 117.882 38.6532ZM154.232 37.3779C154.293 35.5051 153.469 33.5763 151.384 33.3249C148.533 32.9809 147.831 34.9005 147.81 37.272C147.798 38.5351 147.797 39.8033 147.809 41.0756C147.809 41.1133 147.827 41.1316 147.865 41.1326C150.923 41.1906 154.097 41.4512 154.232 37.3779Z" fill="#3A405A"/>
<path d="M160.371 23.3777H163.843C163.876 23.3777 163.902 23.4041 163.902 23.4367V44.1576C163.902 44.1902 163.876 44.2166 163.843 44.2166H160.371C160.338 44.2166 160.312 44.1902 160.312 44.1576V23.4367C160.312 23.4041 160.338 23.3777 160.371 23.3777Z" fill="#3A405A"/>
<path d="M92.1827 40.8141C93.2566 41.1347 94.3448 41.2294 95.4462 41.0991C96.8584 40.9322 97.2904 40.2716 97.2954 38.8925C97.3128 33.7555 97.3209 28.6125 97.3219 23.4612C97.3219 23.4358 97.3433 23.4144 97.3688 23.4144L100.978 23.4114C100.997 23.4114 101.012 23.4266 101.012 23.445C101.012 28.7438 101.012 34.0476 101.011 39.3576C101.011 42.1363 99.6908 43.5836 96.9592 44.0284C94.8471 44.3714 92.4354 44.2727 90.4129 43.4778C90.3824 43.4656 90.3528 43.4676 90.3233 43.4839C88.0726 44.802 84.8906 44.4071 82.5706 43.546C82.539 43.5338 82.5074 43.5358 82.4779 43.5521C80.4554 44.6422 78.5389 44.2188 76.3911 44.2188C68.3379 44.2177 60.2806 44.2167 52.2192 44.2177C52.1846 44.2177 52.1561 44.2462 52.1551 44.2808C52.0369 51.4738 45.3938 51.5542 40.1812 50.5069C40.1537 50.5008 40.1343 50.4774 40.1343 50.4499V47.146C40.1343 47.1043 40.168 47.0707 40.2097 47.0707C40.2189 47.0707 40.227 47.0717 40.2352 47.0748C41.5822 47.5511 42.9831 47.7934 44.4381 47.8025C46.7958 47.8168 48.3414 46.7531 48.3985 44.2758C48.3995 44.2401 48.3811 44.2228 48.3455 44.2218C45.6169 44.1974 42.6347 44.3836 40.3707 42.6564C38.2596 41.0452 37.903 37.5205 38.5642 35.1123C39.6758 31.0674 43.9246 29.5234 47.7127 30.4384C50.2304 31.0461 51.5702 32.7845 51.938 35.3047C52.1428 36.7092 52.0145 38.3795 52.0542 39.8767C52.0634 40.235 52.0532 40.6157 52.0216 41.0177C52.0155 41.0981 52.0532 41.1388 52.1337 41.1388L57.5816 41.1398C57.603 41.1398 57.6203 41.1225 57.6203 41.1012C57.6203 41.091 57.6162 41.0808 57.6091 41.0737C55.8984 39.381 53.6233 36.2522 54.6044 33.7301C55.2463 32.0822 56.9998 31.097 58.6035 30.6359C61.7763 29.7239 66.8351 29.8817 69.1683 32.6166C71.4618 35.3047 68.8962 39.0737 66.9645 41.0431C66.9431 41.0655 66.9431 41.1012 66.9655 41.1225C66.9757 41.1327 66.9899 41.1388 67.0052 41.1388H73.0186C73.0472 41.1388 73.0696 41.1164 73.0696 41.0879V31.613C73.0696 31.5764 73.1001 31.5458 73.1368 31.5458H76.6224C76.6652 31.5458 76.6866 31.5672 76.6866 31.6099V40.7622C76.6866 40.9485 76.8323 41.1012 77.0187 41.1113C77.7697 41.149 78.541 41.1541 79.3336 41.1256C80.6857 41.0767 80.8854 39.9683 80.8874 38.8192C80.8905 36.4131 80.8915 34.0151 80.8885 31.6252C80.8885 31.5835 80.9221 31.5499 80.9638 31.5499L84.4331 31.553C84.4841 31.553 84.5258 31.5947 84.5269 31.6456C84.5452 34.6919 84.6308 37.7983 84.425 40.8416C84.4229 40.8742 84.4382 40.8956 84.4698 40.9057C85.6843 41.2711 87.8504 41.489 88.4139 40.0742C88.5199 39.8075 88.5738 39.2843 88.5769 38.5057C88.5851 36.2217 88.5861 33.9367 88.58 31.6496C88.5789 31.5937 88.6238 31.5489 88.6798 31.5479H88.6808L92.1501 31.5468C92.1848 31.5468 92.2041 31.5641 92.2092 31.5977C92.2642 32.0049 92.2286 32.4507 92.2276 32.7855C92.2214 35.4054 92.3651 38.1291 92.1267 40.7317C92.1236 40.7683 92.1471 40.8029 92.1827 40.8141ZM61.112 40.0986C61.3525 40.3276 62.0728 41.0106 62.3968 40.863C63.7591 40.2442 67.0928 36.3622 66.615 34.7774C66.2655 33.6212 63.8844 33.3006 62.8227 33.2436C61.4228 33.1682 59.5134 33.3453 58.3335 34.2054C56.5637 35.4929 60.1502 39.1836 61.112 40.0986ZM48.3944 40.4711C48.4035 39.1815 48.3934 37.893 48.3638 36.6034C48.3241 34.8232 47.5528 33.381 45.6077 33.2843C43.3947 33.1733 42.1008 34.697 41.9999 36.7876C41.7798 41.3465 44.922 41.1744 48.3495 41.1358C48.3852 41.1347 48.4056 41.1164 48.4086 41.0808C48.429 40.8742 48.3934 40.5994 48.3944 40.4711Z" fill="#3A405A"/>
<path d="M5.36895 28.2703C6.43135 28.2703 7.2926 27.41 7.2926 26.3487C7.2926 25.2874 6.43135 24.427 5.36895 24.427C4.30656 24.427 3.44531 25.2874 3.44531 26.3487C3.44531 27.41 4.30656 28.2703 5.36895 28.2703Z" fill="#3A405A"/>
<path d="M11.7585 26.4842C11.8341 25.421 11.0327 24.4979 9.96847 24.4224C8.90424 24.3468 7.98019 25.1474 7.90454 26.2105C7.8289 27.2737 8.63031 28.1968 9.69454 28.2723C10.7588 28.3479 11.6828 27.5473 11.7585 26.4842Z" fill="#3A405A"/>
<path d="M174.239 25.5913H177.636C177.69 25.5913 177.734 25.6351 177.734 25.689V44.1198C177.734 44.1737 177.69 44.2175 177.636 44.2175H174.239C174.185 44.2175 174.142 44.1737 174.142 44.1198V25.689C174.142 25.6351 174.185 25.5913 174.239 25.5913Z" fill="#3A405A"/>
<path d="M13.8088 41.0908C13.8078 41.1163 13.8282 41.1366 13.8536 41.1376H13.8547C14.5322 41.1387 15.2179 41.1397 15.9097 41.1407C17.3433 41.1417 18.2929 40.6878 18.3051 39.0776C18.3286 36.1462 18.3296 33.2179 18.3102 30.2927C18.3092 30.2408 18.352 30.1981 18.404 30.197H18.405H21.9731C22.0149 30.197 22.0495 30.2317 22.0495 30.2734C22.0485 33.0154 22.0464 35.7635 22.0434 38.5178C22.0424 39.5722 21.9874 40.5402 21.5482 41.5611C20.5956 43.7708 18.2134 44.1942 16.0819 44.2074C14.2918 44.2186 11.9086 44.2196 8.93042 44.2084C6.425 44.1993 4.04184 44.1372 2.00714 42.5616C0.445204 41.3514 -0.0244992 38.987 0.000972785 37.1447C0.0692376 32.2266 4.22015 29.5752 8.85299 30.309C12.0013 30.8088 13.6417 32.9452 13.765 36.1076C13.8302 37.7686 13.8445 39.4297 13.8088 41.0908ZM3.82584 36.2144C3.47229 38.1513 4.01332 40.4537 6.2304 40.9381C7.4826 41.213 8.83159 41.158 10.1123 41.1305C10.147 41.1295 10.1643 41.1122 10.1643 41.0786C10.1999 39.1437 10.1918 37.6272 10.1398 36.5269C10.0685 35.0327 9.47858 33.6149 7.85653 33.3442C5.71994 32.9879 4.20588 34.1279 3.82584 36.2144Z" fill="#3A405A"/>
<path d="M29.7095 33.282C28.601 33.2739 27.5067 33.2729 26.4277 33.278C26.3605 33.279 26.3065 33.224 26.3055 33.1568C26.3055 33.1558 26.3055 33.1558 26.3055 33.1548L26.333 30.2418C26.333 30.2143 26.3462 30.2011 26.3737 30.2011C27.3447 30.1929 28.3137 30.1919 29.2826 30.198C32.9272 30.2214 35.8737 32.2215 36.5065 35.9253C36.5778 36.3457 36.6145 36.995 36.6165 37.8734C36.6216 39.9712 36.6216 42.0699 36.6165 44.1677C36.6165 44.2012 36.6002 44.2175 36.5666 44.2175H23.475C23.3904 44.2175 23.3477 44.1748 23.3477 44.0903V41.2109C23.3477 41.1702 23.3813 41.1376 23.422 41.1376L32.8721 41.1396C32.8945 41.1396 32.9058 41.1284 32.9047 41.105C32.8996 39.736 32.8956 38.365 32.8945 36.992C32.8915 35.1345 31.7473 33.2973 29.7095 33.282Z" fill="#3A405A"/>
<path d="M161.59 50.7296C161.542 50.7204 161.508 50.6787 161.508 50.6299V47.3209C161.508 47.2771 161.528 47.2619 161.57 47.2751C162.847 47.6771 164.307 48.0772 165.656 47.6934C167.404 47.1947 167.975 45.5621 167.976 43.8715C167.979 39.7788 167.979 35.6882 167.977 31.5976C167.977 31.5691 168 31.5457 168.03 31.5457H171.669C171.699 31.5457 171.723 31.5701 171.723 31.5996C171.722 35.8337 171.721 40.0648 171.72 44.2939C171.718 50.4639 166.58 51.6406 161.59 50.7296Z" fill="#3A405A"/>
<path d="M17.3528 49.2485C17.4008 48.195 16.5751 47.3017 15.5087 47.2533C14.4423 47.2049 13.539 48.0197 13.4911 49.0732C13.4431 50.1267 14.2688 51.02 15.3352 51.0684C16.4016 51.1168 17.3049 50.302 17.3528 49.2485Z" fill="#3A405A"/>
<path d="M19.8904 51.08C20.9516 51.08 21.812 50.2205 21.812 49.1603C21.812 48.1002 20.9516 47.2407 19.8904 47.2407C18.8291 47.2407 17.9688 48.1002 17.9688 49.1603C17.9688 50.2205 18.8291 51.08 19.8904 51.08Z" fill="#3A405A"/>
<path d="M67.2817 68.9568C65.6036 67.4769 65.2256 64.7644 65.4987 62.6748C66.0305 58.6137 69.3745 56.4529 73.3236 56.8508C74.0328 56.9221 74.6818 57.146 75.2717 57.5226C75.2992 57.5399 75.3359 57.5317 75.3532 57.5043C75.3594 57.4951 75.3624 57.4839 75.3624 57.4727V51.6986C75.3624 51.6701 75.3848 51.6477 75.4134 51.6477H78.7247C78.7757 51.6477 78.8011 51.6732 78.8011 51.724V70.7054C78.8011 70.735 78.7777 70.7584 78.7481 70.7584C76.9233 70.7584 75.0894 70.7553 73.2482 70.7492C71.0791 70.7411 68.9486 70.4286 67.2817 68.9568ZM74.5045 60.4946C73.6731 59.6 72.0348 59.6498 71.0169 60.1364C69.1911 61.0086 68.8314 63.316 69.2237 65.0871C69.5487 66.5578 70.4759 67.4138 72.0032 67.655C72.9436 67.8036 74.047 67.8342 75.3125 67.7456C75.3441 67.7436 75.3604 67.7263 75.3604 67.6947C75.3685 66.2443 75.3624 64.7949 75.3431 63.3466C75.3308 62.4102 75.1729 61.2142 74.5045 60.4946Z" fill="#3A405A"/>
<path d="M82.8256 55.7617C83.8823 55.7617 84.739 54.9059 84.739 53.8502C84.739 52.7945 83.8823 51.9387 82.8256 51.9387C81.7688 51.9387 80.9121 52.7945 80.9121 53.8502C80.9121 54.9059 81.7688 55.7617 82.8256 55.7617Z" fill="#3A405A"/>
<path d="M26.5628 60.9232C26.7798 61.4026 27.6632 61.7232 28.1594 61.884C30.5049 62.6403 34.2951 63.4443 34.128 66.6362C33.9548 69.9381 30.7413 70.9335 27.9852 71.0363C26.2674 71.1004 24.5852 70.8083 22.9387 70.1599C22.8928 70.1416 22.8633 70.0979 22.8633 70.049V66.8612C22.8633 66.7787 22.9 66.7563 22.9733 66.794C24.901 67.7843 27.0519 68.3828 29.2374 67.8179C29.7998 67.6724 30.6373 67.2805 30.7036 66.6352C30.782 65.8647 29.5685 65.6011 28.9939 65.4494C26.4151 64.7685 22.8735 63.9298 23.0854 60.5211C23.2861 57.2784 26.6912 56.399 29.3321 56.4967C30.6577 56.5465 31.968 56.7043 33.263 56.971C33.32 56.9822 33.3567 57.0381 33.3445 57.0951C33.3445 57.0972 33.3435 57.0992 33.3435 57.1002L32.5579 60.0367C32.5477 60.0743 32.509 60.0957 32.4703 60.0855C32.4682 60.0855 32.4672 60.0845 32.4662 60.0845C31.1111 59.6214 28.0219 58.9954 26.8125 60.0163C26.5384 60.2484 26.412 60.5904 26.5628 60.9232Z" fill="#3A405A"/>
<path d="M136.803 70.7705L133.388 70.7847C133.331 70.7847 133.285 70.7389 133.285 70.6819V57.783C133.285 57.7545 133.302 57.7301 133.328 57.7209C135.607 56.8914 137.961 56.5627 140.391 56.7357C141.129 56.7876 141.904 57.0461 142.712 57.5092C142.739 57.5255 142.773 57.5276 142.804 57.5164C145.039 56.637 148.271 56.1962 150.419 57.4482C151.954 58.3428 152.44 59.7546 152.448 61.4757C152.462 64.5617 152.469 67.6468 152.467 70.7308C152.467 70.7593 152.443 70.7827 152.415 70.7827H148.978C148.947 70.7827 148.923 70.7582 148.923 70.7277C148.928 68.4488 148.927 66.1903 148.921 63.951C148.918 63.208 148.943 62.4192 148.861 61.6477C148.614 59.3668 146.148 59.5367 144.595 60.1088C144.563 60.121 144.551 60.1434 144.558 60.1769C144.665 60.6747 144.718 61.1072 144.719 61.4757C144.723 64.5485 144.724 67.6223 144.721 70.6992C144.721 70.7562 144.693 70.7847 144.636 70.7837L141.192 70.7654C141.134 70.7654 141.104 70.7359 141.105 70.6778C141.147 67.659 141.144 64.6259 141.098 61.5775C141.086 60.7144 140.677 60.0009 139.779 59.8472C138.802 59.6792 137.847 59.7505 136.911 60.0589C136.872 60.0721 136.851 60.1006 136.851 60.1423V70.7226C136.851 70.7491 136.83 70.7705 136.803 70.7705Z" fill="#3A405A"/>
<path d="M156.333 69.4105C154.067 67.4248 153.711 64.0812 154.565 61.3494C155.259 59.1254 157.066 57.4837 159.328 56.9544C161.404 56.4679 163.883 56.7427 165.624 58.0445C165.655 58.0679 165.663 58.1107 165.644 58.1442L164.211 60.6115C164.191 60.6471 164.163 60.6532 164.13 60.6298C163.106 59.9295 162.012 59.6628 160.847 59.8298C159.449 60.0293 158.344 60.8323 157.961 62.2003C157.519 63.7738 157.598 65.9693 158.921 67.1154C160.294 68.3032 162.459 68.1688 163.926 67.1988C163.992 67.155 164.049 67.1642 164.097 67.2263L165.759 69.3586C165.788 69.3943 165.781 69.4472 165.746 69.4767C163.184 71.5744 158.847 71.6131 156.333 69.4105Z" fill="#3A405A"/>
<path d="M43.063 70.7573C38.8285 70.7288 35.7536 69.2377 35.3583 64.6219C35.0546 61.0605 36.9182 57.9785 40.4475 57.0452C43.3442 56.2798 47.0794 56.8722 48.4631 59.8442C48.9226 60.8295 49.1528 61.946 49.1549 63.1939C49.159 65.6896 49.1559 68.1934 49.1457 70.7054C49.1457 70.7288 49.1274 70.7482 49.1039 70.7512C48.9124 70.7706 48.7157 70.7807 48.514 70.7807C46.6973 70.7767 44.8797 70.7685 43.063 70.7573ZM39.1862 65.2611C39.5265 66.7094 40.742 67.5491 42.1817 67.6825C43.3065 67.7863 44.4293 67.8138 45.5501 67.7659C45.5807 67.7649 45.6051 67.7395 45.6051 67.7089C45.6163 66.344 45.6163 64.9751 45.6051 63.601C45.5929 61.9837 45.0865 60.2351 43.2719 59.8961C39.7557 59.2386 38.5239 62.4478 39.1862 65.2611Z" fill="#3A405A"/>
<path d="M93.8731 69.0586C92.3234 67.7853 91.8129 65.4178 91.9199 63.4789C92.1176 59.9094 94.3683 57.3567 97.9812 56.8661C102.568 56.2432 105.663 58.4437 105.67 63.2407C105.674 65.6652 105.675 68.1324 105.674 70.6413C105.674 70.7064 105.641 70.7441 105.577 70.7533C105.447 70.7716 105.284 70.7807 105.087 70.7807C103.193 70.7838 101.3 70.7716 99.4066 70.7451C97.3729 70.7176 95.4523 70.3563 93.8731 69.0586ZM95.6103 65.1084C96.1625 68.1375 99.6491 67.8036 101.949 67.7527C101.982 67.7517 101.999 67.7354 102 67.7028C102.015 66.2158 102.01 64.7298 101.983 63.2448C101.961 61.9633 101.506 60.4905 100.267 60.0234C99.4025 59.6977 98.3358 59.7139 97.4881 60.0936C95.5165 60.975 95.2516 63.142 95.6103 65.1084Z" fill="#3A405A"/>
<path d="M131.224 69.3387C131.225 69.8048 131.218 70.2455 131.205 70.6598C131.203 70.7371 131.163 70.7758 131.085 70.7768C129.07 70.7911 127.12 70.7829 125.236 70.7534C123.283 70.7219 121.436 70.5071 119.791 69.4038C117.871 68.1152 117.273 65.532 117.418 63.3284C117.736 58.511 121.874 56.1385 126.359 56.8907C129.58 57.4301 131.168 59.8118 131.193 63.0231C131.209 65.1279 131.219 67.2328 131.224 69.3387ZM122.275 66.9213C123.323 67.702 124.343 67.7417 125.81 67.7763C126.412 67.7905 127.014 67.7895 127.615 67.7722C127.637 67.7712 127.653 67.7539 127.653 67.7325C127.663 66.2608 127.657 64.791 127.636 63.3223C127.614 61.8302 127.042 60.2637 125.416 59.8953C124.178 59.6154 122.856 59.9289 122.026 60.8561C120.756 62.2739 120.639 65.703 122.275 66.9213Z" fill="#3A405A"/>
<path d="M107.739 70.7718C107.695 70.7718 107.661 70.7372 107.661 70.6934C107.659 68.2893 107.659 65.876 107.662 63.4546C107.669 57.3243 112.635 56.2902 117.555 56.9925C117.599 56.9986 117.629 57.0403 117.623 57.0841C117.623 57.0871 117.622 57.0902 117.621 57.0932L116.838 60.049C116.82 60.1121 116.756 60.1497 116.693 60.1324C113.656 59.3151 111.309 60.4592 111.304 63.8373C111.301 66.1274 111.301 68.3911 111.303 70.6282C111.303 70.7331 111.25 70.786 111.145 70.785L107.739 70.7718Z" fill="#3A405A"/>
<path d="M180.311 63.9453C180.311 67.8598 177.135 71.0324 173.217 71.0324C169.298 71.0324 166.122 67.8598 166.122 63.9453C166.122 60.0307 169.298 56.8582 173.217 56.8582C177.135 56.8582 180.311 60.0307 180.311 63.9453ZM177.062 63.9605C177.062 61.8363 175.339 60.1152 173.212 60.1152C171.086 60.1152 169.363 61.8363 169.363 63.9605C169.363 66.0847 171.086 67.8059 173.212 67.8059C175.338 67.8059 177.062 66.0837 177.062 63.9605Z" fill="#3A405A"/>
<path d="M59.2371 70.967C55.4204 71.2958 51.1706 71.1064 51.1645 66.0275C51.1614 63.1287 51.1594 60.1424 51.1604 57.0676C51.1604 56.9994 51.194 56.9658 51.2613 56.9658H54.6511C54.6847 56.9658 54.702 56.9831 54.702 57.0167C54.7041 59.8473 54.7041 62.6758 54.702 65.5043C54.701 66.6586 54.9863 67.6693 56.3068 67.8667C57.1993 68.0011 58.4882 68.0153 59.2034 67.5308C59.6752 67.2102 59.9126 66.7176 59.9156 66.055C59.9279 63.0575 59.9299 60.0549 59.9218 57.0462C59.9218 57.0014 59.9574 56.9658 60.0022 56.9658H63.5418C63.5836 56.9658 63.6183 56.9994 63.6183 57.0411C63.6233 60.174 63.606 63.312 63.5642 66.456C63.5286 69.1828 61.9259 70.7349 59.2371 70.967Z" fill="#3A405A"/>
<path d="M81.159 57.3477H84.5173C84.5672 57.3477 84.6079 57.3884 84.6079 57.4382V70.6883C84.6079 70.7382 84.5672 70.7789 84.5173 70.7789H81.159C81.1091 70.7789 81.0684 70.7382 81.0684 70.6883V57.4382C81.0684 57.3873 81.1091 57.3477 81.159 57.3477Z" fill="#3A405A"/>
<path d="M222.919 0.62498C222.972 0.511061 222.813 0.324942 222.564 0.209272C222.314 0.0936019 222.069 0.0921819 222.016 0.206102C221.963 0.320021 222.122 0.506162 222.372 0.621832C222.621 0.737502 222.866 0.7389 222.919 0.62498Z" fill="#3A405A"/>
<path d="M204.991 2.51831C204.632 2.64554 203.552 2.67403 203.572 2.02263C204.12 1.70303 204.625 1.75494 205.085 2.17937C205.108 2.20075 205.121 2.23026 205.121 2.2608C205.122 2.37174 205.079 2.45724 204.991 2.51831Z" fill="#3A405A"/>
<path d="M224.747 2.35669C224.805 2.22953 224.625 2.02375 224.345 1.89704C224.066 1.77034 223.792 1.7707 223.735 1.89785C223.677 2.025 223.857 2.23079 224.136 2.35749C224.416 2.4842 224.69 2.48384 224.747 2.35669Z" fill="#3A405A"/>
<path d="M239.86 2.55124C239.912 2.47176 239.766 2.28552 239.534 2.13528C239.303 1.98504 239.073 1.92769 239.021 2.00717C238.97 2.08664 239.116 2.27286 239.347 2.4231C239.579 2.57334 239.809 2.63071 239.86 2.55124Z" fill="#3A405A"/>
<path d="M224.145 3.48215C224.208 3.33266 223.995 3.10133 223.67 2.96544C223.345 2.82955 223.03 2.84057 222.968 2.99006C222.905 3.13955 223.118 3.3709 223.443 3.50679C223.768 3.64268 224.083 3.63164 224.145 3.48215Z" fill="#3A405A"/>
<path d="M207.198 2.90336C207.541 2.86923 209.049 3.20485 208.343 3.73293C207.684 3.94719 207.126 3.80878 206.67 3.31672C206.729 3.05885 206.905 2.92043 207.198 2.90336Z" fill="#3A405A"/>
<path d="M239.771 3.60589C239.832 3.51336 239.664 3.29735 239.397 3.12343C239.13 2.9495 238.865 2.88352 238.804 2.97605C238.744 3.06858 238.911 3.28459 239.179 3.45851C239.446 3.63244 239.711 3.69842 239.771 3.60589Z" fill="#3A405A"/>
<path d="M226.491 4.37427C226.553 4.23089 226.349 4.00695 226.038 3.87409C225.726 3.74123 225.423 3.74976 225.362 3.89313C225.301 4.03651 225.504 4.26045 225.816 4.39331C226.128 4.52617 226.43 4.51765 226.491 4.37427Z" fill="#3A405A"/>
<path d="M211.005 5.21676C210.583 5.11261 210.228 4.89761 209.94 4.57286C209.677 3.06557 212.721 4.18092 211.974 5.04431C211.772 5.27947 211.302 5.21788 211.005 5.21676Z" fill="#3A405A"/>
<path d="M239.697 4.71797C239.772 4.60395 239.581 4.34724 239.271 4.14459C238.961 3.94194 238.65 3.87008 238.575 3.9841C238.5 4.09812 238.691 4.35482 239.001 4.55747C239.311 4.76013 239.623 4.83198 239.697 4.71797Z" fill="#3A405A"/>
<path d="M237.692 4.93988C237.751 4.84719 237.607 4.64945 237.369 4.49821C237.131 4.34697 236.891 4.2995 236.832 4.39219C236.773 4.48488 236.917 4.68265 237.155 4.83388C237.393 4.98512 237.633 5.03257 237.692 4.93988Z" fill="#3A405A"/>
<path d="M226.034 5.64918C226.119 5.44907 225.857 5.14561 225.448 4.97139C225.039 4.79718 224.639 4.81818 224.553 5.01829C224.468 5.2184 224.73 5.52184 225.139 5.69606C225.548 5.87027 225.948 5.84929 226.034 5.64918Z" fill="#3A405A"/>
<path d="M239.558 5.82147C239.642 5.69233 239.436 5.41182 239.099 5.19495C238.762 4.97808 238.422 4.90697 238.338 5.03611C238.255 5.16526 238.461 5.44576 238.798 5.66263C239.134 5.8795 239.475 5.95062 239.558 5.82147Z" fill="#3A405A"/>
<path d="M215.409 6.11804C215.523 5.75994 215.067 5.29605 214.392 5.08189C213.716 4.86774 213.076 4.98442 212.962 5.34252C212.848 5.70062 213.304 6.16451 213.98 6.37867C214.656 6.59282 215.296 6.47614 215.409 6.11804Z" fill="#3A405A"/>
<path d="M237.459 5.96673C237.527 5.85855 237.361 5.63206 237.089 5.46084C236.817 5.28962 236.541 5.23853 236.473 5.34671C236.405 5.45489 236.57 5.68137 236.842 5.85258C237.115 6.0238 237.39 6.07492 237.459 5.96673Z" fill="#3A405A"/>
<path d="M210.741 6.70542C209.884 6.90432 209.302 6.67088 208.994 6.00614C209.615 5.5717 210.217 5.58427 210.801 6.04487C211.063 6.25319 211.11 6.57038 210.741 6.70542Z" fill="#3A405A"/>
<path d="M228.463 6.81272C228.554 6.65539 228.363 6.37489 228.036 6.18621C227.708 5.99753 227.37 5.97211 227.279 6.12944C227.188 6.28677 227.379 6.56727 227.706 6.75595C228.033 6.94463 228.372 6.97005 228.463 6.81272Z" fill="#3A405A"/>
<path d="M239.465 7.0797C239.567 6.92476 239.337 6.59324 238.952 6.3392C238.566 6.08516 238.17 6.00481 238.068 6.15974C237.966 6.31468 238.196 6.64622 238.581 6.90026C238.967 7.1543 239.362 7.23463 239.465 7.0797Z" fill="#3A405A"/>
<path d="M241.075 6.68778C241.135 6.59987 240.994 6.39916 240.761 6.23949C240.528 6.07983 240.29 6.02166 240.229 6.10956C240.169 6.19746 240.309 6.39815 240.543 6.55782C240.776 6.71749 241.014 6.77568 241.075 6.68778Z" fill="#3A405A"/>
<path d="M225.321 6.95721C225.402 6.7669 225.159 6.48118 224.779 6.31907C224.398 6.15695 224.024 6.17982 223.943 6.37013C223.861 6.56044 224.104 6.84614 224.485 7.00826C224.865 7.17037 225.239 7.14752 225.321 6.95721Z" fill="#3A405A"/>
<path d="M237.221 6.95995C237.299 6.83719 237.123 6.58733 236.83 6.40185C236.536 6.21637 236.235 6.16551 236.157 6.28827C236.08 6.41103 236.255 6.66091 236.548 6.84639C236.842 7.03187 237.143 7.08271 237.221 6.95995Z" fill="#3A405A"/>
<path d="M218.302 7.4061C218.409 7.12428 218.071 6.73354 217.546 6.53333C217.021 6.33312 216.509 6.39927 216.401 6.68108C216.293 6.9629 216.631 7.35367 217.156 7.55388C217.681 7.75408 218.194 7.68791 218.302 7.4061Z" fill="#3A405A"/>
<path d="M213.056 6.62626C213.534 6.68295 214.968 7.29443 214.189 7.8887C213.546 8.11648 212.931 8.03246 212.344 7.6356C211.373 6.98059 212.36 6.55843 213.056 6.62626Z" fill="#3A405A"/>
<path d="M228.17 8.20817C228.296 7.98824 228.043 7.60662 227.605 7.35581C227.166 7.105 226.709 7.07998 226.583 7.29992C226.456 7.51985 226.71 7.90147 227.148 8.15228C227.586 8.40309 228.044 8.42811 228.17 8.20817Z" fill="#3A405A"/>
<path d="M239.33 8.24798C239.444 8.07411 239.2 7.71257 238.786 7.44044C238.371 7.16832 237.942 7.08866 237.828 7.26253C237.714 7.4364 237.957 7.79797 238.372 8.07009C238.786 8.34221 239.215 8.42185 239.33 8.24798Z" fill="#3A405A"/>
<path d="M241.06 7.93181C241.13 7.82684 240.972 7.59826 240.706 7.42125C240.44 7.24424 240.168 7.18584 240.098 7.29081C240.028 7.39577 240.187 7.62436 240.452 7.80137C240.718 7.97837 240.99 8.03678 241.06 7.93181Z" fill="#3A405A"/>
<path d="M236.933 8.17679C237.026 8.03098 236.832 7.74204 236.499 7.53144C236.167 7.32084 235.823 7.26832 235.73 7.41413C235.638 7.55994 235.832 7.84888 236.164 8.05948C236.496 8.27008 236.841 8.3226 236.933 8.17679Z" fill="#3A405A"/>
<path d="M221.11 8.53921C221.214 8.29212 220.927 7.93593 220.469 7.74364C220.011 7.55135 219.556 7.59578 219.452 7.84287C219.348 8.08996 219.635 8.44615 220.093 8.63844C220.551 8.83073 221.006 8.7863 221.11 8.53921Z" fill="#3A405A"/>
<path d="M217.463 9.21787C216.55 9.61856 215.792 9.38526 215.191 8.51797C215.171 7.23429 217.922 8.01894 217.463 9.21787Z" fill="#3A405A"/>
<path d="M239.212 9.48367C239.341 9.28801 239.081 8.88918 238.631 8.59285C238.181 8.29652 237.712 8.21491 237.583 8.41057C237.454 8.60623 237.714 9.00506 238.163 9.30139C238.613 9.59771 239.083 9.67933 239.212 9.48367Z" fill="#3A405A"/>
<path d="M241.051 9.16452C241.129 9.04831 240.96 8.79753 240.674 8.60438C240.387 8.41123 240.091 8.34886 240.013 8.46507C239.934 8.58128 240.103 8.83206 240.39 9.02521C240.676 9.21836 240.972 9.28073 241.051 9.16452Z" fill="#3A405A"/>
<path d="M236.546 9.56267C236.006 9.52357 235.611 9.2763 235.361 8.82296C235.338 8.76484 235.329 8.72257 235.332 8.69615C235.35 8.55877 235.475 8.46155 235.61 8.48058C235.615 8.48163 235.62 8.48163 235.626 8.48269C236.085 8.57463 236.443 8.81873 236.701 9.21395C236.726 9.25305 236.732 9.3006 236.719 9.34498C236.687 9.44432 236.63 9.51618 236.546 9.56267Z" fill="#3A405A"/>
<path d="M230.571 9.47732C230.689 9.2865 230.473 8.93904 230.087 8.70125C229.702 8.46347 229.294 8.4254 229.176 8.61622C229.058 8.80704 229.275 9.1545 229.66 9.39229C230.045 9.63007 230.453 9.66815 230.571 9.47732Z" fill="#3A405A"/>
<path d="M227.225 10.0275C226.512 9.99365 226.012 9.676 225.726 9.07554C225.736 8.15846 227.1 8.9034 227.382 9.20772C227.634 9.48234 227.722 9.95164 227.225 10.0275Z" fill="#3A405A"/>
<path d="M224.006 9.89234C224.109 9.67725 223.869 9.34888 223.47 9.1589C223.071 8.96893 222.665 8.98929 222.562 9.20439C222.46 9.41948 222.7 9.74785 223.098 9.93783C223.497 10.1278 223.903 10.1074 224.006 9.89234Z" fill="#3A405A"/>
<path d="M219.87 10.7934C218.989 10.7099 218.41 10.3165 218.134 9.61121C218.578 8.63828 220.029 9.25403 220.538 9.77722C221.104 10.3618 220.527 10.8759 219.87 10.7934Z" fill="#3A405A"/>
<path d="M239.043 10.8197C239.189 10.6004 238.914 10.1632 238.43 9.84326C237.946 9.52328 237.436 9.44165 237.291 9.66095C237.145 9.88024 237.42 10.3174 237.904 10.6374C238.388 10.9574 238.898 11.039 239.043 10.8197Z" fill="#3A405A"/>
<path d="M241.035 10.5689C241.129 10.4323 240.944 10.1417 240.622 9.91978C240.3 9.69787 239.963 9.62872 239.868 9.76533C239.774 9.90194 239.959 10.1926 240.281 10.4145C240.603 10.6364 240.94 10.7055 241.035 10.5689Z" fill="#3A405A"/>
<path d="M214.952 9.71837C215.534 9.70303 215.973 9.92395 216.268 10.3832C216.405 11.3538 214.681 10.958 214.424 10.194C214.413 10.1612 214.414 10.1254 214.426 10.0937C214.513 9.86054 214.689 9.73576 214.952 9.71837Z" fill="#3A405A"/>
<path d="M236.309 10.7836C236.428 10.5974 236.208 10.2442 235.817 9.9947C235.426 9.74515 235.013 9.69374 234.894 9.87987C234.775 10.066 234.995 10.4192 235.386 10.6687C235.776 10.9183 236.189 10.9697 236.309 10.7836Z" fill="#3A405A"/>
<path d="M230.406 11.1531C230.573 10.8631 230.257 10.3703 229.701 10.0523C229.145 9.73432 228.56 9.71165 228.394 10.0017C228.228 10.2917 228.543 10.7845 229.099 11.1025C229.655 11.4205 230.24 11.4431 230.406 11.1531Z" fill="#3A405A"/>
<path d="M223.754 11.8647C223.94 11.4649 223.521 10.8768 222.819 10.551C222.116 10.2253 221.396 10.2852 221.21 10.685C221.024 11.0847 221.443 11.6728 222.146 11.9986C222.849 12.3244 223.569 12.2644 223.754 11.8647Z" fill="#3A405A"/>
<path d="M226.702 11.1916C226.801 11.0044 226.599 10.7052 226.252 10.5233C225.905 10.3414 225.544 10.3457 225.446 10.5328C225.348 10.72 225.549 11.0192 225.896 11.2011C226.243 11.383 226.604 11.3788 226.702 11.1916Z" fill="#3A405A"/>
<path d="M219.545 12.2137C218.671 12.5281 217.959 12.3038 217.414 11.5429C217.318 11.4108 217.35 11.2336 217.51 11.0124C217.666 10.866 217.859 10.7963 218.086 10.8025C218.667 10.8199 220.139 11.4005 219.545 12.2137Z" fill="#3A405A"/>
<path d="M238.895 12.2651C238.48 13.1239 236.266 11.4495 237.045 10.9774C237.726 10.8303 238.867 11.503 238.895 12.2651Z" fill="#3A405A"/>
<path d="M241.018 11.9311C241.123 11.7775 240.928 11.4612 240.582 11.2245C240.236 10.9879 239.871 10.9205 239.765 11.0741C239.66 11.2277 239.855 11.5441 240.201 11.7808C240.547 12.0174 240.913 12.0847 241.018 11.9311Z" fill="#3A405A"/>
<path d="M235.977 12.2826C236.12 12.0606 235.87 11.6448 235.418 11.3538C234.966 11.0628 234.483 11.0069 234.34 11.2289C234.197 11.4509 234.447 11.8667 234.899 12.1577C235.351 12.4487 235.834 12.5046 235.977 12.2826Z" fill="#3A405A"/>
<path d="M233.005 12.4944C233.16 12.2405 232.892 11.7932 232.405 11.4952C231.919 11.1973 231.398 11.1615 231.242 11.4154C231.086 11.6692 231.355 12.1166 231.841 12.4145C232.328 12.7125 232.849 12.7482 233.005 12.4944Z" fill="#3A405A"/>
<path d="M228.061 11.2669C229.108 11.3233 229.775 11.7887 230.064 12.664C229.62 13.7074 228.136 12.7357 227.733 12.172C227.455 11.7825 227.57 11.3705 228.061 11.2669Z" fill="#3A405A"/>
<path d="M226.658 13.2505C226.853 12.8719 226.471 12.2862 225.804 11.9424C225.138 11.5986 224.438 11.6269 224.243 12.0055C224.047 12.3842 224.429 12.9699 225.096 13.3137C225.763 13.6575 226.462 13.6292 226.658 13.2505Z" fill="#3A405A"/>
<path d="M221.25 12.0442C222.173 12.1642 222.736 12.6258 222.937 13.4268C222.5 14.2002 221.432 13.8853 220.874 13.4791C220.608 13.2863 220.423 13.0637 220.318 12.8125C220.21 12.1817 220.736 12.0176 221.25 12.0442Z" fill="#3A405A"/>
<path d="M238.724 13.7937C238.907 13.5185 238.599 12.991 238.036 12.6155C237.472 12.24 236.866 12.1587 236.683 12.434C236.499 12.7092 236.807 13.2367 237.37 13.6122C237.934 13.9877 238.54 14.069 238.724 13.7937Z" fill="#3A405A"/>
<path d="M240.914 13.5908C240.4 13.5425 240.004 13.285 239.729 12.8204C239.637 12.6637 239.651 12.5243 239.774 12.4019L239.882 12.3622C239.912 12.3504 239.943 12.3483 239.975 12.3558C240.317 12.4363 241.471 13.0908 240.914 13.5908Z" fill="#3A405A"/>
<path d="M235.631 13.8524C235.795 13.5992 235.527 13.1346 235.032 12.8148C234.537 12.4949 234.003 12.441 233.839 12.6943C233.675 12.9476 233.943 13.4121 234.438 13.732C234.933 14.0518 235.467 14.1057 235.631 13.8524Z" fill="#3A405A"/>
<path d="M243.268 25.7833C243.324 26.2748 243.063 26.5754 242.483 26.6861C242.425 26.6973 242.416 26.7237 242.458 26.7663C242.748 27.0659 242.954 27.4152 243.073 27.8163C243.078 27.8356 243.098 27.8468 243.118 27.8417C243.127 27.8397 243.134 27.8336 243.139 27.8265C243.385 27.4579 243.758 27.4457 244.164 27.5858C244.965 27.8631 245.512 28.3972 245.805 29.1903C246.108 30.0128 245.498 30.4556 244.727 30.1834C243.93 29.9021 243.378 29.3477 243.07 28.5211C243.058 28.4876 243.041 28.4855 243.021 28.515C242.8 28.8298 242.49 28.9567 242.092 28.8968C242.071 28.8927 242.051 28.908 242.048 28.9293C242.046 28.9425 242.051 28.9557 242.06 28.9649C242.461 29.3193 242.728 29.7569 242.859 30.2779C242.87 30.3205 242.888 30.3246 242.915 30.289C243.147 29.9834 243.431 29.8707 243.768 29.9489C244.716 30.1692 245.346 30.747 245.66 31.6833C246.044 32.8257 245.026 33.1202 244.193 32.6511C243.529 32.2784 243.082 31.7391 242.851 31.0344C242.84 30.9999 242.823 30.9968 242.802 31.0263C242.621 31.2791 242.373 31.4142 242.059 31.4335C241.947 31.4406 241.829 31.3949 241.706 31.3908C241.65 31.3898 241.643 31.4071 241.685 31.4447C242.333 32.0143 243.099 33.563 241.792 33.8859L241.202 33.8351C240.463 33.5599 239.93 33.0755 239.6 32.3809C239.243 31.6325 239.466 30.7166 240.486 30.8425C240.552 30.8506 240.56 30.8323 240.51 30.7887C240.173 30.4871 239.912 30.1286 239.729 29.7153C239.718 29.6899 239.687 29.6787 239.662 29.6899C239.66 29.6909 239.657 29.6919 239.655 29.694C238.561 30.4038 237.181 29.1893 236.729 28.253C236.714 28.2205 236.69 28.2124 236.657 28.2296C236.26 28.4398 235.848 28.4602 235.423 28.2926C235.41 28.2875 235.397 28.2936 235.392 28.3058C235.388 28.316 235.391 28.3271 235.4 28.3332C235.93 28.7211 236.477 29.4949 236.303 30.1753C236.107 30.9369 235.233 30.941 234.65 30.6912C234.012 30.418 233.553 29.9621 233.276 29.3253C232.971 28.6196 233.249 27.923 234.041 27.8488C234.225 27.8316 234.388 27.8793 234.578 27.9179C234.646 27.9311 234.652 27.9179 234.597 27.8763C234.209 27.5838 233.916 27.2182 233.716 26.7785C233.701 26.745 233.678 26.7359 233.644 26.7511C232.447 27.2964 230.826 26.2403 230.593 25.0167C230.584 24.975 230.564 24.9679 230.531 24.9963C230.221 25.2644 229.855 25.3711 229.437 25.3172C229.307 25.3 229.293 25.3335 229.393 25.4168C229.826 25.7762 230.111 26.4698 229.916 27.004C229.595 27.8854 228.251 27.6122 227.649 27.1867C227.089 26.8283 226.758 26.3439 226.656 25.7316C226.639 25.0024 227.208 24.6237 227.891 24.6927C227.974 24.7019 227.985 24.6775 227.926 24.6196C227.02 23.7341 226.788 22.1977 228.598 22.3023C228.617 22.3033 228.633 22.2901 228.634 22.2718C228.635 22.2606 228.631 22.2505 228.623 22.2434C227.977 21.691 227.374 20.3373 228.693 20.0875C228.805 20.0672 228.951 20.0814 229.089 20.0682C229.139 20.0631 229.146 20.0438 229.109 20.0103C228.801 19.729 228.603 19.3848 228.517 18.9796C228.495 18.086 229.324 17.9783 229.995 18.1388C230.056 18.154 230.062 18.1408 230.014 18.1002C229.487 17.6544 229.068 17.237 229.173 16.4907C229.423 16.0987 229.791 15.9616 230.277 16.0784C230.302 16.0845 230.327 16.0682 230.333 16.0439C230.337 16.0266 230.331 16.0093 230.318 15.9971C229.963 15.7016 229.748 15.3269 229.673 14.873C229.666 14.8354 229.649 14.8304 229.623 14.8578C228.535 15.9789 225.729 13.492 227.257 12.9771C228.1 12.6928 229.682 13.5854 229.717 14.5399C229.718 14.5745 229.731 14.5795 229.755 14.5552C230.161 14.1601 230.513 14.2363 231.044 14.3246C231.06 14.3267 231.074 14.3155 231.076 14.2993C231.077 14.2891 231.073 14.2779 231.065 14.2718C230.654 13.9814 229.985 13.2482 230.477 12.7689C231.351 12.3566 232.963 13.1914 233.093 14.1886C233.098 14.2292 233.116 14.2353 233.144 14.2058C233.321 14.0291 233.52 13.953 233.74 13.9784C234.668 14.083 235.341 14.5582 235.76 15.4051C235.775 15.4366 235.796 15.4417 235.826 15.4224C236.199 15.1644 236.542 15.266 236.922 15.3635C236.976 15.3777 236.982 15.3665 236.94 15.329C236.645 15.0629 235.803 14.2942 236.272 13.8555C236.927 13.2432 238.421 14.4079 238.669 15.0527C238.978 15.859 238.147 15.8113 237.662 15.6955C237.613 15.6844 237.608 15.6945 237.648 15.726C238.065 16.0581 238.35 16.3282 238.549 16.8045C238.563 16.8359 238.584 16.8451 238.616 16.8339C239.612 16.4825 240.726 17.3284 241.096 18.1896C241.106 18.2129 241.122 18.219 241.144 18.2058C242.05 17.6778 243.219 18.7156 243.565 19.4681C243.889 20.1718 243.255 20.3586 242.712 20.2002C242.691 20.1941 242.668 20.2073 242.662 20.2287C242.657 20.2449 242.664 20.2622 242.678 20.2713C243.107 20.5709 243.413 20.9679 243.593 21.4625C243.61 21.5072 243.634 21.5122 243.668 21.4787C244.475 20.6613 246.77 22.677 246.032 23.4782C245.868 23.6579 245.63 23.6996 245.321 23.6051C244.506 23.3563 243.929 22.8466 243.591 22.0758C243.578 22.0443 243.56 22.0413 243.536 22.0657C243.334 22.2779 243.081 22.3541 242.778 22.2941C242.754 22.2891 242.731 22.3053 242.725 22.3287C242.722 22.3449 242.728 22.3612 242.741 22.3713C243.092 22.6638 243.324 23.0314 243.436 23.4731C243.444 23.5016 243.458 23.5056 243.478 23.4843C244.281 22.6455 245.678 24.0286 245.985 24.7272C246.24 25.3071 245.963 25.8707 245.276 25.7011C244.39 25.4817 243.776 24.9415 243.434 24.0794C243.422 24.0489 243.404 24.0448 243.38 24.0682C243.075 24.3637 242.72 24.4256 242.318 24.254C242.3 24.2469 242.279 24.2561 242.272 24.2743C242.266 24.2896 242.271 24.3058 242.284 24.316C242.807 24.6673 243.135 25.1558 243.268 25.7833ZM233.438 15.5453C233.549 15.3757 233.385 15.072 233.073 14.8689C232.759 14.6648 232.415 14.6384 232.304 14.808C232.193 14.9776 232.357 15.2812 232.669 15.4843C232.983 15.6874 233.327 15.7148 233.438 15.5453ZM236.227 16.9608C236.33 16.8146 236.193 16.5414 235.921 16.3526C235.649 16.1637 235.344 16.1292 235.242 16.2754C235.139 16.4216 235.277 16.6948 235.549 16.8837C235.821 17.0736 236.124 17.1081 236.227 16.9608ZM232.924 17.4219C233.031 17.2574 232.882 16.971 232.591 16.7841C232.3 16.5963 231.978 16.578 231.871 16.7425C231.764 16.907 231.913 17.1934 232.204 17.3802C232.495 17.5681 232.817 17.5864 232.924 17.4219ZM238.84 18.3185C238.945 18.1774 238.813 17.9032 238.546 17.7052C238.28 17.5072 237.978 17.4615 237.873 17.6026C237.768 17.7438 237.9 18.018 238.166 18.216C238.433 18.413 238.735 18.4597 238.84 18.3185ZM232.462 19.3757C232.578 19.201 232.432 18.9004 232.136 18.7054C231.839 18.5105 231.505 18.4932 231.389 18.6689C231.273 18.8435 231.419 19.1441 231.715 19.3391C232.011 19.5341 232.345 19.5503 232.462 19.3757ZM241.479 19.7128C241.598 19.5595 241.455 19.2507 241.161 19.0233C240.867 18.7958 240.531 18.7369 240.412 18.8903C240.293 19.0436 240.436 19.3523 240.73 19.5798C241.025 19.8072 241.36 19.8671 241.479 19.7128ZM231.961 21.4594C232.088 21.2726 231.943 20.9547 231.639 20.7506C231.334 20.5455 230.985 20.5313 230.858 20.7181C230.732 20.905 230.877 21.2228 231.181 21.4269C231.486 21.631 231.835 21.6463 231.961 21.4594ZM241.31 21.7326C241.425 21.5864 241.298 21.2949 241.027 21.0827C240.755 20.8704 240.441 20.8166 240.326 20.9629C240.211 21.1091 240.337 21.4005 240.609 21.6128C240.881 21.826 241.195 21.8798 241.31 21.7326ZM231.516 23.6062C231.669 23.3858 231.513 23.0141 231.167 22.7765C230.822 22.5389 230.417 22.5257 230.266 22.746C230.113 22.9664 230.269 23.3381 230.615 23.5757C230.96 23.8133 231.364 23.8265 231.516 23.6062ZM241.068 23.7717C241.196 23.6183 241.08 23.3127 240.809 23.0893C240.538 22.8659 240.215 22.809 240.087 22.9623C239.96 23.1157 240.076 23.4213 240.347 23.6447C240.618 23.8681 240.941 23.925 241.068 23.7717ZM234.641 25.1375C234.781 24.9527 234.655 24.6227 234.359 24.4003C234.064 24.1779 233.71 24.1484 233.571 24.3332C233.431 24.5181 233.558 24.8481 233.853 25.0705C234.148 25.2929 234.502 25.3223 234.641 25.1375ZM240.822 25.9621C240.96 25.8026 240.847 25.4787 240.57 25.239C240.292 24.9994 239.955 24.9344 239.817 25.0938C239.678 25.2533 239.791 25.5772 240.068 25.8169C240.345 26.0565 240.683 26.1215 240.822 25.9621ZM237.56 26.6221C237.708 26.4465 237.595 26.1113 237.309 25.8727C237.023 25.6341 236.671 25.5833 236.525 25.759C236.377 25.9347 236.49 26.2698 236.776 26.5084C237.061 26.746 237.413 26.7978 237.56 26.6221ZM240.509 28.1504C240.677 27.9605 240.56 27.5828 240.246 27.3056C239.933 27.0293 239.543 26.9593 239.373 27.1492C239.205 27.3391 239.323 27.7168 239.636 27.9941C239.95 28.2692 240.341 28.3403 240.509 28.1504Z" fill="#3A405A"/>
<path d="M226.019 15.0767C225.84 15.3331 225.592 15.4574 225.274 15.4494C224.38 15.4276 223.716 15.03 223.285 14.2557C223.218 14.1364 223.24 13.9705 223.348 13.7587C224.069 12.8831 226.252 13.9446 226.019 15.0767Z" fill="#3A405A"/>
<path d="M205.482 14.0005C205.511 13.7622 205.205 13.5298 204.799 13.4815C204.393 13.4332 204.041 13.5872 204.013 13.8255C203.984 14.0638 204.29 14.2962 204.696 14.3445C205.102 14.3928 205.454 14.2388 205.482 14.0005Z" fill="#3A405A"/>
<path d="M213.453 14.6716C213.068 14.6514 212.773 14.5 212.567 14.2157C212.517 13.9409 212.661 13.7877 212.997 13.7539C213.492 13.7048 213.858 13.8744 214.093 14.2629C214.109 14.2909 214.111 14.3236 214.098 14.3526C213.992 14.5897 213.776 14.6967 213.453 14.6716Z" fill="#3A405A"/>
<path d="M240.437 14.0174C240.8 14.2178 241.008 14.5085 241.064 14.8916C241.017 15.0879 240.892 15.1678 240.691 15.1315C240.114 15.0276 239.687 14.7182 239.411 14.2022C239.236 13.8772 239.538 13.6955 239.831 13.7578C240.06 13.8056 240.262 13.8917 240.437 14.0174Z" fill="#3A405A"/>
<path d="M200.634 14.6648C200.64 14.4401 200.324 14.2489 199.927 14.2378C199.531 14.2268 199.204 14.4 199.198 14.6248C199.191 14.8495 199.508 15.0407 199.905 15.0517C200.301 15.0628 200.628 14.8896 200.634 14.6648Z" fill="#3A405A"/>
<path d="M221.676 15.3447C221.807 15.0489 221.52 14.6347 221.034 14.4196C220.548 14.2045 220.047 14.2699 219.916 14.5657C219.785 14.8615 220.073 15.2757 220.559 15.4908C221.045 15.7059 221.545 15.6405 221.676 15.3447Z" fill="#3A405A"/>
<path d="M209.595 15.3495C209.664 14.9803 209.235 14.5894 208.636 14.4763C208.037 14.3632 207.495 14.5708 207.425 14.94C207.356 15.3091 207.785 15.7 208.384 15.8131C208.983 15.9262 209.525 15.7186 209.595 15.3495Z" fill="#3A405A"/>
<path d="M229.134 16.4047C229.035 17.4435 227.458 16.8801 226.954 16.5133C226.379 16.1281 226.13 15.6445 226.203 15.0626C227.044 14.0381 229.162 15.2409 229.134 16.4047Z" fill="#3A405A"/>
<path d="M217.626 15.9315C217.744 15.6017 217.418 15.1823 216.896 14.9947C216.374 14.8071 215.855 14.9222 215.736 15.252C215.617 15.5817 215.944 16.0011 216.466 16.1888C216.987 16.3764 217.507 16.2612 217.626 15.9315Z" fill="#3A405A"/>
<path d="M204.238 15.7293C204.261 15.4791 203.938 15.2459 203.518 15.2084C203.097 15.1709 202.738 15.3433 202.716 15.5935C202.693 15.8437 203.016 16.077 203.437 16.1144C203.857 16.1519 204.216 15.9795 204.238 15.7293Z" fill="#3A405A"/>
<path d="M240.96 16.6728C241.131 16.4347 240.887 15.9668 240.415 15.6279C239.943 15.2889 239.421 15.2072 239.25 15.4454C239.079 15.6835 239.323 16.1513 239.795 16.4903C240.267 16.8293 240.789 16.911 240.96 16.6728Z" fill="#3A405A"/>
<path d="M225.001 16.8493C225.191 16.4805 224.859 15.9307 224.258 15.6211C223.658 15.3115 223.017 15.3594 222.826 15.7281C222.636 16.0968 222.968 16.6467 223.569 16.9563C224.169 17.2659 224.81 17.218 225.001 16.8493Z" fill="#3A405A"/>
<path d="M213.212 16.753C213.319 16.3497 212.892 15.8872 212.259 15.7201C211.625 15.553 211.026 15.7445 210.919 16.1478C210.812 16.5511 211.239 17.0135 211.872 17.1807C212.506 17.3478 213.106 17.1563 213.212 16.753Z" fill="#3A405A"/>
<path d="M252.451 16.7941C252.53 16.6928 252.386 16.4492 252.13 16.2501C251.874 16.051 251.603 15.9718 251.524 16.0731C251.445 16.1744 251.588 16.418 251.844 16.6171C252.1 16.8162 252.372 16.8954 252.451 16.7941Z" fill="#3A405A"/>
<path d="M250.384 16.9844C250.481 16.8604 250.322 16.5737 250.029 16.3439C249.736 16.1142 249.419 16.0285 249.322 16.1525C249.224 16.2765 249.383 16.5632 249.676 16.7929C249.97 17.0226 250.286 17.1084 250.384 16.9844Z" fill="#3A405A"/>
<path d="M254.139 16.7585C254.209 16.6698 254.085 16.4569 253.863 16.2828C253.641 16.1088 253.404 16.0397 253.335 16.1283C253.265 16.217 253.389 16.43 253.611 16.604C253.833 16.778 254.069 16.8472 254.139 16.7585Z" fill="#3A405A"/>
<path d="M220.96 17.3776C221.117 17.0231 220.793 16.5371 220.236 16.292C219.68 16.047 219.102 16.1358 218.946 16.4903C218.789 16.8448 219.113 17.3309 219.67 17.5759C220.226 17.8209 220.804 17.7322 220.96 17.3776Z" fill="#3A405A"/>
<path d="M248.229 17.3405C248.361 17.1711 248.159 16.7958 247.779 16.5023C247.398 16.2088 246.984 16.1082 246.853 16.2777C246.722 16.4471 246.924 16.8225 247.304 17.116C247.684 17.4095 248.098 17.51 248.229 17.3405Z" fill="#3A405A"/>
<path d="M208.121 16.9791C208.17 16.6706 207.814 16.3579 207.326 16.2806C206.837 16.2034 206.402 16.3908 206.353 16.6993C206.304 17.0077 206.66 17.3204 207.149 17.3977C207.637 17.475 208.073 17.2875 208.121 16.9791Z" fill="#3A405A"/>
<path d="M245.863 17.618C246.005 17.4332 245.802 17.0409 245.411 16.7419C245.019 16.4429 244.587 16.3503 244.445 16.5352C244.304 16.72 244.507 17.1123 244.898 17.4113C245.29 17.7103 245.722 17.8029 245.863 17.618Z" fill="#3A405A"/>
<path d="M242.871 16.9057L243.348 17.518C243.445 17.8759 243.363 18.0635 243.103 18.0819C242.555 18.1185 241.932 17.5353 241.726 17.0318C241.654 16.8582 241.673 16.7235 241.782 16.6254C242.057 16.3763 242.64 16.6944 242.871 16.9057Z" fill="#3A405A"/>
<path d="M226.8 16.7334C227.453 16.8972 228.896 17.8789 228.151 18.6495C227.348 19.2856 225.67 18.3491 225.576 17.4267C225.503 16.7133 226.296 16.6108 226.8 16.7334Z" fill="#3A405A"/>
<path d="M215.68 16.9031C216.129 17.0383 216.468 17.3087 216.697 17.7154C216.874 18.3523 216.491 18.6618 215.939 18.6988C215.44 18.7326 215.005 18.5731 214.633 18.2203C213.645 17.2834 214.848 16.6411 215.68 16.9031Z" fill="#3A405A"/>
<path d="M224.394 19.0081C224.62 18.5674 224.245 17.925 223.557 17.5733C222.869 17.2216 222.128 17.2938 221.903 17.7345C221.677 18.1753 222.052 18.8177 222.74 19.1694C223.428 19.5211 224.169 19.4489 224.394 19.0081Z" fill="#3A405A"/>
<path d="M252.54 18.2058C252.62 18.1078 252.493 17.8738 252.258 17.6833C252.022 17.4927 251.767 17.4177 251.687 17.5158C251.608 17.6138 251.734 17.8478 251.97 18.0383C252.205 18.2288 252.461 18.3038 252.54 18.2058Z" fill="#3A405A"/>
<path d="M250.623 18.6538C250.744 18.5042 250.567 18.1616 250.229 17.8887C249.89 17.6158 249.518 17.5159 249.397 17.6656C249.276 17.8152 249.453 18.1578 249.791 18.4307C250.13 18.7036 250.502 18.8035 250.623 18.6538Z" fill="#3A405A"/>
<path d="M248.32 18.9693C248.479 18.7682 248.259 18.3299 247.828 17.9904C247.398 17.6508 246.92 17.5386 246.761 17.7397C246.602 17.9408 246.822 18.3791 247.253 18.7186C247.683 19.0582 248.161 19.1704 248.32 18.9693Z" fill="#3A405A"/>
<path d="M211.716 18.6027C211.784 18.3237 211.494 18.0143 211.07 17.9118C210.645 17.8092 210.247 17.9523 210.179 18.2313C210.111 18.5104 210.401 18.8197 210.825 18.9223C211.25 19.0249 211.648 18.8818 211.716 18.6027Z" fill="#3A405A"/>
<path d="M245.777 19.4706C245.15 19.5606 244.048 18.7952 244.172 18.1112C244.275 17.953 244.429 17.8971 244.634 17.9455C245.277 18.0942 245.725 18.4447 245.979 18.996C246.075 19.2044 246.007 19.3626 245.777 19.4706Z" fill="#3A405A"/>
<path d="M219.986 19.6824C219.156 20.9483 216.854 18.9669 218.281 18.4227C219.03 18.267 220.095 18.7402 219.986 19.6824Z" fill="#3A405A"/>
<path d="M227.822 20.718C228.123 20.1949 227.698 19.3869 226.873 18.9131C226.049 18.4393 225.136 18.4792 224.835 19.0022C224.534 19.5253 224.958 20.3333 225.783 20.8071C226.608 21.2809 227.52 21.241 227.822 20.718Z" fill="#3A405A"/>
<path d="M250.46 20.1029C250.562 19.9784 250.42 19.694 250.143 19.4678C249.867 19.2416 249.56 19.1591 249.458 19.2836C249.356 19.4082 249.497 19.6925 249.774 19.9188C250.051 20.145 250.358 20.2274 250.46 20.1029Z" fill="#3A405A"/>
<path d="M215.263 20.0395C215.344 19.7913 215.115 19.4928 214.749 19.3729C214.384 19.2529 214.022 19.3569 213.94 19.6052C213.858 19.8534 214.088 20.1518 214.454 20.2718C214.819 20.3917 215.181 20.2878 215.263 20.0395Z" fill="#3A405A"/>
<path d="M248.235 20.6122C248.389 20.4233 248.193 20.0105 247.799 19.6901C247.404 19.3697 246.96 19.263 246.806 19.4519C246.652 19.6407 246.848 20.0535 247.242 20.3739C247.637 20.6943 248.081 20.801 248.235 20.6122Z" fill="#3A405A"/>
<path d="M245.991 21.3216C246.218 21.0397 245.95 20.4464 245.392 19.9963C244.834 19.5463 244.197 19.41 243.969 19.6919C243.741 19.9738 244.009 20.5671 244.568 21.0171C245.126 21.4671 245.763 21.6034 245.991 21.3216Z" fill="#3A405A"/>
<path d="M222.791 21.6445C222.093 21.6849 221.11 21.187 221.078 20.3025C221.319 19.0991 222.814 19.7565 223.227 20.4193C223.56 20.9522 223.42 21.532 222.791 21.6445Z" fill="#3A405A"/>
<path d="M218.689 21.5391C218.789 21.3008 218.588 20.9891 218.24 20.8429C217.891 20.6966 217.528 20.7713 217.427 21.0096C217.327 21.2479 217.528 21.5596 217.876 21.7058C218.225 21.852 218.588 21.7774 218.689 21.5391Z" fill="#3A405A"/>
<path d="M225.177 23.2495L224.506 22.7742C223.774 22.0266 223.787 20.7948 225.136 20.876C225.991 20.9275 226.637 21.3018 227.073 21.9989C227.331 22.4118 227.382 22.9306 226.989 23.2574C226.509 23.6554 225.719 23.5168 225.177 23.2495Z" fill="#3A405A"/>
<path d="M247.051 21.337C247.542 21.3424 247.87 21.6238 248.035 22.1811C247.917 22.9365 246.58 21.7028 247.051 21.337Z" fill="#3A405A"/>
<path d="M222.574 23.4754C222.799 23.0351 222.471 22.4171 221.841 22.0951C221.211 21.773 220.517 21.8688 220.292 22.3091C220.066 22.7493 220.394 23.3673 221.025 23.6894C221.655 24.0114 222.348 23.9156 222.574 23.4754Z" fill="#3A405A"/>
<path d="M250.601 23.7313C250.737 23.5761 250.591 23.2259 250.275 22.9493C249.958 22.6727 249.591 22.5743 249.455 22.7295C249.319 22.8848 249.465 23.2349 249.782 23.5115C250.098 23.7882 250.465 23.8866 250.601 23.7313Z" fill="#3A405A"/>
<path d="M248.433 24.6717C248.683 24.3882 248.441 23.767 247.893 23.2842C247.345 22.8014 246.698 22.6399 246.448 22.9233C246.197 23.2068 246.439 23.828 246.987 24.3108C247.535 24.7936 248.183 24.9551 248.433 24.6717Z" fill="#3A405A"/>
<path d="M217.861 24.2992C218.01 23.9399 217.729 23.4812 217.232 23.2745C216.735 23.0679 216.211 23.1916 216.061 23.5508C215.911 23.9101 216.193 24.3689 216.69 24.5755C217.187 24.7822 217.711 24.6584 217.861 24.2992Z" fill="#3A405A"/>
<path d="M225.112 23.3185C225.898 23.6332 226.653 24.5197 226.218 25.4732C225.339 26.2484 224.073 25.6568 223.58 24.6843C222.927 23.3962 224.215 22.9556 225.112 23.3185Z" fill="#3A405A"/>
<path d="M253.24 25.209C253.394 25.0425 253.238 24.6483 252.891 24.3285C252.544 24.0087 252.138 23.8843 251.984 24.0508C251.83 24.2173 251.987 24.6115 252.334 24.9313C252.681 25.2511 253.087 25.3755 253.24 25.209Z" fill="#3A405A"/>
<path d="M249.605 24.1588C250.369 24.4153 250.867 24.9045 251.098 25.6254C251.197 25.9326 251.088 26.1564 250.768 26.2946C249.949 26.1524 249.372 25.695 249.036 24.9244C248.836 24.4631 249.063 23.9957 249.605 24.1588Z" fill="#3A405A"/>
<path d="M221.734 26.0866C221.989 25.5948 221.647 24.912 220.971 24.5616C220.294 24.2112 219.539 24.3258 219.283 24.8176C219.028 25.3095 219.37 25.9923 220.047 26.3427C220.723 26.6931 221.479 26.5785 221.734 26.0866Z" fill="#3A405A"/>
<path d="M248.558 26.8734C248.845 26.5617 248.603 25.8731 248.018 25.3353C247.432 24.7975 246.725 24.6141 246.438 24.9257C246.151 25.2374 246.393 25.926 246.979 26.4638C247.564 27.0016 248.271 27.185 248.558 26.8734Z" fill="#3A405A"/>
<path d="M255.687 26.6874C255.861 26.5107 255.696 26.0666 255.318 25.6956C254.94 25.3246 254.492 25.1672 254.318 25.3439C254.145 25.5207 254.31 25.9648 254.688 26.3358C255.066 26.7068 255.513 26.8642 255.687 26.6874Z" fill="#3A405A"/>
<path d="M245.668 27.5912C244.721 28.0755 243.199 26.6507 243.407 25.7082C244.101 24.5205 246.578 26.7291 245.668 27.5912Z" fill="#3A405A"/>
<path d="M217.063 27.2006C217.279 26.6617 216.875 25.9936 216.161 25.7083C215.447 25.423 214.693 25.6286 214.477 26.1674C214.262 26.7062 214.666 27.3744 215.38 27.6597C216.094 27.945 216.847 27.7394 217.063 27.2006Z" fill="#3A405A"/>
<path d="M253.602 27.5403C253.842 27.2931 253.63 26.6966 253.127 26.2079C252.624 25.7192 252.021 25.5235 251.78 25.7707C251.54 26.0179 251.752 26.6145 252.255 27.1032C252.758 27.5918 253.361 27.7875 253.602 27.5403Z" fill="#3A405A"/>
<path d="M225.408 27.8109C225.724 27.2915 225.398 26.5167 224.679 26.0804C223.961 25.644 223.122 25.7113 222.806 26.2307C222.49 26.7501 222.816 27.5249 223.534 27.9612C224.253 28.3976 225.092 28.3303 225.408 27.8109Z" fill="#3A405A"/>
<path d="M250.585 26.8581C250.785 27.0614 250.944 27.3047 251.061 27.5902C251.276 28.2464 251.003 28.6551 250.371 28.3728C249.923 28.1727 248.705 27.0551 249.263 26.422C249.591 26.0513 250.315 26.58 250.585 26.8581Z" fill="#3A405A"/>
<path d="M232.7 28.468C233.032 28.0413 232.788 27.2984 232.156 26.8087C231.524 26.319 230.743 26.2679 230.411 26.6946C230.08 27.1212 230.324 27.8641 230.956 28.3538C231.588 28.8436 232.369 28.8947 232.7 28.468Z" fill="#3A405A"/>
<path d="M258.273 28.2981C258.491 28.087 258.295 27.5346 257.838 27.0643C257.38 26.594 256.832 26.3839 256.615 26.595C256.398 26.8061 256.593 27.3585 257.051 27.8288C257.509 28.2991 258.056 28.5093 258.273 28.2981Z" fill="#3A405A"/>
<path d="M248.211 28.87C247.355 29.1613 246.546 28.3003 246.341 27.6189C246.146 26.2481 248.984 27.7366 248.211 28.87Z" fill="#3A405A"/>
<path d="M220.851 28.9873C221.142 28.4152 220.767 27.642 220.013 27.2602C219.26 26.8785 218.414 27.0327 218.123 27.6048C217.833 28.1768 218.208 28.9501 218.961 29.3318C219.715 29.7136 220.561 29.5593 220.851 28.9873Z" fill="#3A405A"/>
<path d="M255.971 28.9246C256.19 28.7096 256.005 28.1664 255.557 27.7112C255.109 27.256 254.569 27.0613 254.35 27.2763C254.131 27.4913 254.316 28.0346 254.764 28.4897C255.212 28.9449 255.752 29.1395 255.971 28.9246Z" fill="#3A405A"/>
<path d="M227.54 27.41C228.142 27.5856 228.57 27.9229 228.823 28.422C229.139 29.0467 228.99 29.6714 228.255 29.8555C227.477 29.8864 226.887 29.6139 226.487 29.0393C225.819 28.0825 226.329 27.2014 227.54 27.41Z" fill="#3A405A"/>
<path d="M252.216 27.8439C252.949 28.0256 253.411 28.4866 253.602 29.2257C253.639 29.3715 253.573 29.5224 253.482 29.622C252.907 30.1138 251.221 28.2207 252.216 27.8439Z" fill="#3A405A"/>
<path d="M260.582 29.687C260.778 29.5067 260.606 29.0032 260.199 28.5623C259.792 28.1213 259.303 27.91 259.107 28.0903C258.912 28.2705 259.083 28.7741 259.491 29.215C259.898 29.6559 260.387 29.8672 260.582 29.687Z" fill="#3A405A"/>
<path d="M215.894 30.1962C216.117 29.6061 215.694 28.8994 214.947 28.6178C214.201 28.3361 213.416 28.5861 213.192 29.1762C212.969 29.7662 213.393 30.4729 214.139 30.7546C214.885 31.0362 215.671 30.7862 215.894 30.1962Z" fill="#3A405A"/>
<path d="M258.399 30.3795C258.61 30.1848 258.443 29.6605 258.025 29.2084C257.607 28.7564 257.098 28.5478 256.886 28.7425C256.675 28.9372 256.843 29.4615 257.26 29.9135C257.678 30.3655 258.188 30.5742 258.399 30.3795Z" fill="#3A405A"/>
<path d="M250.708 30.1694C250.905 29.9771 250.768 29.5177 250.403 29.1433C250.037 28.7689 249.581 28.6212 249.383 28.8135C249.186 29.0058 249.323 29.4652 249.688 29.8396C250.054 30.214 250.511 30.3617 250.708 30.1694Z" fill="#3A405A"/>
<path d="M224.326 30.6435C224.635 30.1661 224.375 29.4493 223.746 29.0424C223.116 28.6355 222.355 28.6926 222.046 29.1699C221.737 29.6473 221.997 30.3642 222.626 30.7711C223.256 31.178 224.017 31.1209 224.326 30.6435Z" fill="#3A405A"/>
<path d="M231.809 30.8665C232.085 30.5317 231.923 29.9424 231.447 29.5505C230.971 29.1585 230.361 29.1122 230.085 29.447C229.809 29.7819 229.97 30.3711 230.446 30.7631C230.922 31.1551 231.532 31.2014 231.809 30.8665Z" fill="#3A405A"/>
<path d="M248.219 31.3028C248.525 31.0008 248.336 30.3132 247.797 29.7671C247.258 29.2209 246.572 29.023 246.266 29.325C245.959 29.627 246.148 30.3146 246.687 30.8607C247.226 31.4068 247.912 31.6048 248.219 31.3028Z" fill="#3A405A"/>
<path d="M255.929 30.9665C256.115 30.7975 255.983 30.352 255.635 29.9714C255.287 29.5909 254.855 29.4194 254.67 29.5884C254.485 29.7574 254.616 30.2029 254.964 30.5835C255.312 30.964 255.744 31.1355 255.929 30.9665Z" fill="#3A405A"/>
<path d="M239.002 31.7316C239.352 31.3507 239.158 30.6021 238.568 30.0598C237.977 29.5174 237.214 29.3865 236.864 29.7675C236.513 30.1485 236.707 30.897 237.298 31.4394C237.888 31.9817 238.651 32.1126 239.002 31.7316Z" fill="#3A405A"/>
<path d="M262.85 31.075C263.001 30.945 262.877 30.555 262.574 30.2039C262.27 29.8529 261.902 29.6738 261.751 29.8039C261.601 29.9339 261.724 30.3239 262.028 30.6749C262.331 31.026 262.699 31.2051 262.85 31.075Z" fill="#3A405A"/>
<path d="M219.637 32.0007C219.932 31.4462 219.611 30.6988 218.919 30.3313C218.227 29.9638 217.427 30.1153 217.132 30.6698C216.837 31.2243 217.158 31.9717 217.85 32.3392C218.542 32.7067 219.342 32.5551 219.637 32.0007Z" fill="#3A405A"/>
<path d="M260.569 31.6521C260.733 31.5097 260.614 31.1044 260.303 30.7469C259.991 30.3893 259.606 30.2148 259.442 30.3572C259.278 30.4996 259.398 30.9049 259.709 31.2624C260.02 31.62 260.405 31.7945 260.569 31.6521Z" fill="#3A405A"/>
<path d="M235.418 32.8466C235.808 32.4216 235.622 31.6177 235.003 31.051C234.384 30.4842 233.566 30.3694 233.176 30.7943C232.786 31.2193 232.972 32.0233 233.591 32.59C234.211 33.1567 235.028 33.2716 235.418 32.8466Z" fill="#3A405A"/>
<path d="M227.401 31.8975C227.598 31.6388 227.476 31.2148 227.129 30.9505C226.782 30.6861 226.34 30.6815 226.143 30.9402C225.946 31.1989 226.067 31.623 226.415 31.8873C226.762 32.1517 227.204 32.1563 227.401 31.8975Z" fill="#3A405A"/>
<path d="M210.377 32.4946C209.521 32.9747 208.173 32.2551 208.884 31.206C209.378 30.8715 209.839 30.8553 210.268 31.1575C210.758 31.5032 210.876 32.0712 210.377 32.4946Z" fill="#3A405A"/>
<path d="M250.935 32.6993C250.178 33.2084 248.822 31.6743 249.425 31.1584C250.159 30.8132 251.206 32.0108 250.935 32.6993Z" fill="#3A405A"/>
<path d="M265.152 32.5521C265.281 32.4475 265.181 32.108 264.927 31.7939C264.673 31.4797 264.362 31.3098 264.233 31.4144C264.103 31.5189 264.203 31.8584 264.457 32.1726C264.711 32.4868 265.022 32.6567 265.152 32.5521Z" fill="#3A405A"/>
<path d="M222.916 32.9123C223.116 32.6132 222.974 32.1683 222.599 31.9185C222.224 31.6687 221.758 31.7086 221.558 32.0076C221.359 32.3067 221.501 32.7516 221.876 33.0014C222.251 33.2512 222.717 33.2113 222.916 32.9123Z" fill="#3A405A"/>
<path d="M214.529 33.3996C214.738 32.8143 214.341 32.1385 213.643 31.8901C212.945 31.6418 212.21 31.915 212.001 32.5003C211.793 33.0856 212.189 33.7614 212.887 34.0097C213.585 34.258 214.32 33.9849 214.529 33.3996Z" fill="#3A405A"/>
<path d="M247.994 33.7887C248.286 33.5198 248.144 32.893 247.678 32.3886C247.213 31.8842 246.598 31.6933 246.307 31.9622C246.015 32.231 246.156 32.8579 246.622 33.3622C247.088 33.8666 247.702 34.0575 247.994 33.7887Z" fill="#3A405A"/>
<path d="M230.987 33.9618C230.211 34.3603 229.039 33.1586 229.584 32.4259C229.752 32.2368 229.939 32.1581 230.146 32.1878C230.811 32.2848 231.194 32.666 231.296 33.3292C231.337 33.598 231.201 33.8361 230.987 33.9618Z" fill="#3A405A"/>
<path d="M238.35 34.2017C238.643 33.9086 238.524 33.3164 238.084 32.879C237.645 32.4416 237.052 32.3247 236.759 32.6178C236.467 32.9109 236.586 33.5031 237.025 33.9404C237.465 34.3778 238.058 34.4948 238.35 34.2017Z" fill="#3A405A"/>
<path d="M245.206 35.1382C245.616 34.7596 245.445 33.91 244.824 33.2406C244.204 32.5713 243.369 32.3356 242.959 32.7143C242.55 33.093 242.721 33.9426 243.342 34.6119C243.962 35.2812 244.797 35.5169 245.206 35.1382Z" fill="#3A405A"/>
<path d="M253.484 34.1775C253.701 33.9884 253.587 33.5035 253.23 33.0945C252.873 32.6854 252.407 32.5071 252.19 32.6962C251.973 32.8853 252.087 33.3702 252.444 33.7792C252.801 34.1883 253.267 34.3666 253.484 34.1775Z" fill="#3A405A"/>
<path d="M218.093 34.5713C218.287 34.2234 218.109 33.7553 217.696 33.5257C217.283 33.2961 216.792 33.392 216.598 33.7399C216.404 34.0877 216.582 34.5559 216.995 34.7855C217.408 35.0151 217.899 34.9192 218.093 34.5713Z" fill="#3A405A"/>
<path d="M234.802 35.8637C235.214 35.4457 235.073 34.6383 234.487 34.0603C233.9 33.4823 233.09 33.3526 232.677 33.7706C232.264 34.1885 232.405 34.996 232.992 35.574C233.579 36.152 234.389 36.2817 234.802 35.8637Z" fill="#3A405A"/>
<path d="M250.8 35.3287C251.062 35.1005 250.942 34.535 250.532 34.0655C250.122 33.5961 249.578 33.4005 249.316 33.6287C249.054 33.8568 249.174 34.4224 249.584 34.8918C249.994 35.3613 250.539 35.5569 250.8 35.3287Z" fill="#3A405A"/>
<path d="M241.058 34.0034C241.672 34.4249 242.342 35.4129 241.784 36.1426C241.052 36.8542 239.881 35.6861 239.63 35.0253C239.17 33.8106 240.174 33.4061 241.058 34.0034Z" fill="#3A405A"/>
<path d="M209.612 35.13C209.7 34.4957 209.17 33.8982 208.427 33.7953C207.685 33.6925 207.012 34.1233 206.924 34.7575C206.836 35.3918 207.366 35.9893 208.108 36.0922C208.851 36.195 209.524 35.7642 209.612 35.13Z" fill="#3A405A"/>
<path d="M247.89 36.4734C248.209 36.1979 248.09 35.5365 247.623 34.9962C247.156 34.4558 246.519 34.2411 246.199 34.5166C245.88 34.7921 245.999 35.4535 246.466 35.9939C246.933 36.5342 247.57 36.7489 247.89 36.4734Z" fill="#3A405A"/>
<path d="M255.987 35.5992C256.145 35.4724 256.07 35.1199 255.821 34.8119C255.573 34.5038 255.243 34.3568 255.086 34.4836C254.929 34.6104 255.003 34.9629 255.252 35.2709C255.501 35.579 255.83 35.726 255.987 35.5992Z" fill="#3A405A"/>
<path d="M213.03 36.2244C213.18 35.7586 212.876 35.2435 212.351 35.0739C211.825 34.9043 211.277 35.1444 211.126 35.6102C210.976 36.076 211.28 36.5911 211.805 36.7607C212.331 36.9303 212.879 36.6902 213.03 36.2244Z" fill="#3A405A"/>
<path d="M253.146 37.1798C252.488 36.8478 251.699 35.8652 252.247 35.1252C252.898 35.1283 253.396 35.4541 253.744 36.1028C254.003 36.588 254.108 37.6416 253.146 37.1798Z" fill="#3A405A"/>
<path d="M230.559 36.9168C230.866 36.593 230.772 36.0048 230.348 35.603C229.924 35.2012 229.332 35.1379 229.024 35.4617C228.716 35.7854 228.811 36.3736 229.235 36.7755C229.658 37.1773 230.251 37.2406 230.559 36.9168Z" fill="#3A405A"/>
<path d="M244.838 37.7773C243.774 38.4355 242.111 36.5572 242.758 35.4987C243.668 34.6037 245.827 36.6766 244.838 37.7773Z" fill="#3A405A"/>
<path d="M237.83 37.2144C238.134 36.936 238.053 36.3533 237.65 35.9131C237.246 35.4728 236.672 35.3416 236.368 35.62C236.063 35.8984 236.144 36.4811 236.548 36.9213C236.952 37.3616 237.526 37.4929 237.83 37.2144Z" fill="#3A405A"/>
<path d="M204.191 37.5568C204.724 37.5046 205.12 37.0977 205.075 36.6479C205.031 36.1982 204.564 35.8759 204.032 35.928C203.499 35.9802 203.103 36.387 203.148 36.8368C203.192 37.2866 203.659 37.6089 204.191 37.5568Z" fill="#3A405A"/>
<path d="M250.448 37.423C250.618 37.2898 250.568 36.9414 250.335 36.6449C250.102 36.3484 249.776 36.216 249.606 36.3492C249.436 36.4824 249.486 36.8308 249.719 37.1273C249.952 37.4238 250.278 37.5561 250.448 37.423Z" fill="#3A405A"/>
<path d="M234.291 37.8111C234.663 38.6659 234.06 39.5957 233.071 39.2242C232.161 38.8825 231.139 37.4673 232.26 36.7602C233.134 36.4411 233.957 37.063 234.291 37.8111Z" fill="#3A405A"/>
<path d="M256.373 38.7275C256.637 38.5295 256.538 37.9524 256.151 37.4386C255.765 36.9247 255.238 36.6686 254.974 36.8666C254.71 37.0645 254.809 37.6416 255.196 38.1554C255.582 38.6693 256.109 38.9254 256.373 38.7275Z" fill="#3A405A"/>
<path d="M247.792 39.367C248.157 39.0766 248.062 38.3496 247.579 37.7431C247.096 37.1367 246.409 36.8805 246.043 37.1709C245.678 37.4613 245.773 38.1883 246.256 38.7948C246.739 39.4012 247.426 39.6574 247.792 39.367Z" fill="#3A405A"/>
<path d="M208.113 38.3321C208.265 37.8674 207.962 37.3512 207.435 37.1793C206.909 37.0073 206.359 37.2447 206.207 37.7094C206.054 38.1742 206.358 38.6903 206.885 38.8622C207.411 39.0342 207.961 38.7968 208.113 38.3321Z" fill="#3A405A"/>
<path d="M240.854 38.6485C241.08 38.4586 241.032 38.0288 240.747 37.6887C240.461 37.3485 240.046 37.2267 239.819 37.4167C239.592 37.6066 239.64 38.0364 239.926 38.3765C240.212 38.7167 240.627 38.8385 240.854 38.6485Z" fill="#3A405A"/>
<path d="M253.174 38.2379C253.439 38.4848 253.518 38.7739 253.411 39.1052C252.892 39.39 252.083 38.336 252.478 37.951C252.504 37.9256 252.539 37.913 252.574 37.914C252.819 37.9204 253.019 38.028 253.174 38.2379Z" fill="#3A405A"/>
<path d="M243.29 38.5343C244.263 38.8501 244.76 39.494 244.782 40.467C244.28 41.772 242.758 40.4223 242.529 39.6667C242.343 39.0512 242.498 38.512 243.29 38.5343Z" fill="#3A405A"/>
<path d="M236.677 40.3927C235.817 40.2343 235.065 39.3216 235.758 38.5494C236.521 38.4637 237.02 38.7277 237.257 39.3425C237.453 39.8527 237.351 40.3489 236.677 40.3927Z" fill="#3A405A"/>
<path d="M258.85 39.1398C259.12 39.4458 259.229 39.7986 259.177 40.1971C259.083 40.371 258.904 40.4452 258.71 40.3527C258.09 40.0568 257.735 39.581 257.645 38.9263C257.626 38.789 257.669 38.6802 257.773 38.6009C258.112 38.3468 258.684 38.8754 258.85 39.1398Z" fill="#3A405A"/>
<path d="M229.921 40.3444C230.249 40.0564 230.22 39.488 229.857 39.0748C229.493 38.6615 228.933 38.5599 228.604 38.8478C228.276 39.1357 228.305 39.7041 228.668 40.1174C229.032 40.5307 229.592 40.6323 229.921 40.3444Z" fill="#3A405A"/>
<path d="M250.576 40.7651C250.827 40.5766 250.763 40.0668 250.432 39.6264C250.101 39.1861 249.629 38.982 249.378 39.1705C249.126 39.359 249.191 39.8688 249.522 40.3092C249.853 40.7495 250.325 40.9536 250.576 40.7651Z" fill="#3A405A"/>
<path d="M203.127 40.6784C203.608 40.5324 203.896 40.0778 203.77 39.6631C203.644 39.2484 203.151 39.0306 202.67 39.1766C202.189 39.3227 201.901 39.7773 202.027 40.192C202.153 40.6067 202.646 40.8245 203.127 40.6784Z" fill="#3A405A"/>
<path d="M256.236 40.9411C256.419 40.8156 256.37 40.4262 256.127 40.0714C255.884 39.7165 255.538 39.5306 255.355 39.656C255.171 39.7815 255.22 40.1708 255.463 40.5257C255.706 40.8806 256.052 41.0665 256.236 40.9411Z" fill="#3A405A"/>
<path d="M233.34 42.4725C233.811 42.0984 233.794 41.2942 233.302 40.6763C232.81 40.0585 232.029 39.8609 231.558 40.2351C231.087 40.6093 231.104 41.4135 231.596 42.0313C232.088 42.6492 232.869 42.8467 233.34 42.4725Z" fill="#3A405A"/>
<path d="M246.394 40.0829C247.385 40.3699 247.932 41.0208 248.03 42.0367C248.069 42.4396 247.868 42.7176 247.427 42.8716C246.449 42.6206 245.884 42.0067 245.729 41.0308C245.646 40.5079 245.845 40.1069 246.394 40.0829Z" fill="#3A405A"/>
<path d="M261.458 41.8841C261.611 41.7862 261.565 41.4407 261.355 41.1123C261.145 40.784 260.85 40.5972 260.697 40.6951C260.544 40.793 260.59 41.1385 260.8 41.4668C261.01 41.7951 261.305 41.9819 261.458 41.8841Z" fill="#3A405A"/>
<path d="M199.527 42.3302C199.959 42.1975 200.222 41.8066 200.114 41.4572C200.007 41.1078 199.569 40.9321 199.138 41.0648C198.706 41.1975 198.443 41.5884 198.55 41.9378C198.658 42.2872 199.095 42.4629 199.527 42.3302Z" fill="#3A405A"/>
<path d="M259.059 42.8376C259.258 42.709 259.206 42.2751 258.942 41.8683C258.679 41.4616 258.304 41.2361 258.105 41.3646C257.906 41.4931 257.959 41.927 258.222 42.3338C258.486 42.7406 258.86 42.9661 259.059 42.8376Z" fill="#3A405A"/>
<path d="M250.72 44.3849C251.101 44.1255 251.047 43.3842 250.599 42.7292C250.152 42.0743 249.481 41.7536 249.1 42.013C248.72 42.2724 248.774 43.0137 249.221 43.6686C249.668 44.3236 250.339 44.6443 250.72 44.3849Z" fill="#3A405A"/>
<path d="M236.314 43.7057C236.644 43.4658 236.644 42.9059 236.315 42.4552C235.986 42.0044 235.452 41.8334 235.123 42.0732C234.794 42.3131 234.793 42.8729 235.122 43.3237C235.452 43.7745 235.985 43.9455 236.314 43.7057Z" fill="#3A405A"/>
<path d="M243.781 43.6964C244.032 43.5219 244.017 43.068 243.748 42.6826C243.478 42.2972 243.057 42.1262 242.807 42.3007C242.556 42.4753 242.571 42.9292 242.841 43.3145C243.11 43.6999 243.531 43.8709 243.781 43.6964Z" fill="#3A405A"/>
<path d="M229.133 44.0353C229.473 43.7795 229.496 43.2371 229.184 42.8238C228.872 42.4105 228.344 42.2828 228.004 42.5386C227.664 42.7943 227.642 43.3367 227.954 43.75C228.265 44.1633 228.794 44.2911 229.133 44.0353Z" fill="#3A405A"/>
<path d="M260.954 43.1814C261.587 43.5104 261.8 43.9752 261.591 44.5758C260.969 44.3136 260.688 43.9042 260.746 43.3454C260.753 43.288 260.774 43.2472 260.808 43.2232C260.849 43.195 260.898 43.1814 260.954 43.1814Z" fill="#3A405A"/>
<path d="M246.227 43.3417C247.203 43.7169 247.703 44.4378 247.725 45.5022C247.195 47.172 245.136 45.0903 245.43 43.8598C245.522 43.4752 245.788 43.3029 246.227 43.3417Z" fill="#3A405A"/>
<path d="M232.435 45.9316C232.885 45.6281 232.936 44.9174 232.549 44.3443C232.162 43.7712 231.484 43.5526 231.033 43.8561C230.583 44.1596 230.531 44.8703 230.918 45.4434C231.305 46.0166 231.984 46.2351 232.435 45.9316Z" fill="#3A405A"/>
<path d="M251.11 47.6804C250.41 48.889 249.268 47.4105 248.974 46.6635C248.79 46.1947 248.76 45.7702 248.887 45.388C249.557 44.4586 250.558 45.6188 250.876 46.2452C251.1 46.6882 251.178 47.1663 251.11 47.6804Z" fill="#3A405A"/>
<path d="M264.284 46.5354C264.425 46.4564 264.391 46.1264 264.208 45.7985C264.024 45.4706 263.761 45.2688 263.619 45.3479C263.478 45.427 263.512 45.7569 263.695 46.0848C263.879 46.4128 264.142 46.6145 264.284 46.5354Z" fill="#3A405A"/>
<path d="M235.432 47.1033C235.768 46.8941 235.815 46.361 235.535 45.9126C235.256 45.4641 234.757 45.2702 234.42 45.4793C234.084 45.6885 234.037 46.2216 234.317 46.6701C234.596 47.1185 235.095 47.3125 235.432 47.1033Z" fill="#3A405A"/>
<path d="M228.268 48.2565C228.634 48.0623 228.743 47.5528 228.512 47.1186C228.281 46.6845 227.797 46.49 227.431 46.6843C227.065 46.8786 226.956 47.388 227.187 47.8222C227.418 48.2564 227.902 48.4508 228.268 48.2565Z" fill="#3A405A"/>
<path d="M253.607 49.5899C253.935 49.4006 253.922 48.7658 253.579 48.172C253.236 47.5781 252.692 47.2501 252.364 47.4393C252.035 47.6286 252.048 48.2634 252.391 48.8573C252.734 49.4511 253.278 49.7791 253.607 49.5899Z" fill="#3A405A"/>
<path d="M246.923 49.1054C247.193 48.9447 247.204 48.466 246.948 48.0364C246.692 47.6068 246.265 47.3888 245.995 47.5496C245.725 47.7103 245.714 48.189 245.97 48.6186C246.226 49.0482 246.653 49.2662 246.923 49.1054Z" fill="#3A405A"/>
<path d="M231.456 50.156C231.943 49.9094 232.087 49.217 231.779 48.6095C231.47 48.0019 230.826 47.7093 230.339 47.9558C229.852 48.2024 229.708 48.8948 230.017 49.5023C230.325 50.1099 230.97 50.4025 231.456 50.156Z" fill="#3A405A"/>
<path d="M249.49 48.9186C250.33 49.3109 250.774 49.9548 250.823 50.8493C250.836 51.0886 250.736 51.3011 250.525 51.487C249.088 52.0262 247.726 48.7687 249.49 48.9186Z" fill="#3A405A"/>
<path d="M234.407 51.1162C234.75 50.9432 234.844 50.4395 234.617 49.9911C234.391 49.5426 233.929 49.3193 233.586 49.4922C233.244 49.6652 233.15 50.1689 233.376 50.6173C233.603 51.0658 234.065 51.2891 234.407 51.1162Z" fill="#3A405A"/>
<path d="M252.57 50.9292C252.848 51.0169 253.101 51.1932 253.33 51.4572C253.926 52.1475 254.072 52.8707 253.769 53.6278C253.204 53.8978 252.746 53.5013 252.428 53.0879C252.06 52.6177 251.403 50.8674 252.57 50.9292Z" fill="#3A405A"/>
<path d="M230.303 54.6945C230.781 54.5392 231.013 53.9335 230.821 53.3415C230.628 52.7496 230.084 52.3955 229.606 52.5508C229.128 52.706 228.896 53.3118 229.088 53.9037C229.281 54.4957 229.825 54.8497 230.303 54.6945Z" fill="#3A405A"/>
<path d="M250.102 54.8898C250.416 54.7305 250.451 54.1684 250.18 53.6343C249.909 53.1003 249.434 52.7965 249.12 52.9558C248.805 53.1151 248.77 53.6772 249.042 54.2112C249.313 54.7453 249.788 55.0491 250.102 54.8898Z" fill="#3A405A"/>
<path d="M252.877 54.8805C253.597 55.357 254.069 56.3284 253.881 57.2126C253.729 57.6357 253.366 57.688 253.022 57.4416C252.195 56.8491 251.903 56.0265 252.147 54.9739C252.38 54.7799 252.624 54.7491 252.877 54.8805Z" fill="#3A405A"/>
<path d="M229.496 57.5846C229.641 57.7668 229.726 57.9708 229.75 58.1983C229.83 59.2785 228.515 59.5117 228.236 58.4561C228.04 57.7111 228.806 56.7914 229.496 57.5846Z" fill="#3A405A"/>
<path d="M255.162 57.4362C255.516 57.4172 255.827 57.5575 256.095 57.8551C256.723 58.5556 256.871 59.2902 256.538 60.0588C255.394 60.2242 254.299 58.1638 255.162 57.4362Z" fill="#3A405A"/>
<path d="M253.145 60.8735C253.438 60.7473 253.485 60.2013 253.249 59.6539C253.013 59.1065 252.584 58.765 252.29 58.8912C251.997 59.0174 251.951 59.5634 252.187 60.1108C252.423 60.6582 252.852 60.9997 253.145 60.8735Z" fill="#3A405A"/>
<path d="M255.165 61.5026C255.786 61.9692 256.094 62.5949 256.091 63.3798C256.09 63.5991 256.017 63.7713 255.871 63.8964C255.704 63.9535 255.582 63.9565 255.504 63.9034C254.785 63.4159 254.47 62.7561 254.556 61.9261C254.592 61.5787 254.788 61.3705 255.165 61.5026Z" fill="#3A405A"/>
<path d="M257.397 68.1243C256.605 67.6377 256.285 66.9307 256.438 66.0022C256.578 65.6645 256.926 65.8055 257.103 66.027C257.482 66.4967 257.66 67.0349 257.639 67.6417C257.634 67.8125 257.553 67.9734 257.397 68.1243Z" fill="#3A405A"/>
</g>
<defs>
<clipPath id="clip0_718_1835">
<rect width="265.386" height="71.2227" fill="white"/>
</clipPath>
</defs>
</svg>
