<svg width="203" height="69" viewBox="0 0 203 69" fill="none" xmlns="http://www.w3.org/2000/svg">
<g opacity="0.4" clip-path="url(#clip0_718_2313)">
<path d="M21.0641 12.2472C19.5472 14.427 20.4339 16.3668 22.0981 18.2356C26.0486 22.6772 31.4832 27.2743 30.2882 33.9639C30.2637 34.1139 30.3101 34.1412 30.4274 34.0457C31.4614 33.2191 32.4026 32.2997 33.2511 31.2875C33.2866 31.2438 33.3521 31.2384 33.3984 31.2739C33.4121 31.2848 33.423 31.3011 33.4284 31.3202C34.1569 33.6092 34.6098 35.931 34.7926 38.2854C35.0135 41.1501 34.0532 43.6546 32.1462 45.728C30.2937 47.7387 28.4358 49.7495 26.5724 51.7547C25.653 52.7478 25.0801 54.1146 24.8591 55.8525C24.5071 58.6217 24.1715 61.3908 23.8496 64.16C23.3285 68.6561 19.318 69.8674 16.0059 67.1501C14.2299 65.6905 12.934 63.8844 12.1182 61.7264C12.0746 61.6173 12.1319 61.4945 12.241 61.4508C12.2464 61.4481 12.2492 61.4481 12.2546 61.4454L12.9394 61.2326C13.0267 61.2053 13.1195 61.2408 13.1686 61.3172C14.2053 62.9896 15.8532 65.4941 18.164 65.2813C20.1174 65.1012 21.0777 62.9077 21.356 61.1535C21.7325 58.7908 22.1063 56.4254 22.4746 54.0601C23.0393 50.4261 24.9846 48.2653 27.65 45.5234C30.13 42.9725 33.2347 40.5117 33.4748 36.6594C33.4803 36.5885 33.4257 36.5257 33.3548 36.5202C33.3193 36.5175 33.2866 36.5284 33.2593 36.5503C31.2568 38.2227 28.9023 39.7259 27.279 41.7885C27.1344 41.9713 27.0198 41.9549 26.9325 41.7421C26.3405 40.3098 25.6148 38.5146 26.6433 37.0195C26.9844 36.523 27.3227 36.0237 27.6555 35.5217C29.8517 32.2069 28.6595 29.2386 26.3078 26.4367C24.9082 24.7697 23.5113 23.2283 22.1145 21.8096C21.8826 21.5723 21.7734 21.6214 21.7898 21.9515C21.9508 25.179 21.4078 28.2073 20.161 31.0392C18.535 34.7387 16.7126 37.8298 16.5543 42.0149C16.527 42.757 16.3279 43.2126 15.7031 43.5645C15.6431 43.5973 15.5667 43.5755 15.5312 43.5154C15.523 43.5018 15.5176 43.4854 15.5176 43.4718C14.8737 39.0957 15.9923 35.2789 17.8284 31.1429C19.0015 28.5047 20.6658 24.7888 20.6112 21.6323C20.5757 19.6161 19.3044 17.9001 19.1598 15.8675C19.0452 14.2688 19.4572 12.8174 20.3984 11.5105C20.5757 11.265 20.5948 10.9376 20.4448 10.673C18.7806 7.73739 17.9921 1.96172 21.607 0.0628655C21.8062 -0.0408074 21.948 -0.0162533 22.0381 0.136528C22.0844 0.218375 22.0708 0.289309 21.9971 0.34933C18.6605 2.95206 20.9113 7.79468 23.1184 10.392C24.5126 12.0344 27.0553 15.3355 30.7466 20.2954C35.5837 26.7996 39.9762 34.264 41.0238 42.0613C41.8832 48.4454 39.8753 56.51 32.5008 58.0597C30.0727 58.5698 27.7401 58.4007 25.5002 57.5549C25.3147 57.484 25.2055 57.2903 25.2437 57.0966L25.7894 54.281C25.8249 54.0983 25.9995 53.9782 26.1823 54.0137C26.1904 54.0164 26.1959 54.0164 26.2041 54.0191C32.2962 55.6152 37.5044 51.4846 38.6476 45.6025C39.3187 42.1513 38.8467 38.7792 37.2343 35.489C35.1254 31.1838 32.9401 27.5062 30.6757 24.4533C27.6064 20.3145 24.4635 16.2413 21.2442 12.239C21.206 12.1899 21.135 12.1844 21.0859 12.2253C21.075 12.2308 21.0695 12.239 21.0641 12.2472Z" fill="#3A405A"/>
<path d="M4.18486 30.5863C6.94038 27.8417 10.3834 26.1856 14.0638 23.7793C15.7198 22.6962 17.4332 21.1548 17.4877 19.024C17.4905 18.9449 17.4304 18.8767 17.3486 18.874C17.3158 18.8713 17.2858 18.8822 17.2613 18.8985C14.0693 21.1029 12.2059 15.5974 15.7226 15.2509C17.616 15.0626 18.3198 17.0624 18.5545 18.6394C19.0728 22.1233 18.9555 25.2226 17.5123 28.4528C16.4646 30.8018 15.4143 33.1508 14.3584 35.4998C11.5211 41.8048 10.247 48.5872 11.3465 55.4432C11.4501 56.0844 11.6029 56.5127 10.9045 56.881C10.7981 56.9383 10.6671 56.8974 10.6099 56.791C10.5989 56.7719 10.5935 56.7528 10.588 56.731C9.00838 48.7018 9.87869 40.9699 13.1989 33.5355C14.3012 31.0692 16.6038 26.9332 17.545 23.2746C17.5614 23.2173 17.5287 23.16 17.4714 23.1437C17.4277 23.1328 17.3786 23.1491 17.3513 23.1873C16.762 24.0522 16.0063 24.8052 15.0842 25.4518C8.30995 30.2098 0.179815 34.4931 1.90406 44.503C1.92043 44.5794 1.99409 44.6258 2.07048 44.6094C2.12232 44.5985 2.16051 44.5603 2.17415 44.5112C2.7007 42.3286 5.14247 40.0642 7.07952 42.5851C8.63734 44.6149 9.33577 46.9011 9.1748 49.4411C8.95654 52.8787 5.8409 52.8241 3.86566 50.8516C3.74289 50.7288 3.5219 50.5324 3.19997 50.2569C3.14268 50.2077 3.11267 50.2214 3.10994 50.295C2.98717 53.3943 4.3813 58.3297 8.25266 58.2097C13.7964 58.035 14.2275 50.1013 14.8495 46.1018C14.9805 45.2478 15.4034 44.5385 16.0936 43.9137C17.5368 42.6123 18.9228 41.2537 20.2542 39.8377C20.3278 39.7586 20.3769 39.7723 20.4015 39.8759C20.6743 40.9536 20.8216 42.0394 20.8462 43.1334C20.898 45.5725 16.3146 47.3295 16.17 49.1165C15.8371 53.1679 15.4334 61.9473 9.58131 61.5763C7.88162 61.4672 6.42474 60.7387 5.21341 59.391C2.35695 56.2044 1.89042 52.9278 1.66125 48.6117C1.57667 47.0294 0.747288 45.3897 0.433541 43.9928C-0.75324 38.7246 0.49629 34.2558 4.18486 30.5863ZM3.792 48.1889C5.04971 48.7809 6.7685 48.7127 7.34961 47.3049C7.76703 46.2873 6.68392 44.8058 5.51078 45.3542C4.4495 45.848 3.78927 46.6119 3.53281 47.6432C3.47006 47.8969 3.55737 48.077 3.792 48.1889Z" fill="#3A405A"/>
<path d="M13.1891 22.9197C14.3312 22.9197 15.2571 21.9938 15.2571 20.8517C15.2571 19.7096 14.3312 18.7837 13.1891 18.7837C12.047 18.7837 11.1211 19.7096 11.1211 20.8517C11.1211 21.9938 12.047 22.9197 13.1891 22.9197Z" fill="#3A405A"/>
<path d="M25.6666 30.6626C25.7239 30.5644 25.7866 30.4934 25.8603 30.4525C25.9858 30.3789 26.1495 30.4225 26.2204 30.5507C26.2395 30.5862 26.2531 30.6244 26.2559 30.6653C26.3323 31.7921 25.8384 32.1877 24.9791 33.148C23.8086 34.4548 22.6628 35.7617 21.5442 37.063C21.476 37.1422 21.356 37.1531 21.2741 37.0821C21.2441 37.0576 21.2223 37.0221 21.2141 36.9839C21.0586 36.3428 21.0722 35.8408 21.536 35.3033C22.8319 33.811 24.1551 32.3405 25.5056 30.8918C25.5493 30.8454 25.6011 30.769 25.6666 30.6626Z" fill="#3A405A"/>
<path d="M7.85759 37.1043C8.0513 37.1998 8.2832 37.1234 8.37868 36.9325C8.38414 36.9216 8.3896 36.9106 8.39505 36.897L8.68697 36.1467C8.7279 36.0349 8.8534 35.9749 8.96798 36.0185C9.05801 36.0513 9.11531 36.1386 9.10985 36.2313C9.0853 36.9707 8.8534 37.5982 8.41688 38.1165C7.76483 38.8913 6.74174 38.5912 6.55077 37.6473C6.13062 35.5793 7.9067 33.4567 9.55728 32.4418C9.62821 32.4009 9.72097 32.4227 9.7619 32.4964C9.781 32.5264 9.78645 32.5646 9.781 32.5973C9.61457 33.4567 5.69956 36.024 7.85759 37.1043Z" fill="#3A405A"/>
<path d="M88.8045 35.9446C88.8782 42.6915 88.9 49.3894 88.8645 56.0435C88.8345 61.9692 83.9701 63.8162 79.0293 61.5136C78.9692 61.4863 78.9392 61.4181 78.9556 61.3527L79.9923 57.5686C80.0223 57.4567 80.0905 57.4267 80.1915 57.484C82.295 58.649 83.9946 56.9356 83.9783 54.8158C83.9319 48.6036 83.921 42.3232 83.9428 35.9774C83.9428 35.7891 84.0383 35.6936 84.2265 35.6963L88.6381 35.7755C88.7309 35.7782 88.8045 35.8519 88.8045 35.9446Z" fill="#3A405A"/>
<path d="M189.808 51.673L188.684 55.0069C188.668 55.056 188.622 55.0887 188.57 55.0887H183.806C183.741 55.0887 183.686 55.0369 183.684 54.9714C183.684 54.9578 183.686 54.9414 183.692 54.9278L190.37 35.8629C190.387 35.8137 190.431 35.781 190.482 35.781L195.808 35.7892C195.86 35.7892 195.903 35.8219 195.92 35.871L202.481 54.9414C202.503 55.0041 202.47 55.0723 202.41 55.0942C202.397 55.0996 202.383 55.1024 202.367 55.1024L197.319 55.0833C197.265 55.0833 197.218 55.0478 197.205 54.996L196.291 51.7412C196.277 51.6893 196.231 51.6539 196.176 51.6539L189.923 51.5911C189.871 51.5911 189.825 51.6239 189.808 51.673ZM191.306 47.0322C191.293 47.0759 191.317 47.1223 191.361 47.1359C191.369 47.1386 191.377 47.1386 191.385 47.1386H194.763C194.809 47.1386 194.845 47.1032 194.845 47.0568C194.845 47.0486 194.845 47.0404 194.842 47.0322L193.153 41.7613C193.142 41.7176 193.096 41.6904 193.052 41.704C193.025 41.7122 193.001 41.734 192.995 41.7613L191.306 47.0322Z" fill="#3A405A"/>
<path d="M58.5777 51.6099H52.2809C52.2455 51.6099 52.2127 51.6344 52.2018 51.6672L51.0614 55.0311C51.0505 55.0638 51.0177 55.0884 50.9823 55.0884H46.1478C46.1015 55.0884 46.0633 55.0529 46.0605 55.0065C46.0605 54.9956 46.0605 54.9874 46.066 54.9765L52.7556 35.8434C52.7665 35.8107 52.7993 35.7861 52.8348 35.7861H58.2121C58.2476 35.7861 58.2803 35.8107 58.2912 35.8434L64.8826 54.9765C64.899 55.0202 64.8744 55.0693 64.8308 55.0829C64.8226 55.0857 64.8144 55.0884 64.8035 55.0884H59.6799C59.6417 55.0884 59.609 55.0638 59.598 55.0256L58.6595 51.6726C58.6486 51.6344 58.6159 51.6099 58.5777 51.6099ZM53.6996 46.9855C53.6832 47.0346 53.7132 47.0865 53.7596 47.1001C53.7678 47.1028 53.776 47.1028 53.7869 47.1056L57.0962 47.111C57.1481 47.111 57.189 47.0701 57.1917 47.021C57.1917 47.0101 57.1917 47.0019 57.1863 46.991L55.5412 41.7719C55.5248 41.7228 55.473 41.6955 55.4266 41.7091C55.3966 41.7173 55.3747 41.7419 55.3638 41.7719L53.6996 46.9855Z" fill="#3A405A"/>
<path d="M68.3145 54.9356V35.8816C68.3145 35.8298 68.3581 35.7861 68.4099 35.7861H72.9934C73.0452 35.7861 73.0889 35.8298 73.0889 35.8816V50.9005C73.0889 50.9524 73.1325 50.996 73.1844 50.996H79.2001C79.2519 50.996 79.2956 51.0397 79.2956 51.0915V54.9356C79.2956 54.9874 79.2519 55.0311 79.2001 55.0311H68.4099C68.3554 55.0311 68.3145 54.9874 68.3145 54.9356Z" fill="#3A405A"/>
<path d="M104.363 51.6782H98.0633C98.0279 51.6782 97.9951 51.7028 97.9842 51.7355L96.8438 55.0995C96.8329 55.1322 96.8002 55.1567 96.7647 55.1567H91.933C91.8866 55.1567 91.8484 55.1213 91.8457 55.0749C91.8457 55.064 91.8457 55.0558 91.8512 55.0449L98.5435 35.9118C98.5544 35.879 98.5872 35.8545 98.6226 35.8545H104.003C104.038 35.8545 104.071 35.879 104.082 35.9118L110.662 55.0449C110.679 55.0885 110.654 55.1376 110.61 55.1513C110.602 55.154 110.594 55.1567 110.583 55.1567H105.468C105.43 55.1567 105.397 55.1322 105.386 55.094L104.445 51.741C104.436 51.7028 104.401 51.6782 104.363 51.6782ZM99.4766 47.0921C99.4602 47.1385 99.4875 47.1903 99.5339 47.2039C99.542 47.2067 99.5502 47.2094 99.5611 47.2094H102.922C102.971 47.2094 103.012 47.1685 103.012 47.1194C103.012 47.1112 103.01 47.103 103.007 47.0921L101.326 41.8457C101.31 41.7993 101.258 41.7748 101.212 41.7911C101.187 41.7993 101.168 41.8211 101.157 41.8457L99.4766 47.0921Z" fill="#3A405A"/>
<path d="M121.186 39.8785H114.581C114.532 39.8785 114.491 39.8376 114.491 39.7885V35.8762C114.491 35.8271 114.532 35.7861 114.581 35.7861H127.723C127.772 35.7861 127.813 35.8271 127.813 35.8762V35.8789L127.733 40.7161C127.733 40.7324 127.728 40.7515 127.717 40.7652L120.842 50.8542C120.815 50.8951 120.823 50.9497 120.864 50.9797C120.88 50.9906 120.896 50.996 120.916 50.996H127.837C127.886 50.996 127.927 51.037 127.927 51.0861V55.1348C127.927 55.1839 127.886 55.2248 127.837 55.2248H114.308C114.259 55.2248 114.218 55.1839 114.218 55.1348V50.3276C114.218 50.3112 114.223 50.2921 114.234 50.2785L121.262 40.0204C121.292 39.9794 121.281 39.9249 121.24 39.8949C121.224 39.8839 121.205 39.8785 121.186 39.8785Z" fill="#3A405A"/>
<path d="M137.222 51.2007H145.301C145.35 51.2007 145.388 51.2388 145.388 51.288V55.1375C145.388 55.1866 145.35 55.2248 145.301 55.2248H132.516C132.467 55.2248 132.429 55.1866 132.429 55.1375V35.8734C132.429 35.8243 132.467 35.7861 132.516 35.7861H144.687C144.736 35.7861 144.774 35.8243 144.774 35.8734V39.7857C144.774 39.8348 144.736 39.873 144.687 39.873L137.29 39.8648C137.241 39.8648 137.203 39.903 137.203 39.9521V43.5425C137.203 43.5916 137.241 43.6298 137.29 43.6298H143.527C143.576 43.6298 143.614 43.668 143.614 43.7171V47.4984C143.614 47.5475 143.576 47.5857 143.527 47.5857H137.222C137.173 47.5857 137.135 47.6239 137.135 47.673V51.1133C137.135 51.1625 137.173 51.2007 137.222 51.2007Z" fill="#3A405A"/>
<path d="M154.391 47.7194V51.067C154.391 51.1406 154.451 51.2007 154.524 51.2007H162.51C162.584 51.2007 162.644 51.2607 162.644 51.3343V55.0911C162.644 55.1648 162.584 55.2248 162.51 55.2248H149.818C149.745 55.2248 149.685 55.1648 149.685 55.0911V35.9198C149.685 35.8462 149.745 35.7861 149.818 35.7861H161.896C161.97 35.7861 162.03 35.8462 162.03 35.9198V39.6957C162.03 39.7694 161.97 39.8294 161.896 39.8294L154.612 39.8485C154.541 39.8512 154.484 39.9058 154.481 39.9767L154.377 43.4934C154.374 43.5671 154.434 43.6271 154.508 43.6298H154.511H160.737C160.81 43.6298 160.87 43.6898 160.87 43.7635V47.4521C160.87 47.5257 160.81 47.5857 160.737 47.5857H154.524C154.451 47.5857 154.391 47.6458 154.391 47.7194Z" fill="#3A405A"/>
<path d="M172.023 47.8644C171.862 47.8507 171.783 47.9244 171.783 48.0854V54.9523C171.783 55.0423 171.737 55.0887 171.647 55.0887H167.077C166.987 55.0887 166.94 55.0423 166.94 54.9523V35.9256C166.94 35.8492 167 35.7892 167.077 35.7892C170.012 35.7837 172.967 35.7837 175.941 35.7919C181.133 35.8056 182.737 43.401 178.039 45.5999C177.971 45.6299 177.941 45.7118 177.971 45.7827C177.979 45.7991 177.987 45.8127 178.001 45.8236C178.514 46.3447 178.849 46.7649 179.125 47.4442C180.137 49.9269 181.114 52.4205 182.058 54.925C182.098 55.0342 182.06 55.0887 181.943 55.0887H177.248C177.169 55.0887 177.095 55.0396 177.068 54.9632C176.225 52.6442 175.256 50.3798 174.165 48.1699C174.129 48.099 174.061 48.0499 173.982 48.0444L172.023 47.8644ZM171.775 40.0889L171.786 43.5647C171.788 43.6438 171.851 43.7065 171.93 43.7065L173.966 43.7011C174.989 43.6984 175.815 42.8662 175.813 41.8432V41.8404V41.7804C175.807 40.7573 174.978 39.9334 173.955 39.9361L171.919 39.9416C171.84 39.9416 171.775 40.0071 171.775 40.0862V40.0889Z" fill="#3A405A"/>
<path d="M23.5173 42.1128L26.0272 43.3377C26.0736 43.3596 26.0927 43.4169 26.0709 43.4605L24.6522 46.3688C24.6304 46.4152 24.5731 46.4343 24.5294 46.4125L22.0195 45.1875C21.9731 45.1657 21.954 45.1084 21.9758 45.0647L23.3945 42.1564C23.4163 42.11 23.4709 42.0909 23.5173 42.1128Z" fill="#3A405A"/>
<path d="M21.5952 55.0858C19.5736 53.2934 18.0349 51.1517 16.9818 48.6581C16.9408 48.5599 16.9599 48.4753 17.0418 48.4071L17.8166 47.7469C17.9094 47.6678 17.9939 47.676 18.0676 47.7714C19.3089 49.3402 20.6922 50.7698 22.2227 52.063C22.2964 52.1257 22.3291 52.2239 22.31 52.3194L21.7234 55.0449C21.7152 55.0858 21.6743 55.1131 21.6307 55.1049C21.617 55.1022 21.6061 55.094 21.5952 55.0858Z" fill="#3A405A"/>
<path d="M32.2501 47.7033L34.7655 48.9201C34.8119 48.9419 34.8337 48.9992 34.8092 49.0483L33.3987 51.9675C33.3769 52.0139 33.3196 52.0357 33.2705 52.0112L30.755 50.7944C30.7086 50.7726 30.6868 50.7153 30.7114 50.6662L32.1219 47.747C32.1464 47.7006 32.2037 47.6788 32.2501 47.7033Z" fill="#3A405A"/>
<path d="M18.5573 54.7582L20.628 56.4579C20.6935 56.5125 20.7017 56.608 20.6498 56.6734L18.6309 59.1316C18.5764 59.1971 18.4809 59.2052 18.4154 59.1534L16.3447 57.4537C16.2792 57.3992 16.271 57.3037 16.3229 57.2382L18.3418 54.78C18.3963 54.7118 18.4918 54.7037 18.5573 54.7582Z" fill="#3A405A"/>
<path d="M18.0749 59.4592L20.0719 61.1179C20.1538 61.1861 20.1647 61.3062 20.0965 61.388L18.1158 63.7725C18.0476 63.8544 17.9275 63.8653 17.8457 63.7971L15.8486 62.1383C15.7668 62.0701 15.7559 61.9501 15.8241 61.8682L17.8048 59.4837C17.873 59.4046 17.993 59.391 18.0749 59.4592Z" fill="#3A405A"/>
<path d="M27.7352 62.3346C27.8688 62.5801 28.1744 62.6702 28.4199 62.5365C28.5209 62.4819 28.6 62.3946 28.6437 62.2909L28.9137 61.6553C28.9465 61.5734 29.0392 61.5352 29.1211 61.568C29.1566 61.5816 29.1866 61.6116 29.2029 61.6471C29.4703 62.2036 30.3734 64.5199 28.7746 64.1489C27.4541 63.846 26.5456 61.5107 26.3165 60.3239C26.2974 60.2448 26.3492 60.1656 26.4283 60.1466C26.4938 60.1329 26.562 60.1629 26.592 60.2257L27.7352 62.3346Z" fill="#3A405A"/>
</g>
<defs>
<clipPath id="clip0_718_2313">
<rect width="202.642" height="68.6317" fill="white"/>
</clipPath>
</defs>
</svg>
