<svg width="156" height="60" viewBox="0 0 156 60" fill="none" xmlns="http://www.w3.org/2000/svg">
<g opacity="0.4" clip-path="url(#clip0_718_2058)">
<path d="M146.091 11.8176C137.657 5.68342 128.211 1.45331 118.196 0H115.144C111.87 0.421929 109.124 1.34152 107.831 4.72417L107.456 5.46344C105.504 8.5035 105.947 12.9752 106.696 16.1667C108.58 24.1906 111.891 31.7096 114.19 39.6001C114.827 41.8035 115.443 43.9888 116.034 46.1598H116.636C119.601 45.013 122.526 43.8518 125.592 42.9394C130.812 41.3851 136.159 40.0328 141.303 38.2585C145.987 36.6393 151.931 34.6487 154.309 29.9065C154.417 29.7767 154.5 29.5675 154.561 29.279C155.278 28.3702 155.761 27.2667 156.009 25.9685V24.4394C154.882 19.0734 150.267 14.8541 146.091 11.8176ZM137.293 30.2238C135.802 32.4236 131.284 34.5946 129.31 35.5106C126.795 36.679 122.188 37.9556 120.159 35.8856C117.277 32.9466 116.398 25.8928 116.503 22.1134C116.895 7.91568 144.034 20.2851 137.293 30.2238ZM116.881 43.621C116.863 43.5777 116.849 43.5381 116.841 43.4912C116.852 43.5417 116.87 43.5885 116.888 43.6318C116.885 43.6282 116.881 43.6246 116.881 43.621ZM117.807 44.097C117.803 44.097 117.796 44.097 117.792 44.097C117.839 44.0862 117.886 44.0754 117.933 44.0537C117.893 44.0754 117.85 44.0898 117.807 44.097Z" fill="#3A405A"/>
<path d="M66.9986 20.2386H73.7154C73.9036 20.2386 74.0516 20.0905 74.0516 19.9021V10.9252C74.0516 10.757 74.1457 10.6022 74.3003 10.5215L76.425 9.46497C76.6334 9.35731 76.741 9.4246 76.741 9.66012V20.5481C76.741 21.9209 75.6249 23.0312 74.2533 23.0312H74.2465L50.8622 22.9034C50.6537 22.9034 50.4991 22.9909 50.3848 23.1726L47.9643 27.0957C47.8635 27.264 47.6483 27.3111 47.4869 27.2101C47.3592 27.1294 47.292 26.9813 47.3256 26.8333L48.0584 23.5023C48.119 23.2197 48.0047 23.0716 47.7155 23.0649L43.4932 22.9168C42.256 22.8765 41.2744 21.8536 41.2744 20.6087V2.19733C41.2744 1.94835 41.382 1.77339 41.6039 1.65899L43.5066 0.683242C43.8092 0.528468 43.9638 0.622679 43.9638 0.965874V19.7608C43.9638 20.03 44.0916 20.1376 44.3538 20.0838C45.1673 19.9156 45.9943 19.855 46.8213 19.9088C46.8684 19.9156 47.0297 19.9627 47.2315 20.0367C47.534 20.1376 47.7828 20.0905 47.9643 19.8954C48.1055 19.7406 48.166 19.5051 48.1458 19.1821C47.9778 16.948 47.9643 14.7138 48.0921 12.4864C48.1257 12.0086 48.2669 11.975 48.5156 12.3788L49.6452 14.1957C49.7528 14.3639 49.8805 14.3841 50.0284 14.2428C53.5852 10.9521 57.9555 9.2631 63.1393 9.17562C68.2357 9.09486 66.649 16.6048 66.6624 19.9021C66.6624 20.1242 66.7767 20.2386 66.9986 20.2386ZM62.635 12.2374C56.8394 11.8471 52.8456 14.2226 50.6604 19.357C50.573 19.5724 50.6739 19.8214 50.8823 19.9088C50.9361 19.929 50.9899 19.9425 51.0437 19.9425L63.583 19.8954C63.8116 19.8954 63.9932 19.7137 63.9932 19.4916V19.4849L63.9058 13.5766C63.8991 12.8633 63.341 12.2845 62.635 12.2374Z" fill="#3A405A"/>
<path d="M33.3399 16.3357C33.4139 16.5577 33.6492 16.6788 33.8711 16.6116C34.0459 16.5577 34.1669 16.3895 34.1669 16.2011L34.4695 2.52041C34.4762 2.30507 34.577 2.1503 34.772 2.05609L36.5403 1.20147C36.8227 1.07361 36.9706 1.16109 36.9841 1.46391C37.3337 8.099 38.0867 17.8026 32.9029 22.8294C32.7281 23.0044 32.4927 23.0986 32.244 23.0986H29.0503C28.9293 23.0986 28.8352 22.9977 28.8352 22.8833C28.8352 22.8227 28.862 22.7689 28.9091 22.7285L31.7061 20.2185C31.9347 20.0099 32.0019 19.6734 31.8675 19.3975C30.2 15.9454 28.6334 12.4529 27.1744 8.93343C26.3071 6.84062 26.529 5.31307 27.3022 3.3212C27.3963 3.08567 27.6653 2.97127 27.9006 3.07221C28.0687 3.13951 28.183 3.30101 28.183 3.4827C28.2166 7.30494 31.9885 12.5807 33.3399 16.3357Z" fill="#3A405A"/>
<path d="M81.1104 22.7487V2.4195C81.1104 2.33202 81.1574 2.25126 81.2314 2.21089L83.4703 1.03999C83.5846 0.979427 83.7191 1.0198 83.7796 1.1342C83.7998 1.16785 83.8065 1.20149 83.8065 1.24187L83.793 22.7487C83.793 22.8766 83.6922 22.9775 83.5644 22.9775H81.339C81.2179 22.9775 81.1104 22.8766 81.1104 22.7487Z" fill="#3A405A"/>
<path d="M72.8403 4.13597C73.1429 4.14943 73.3849 4.40514 73.3715 4.70796L73.3311 6.21533C73.3177 6.63254 72.995 6.96901 72.605 6.95555L71.3679 6.9219C70.9779 6.90844 70.6686 6.56525 70.6821 6.1413L70.7291 4.63394C70.7359 4.33112 70.9913 4.08887 71.2939 4.0956L72.8403 4.13597Z" fill="#3A405A"/>
<path d="M74.2256 4.55305C74.2256 4.29734 74.4273 4.09546 74.6828 4.09546H76.0073C76.4107 4.09546 76.7402 4.34444 76.7402 4.65399V6.36323C76.7402 6.67278 76.4107 6.92176 76.0073 6.92176H74.6828C74.4273 6.92176 74.2256 6.71988 74.2256 6.46417V4.55305Z" fill="#3A405A"/>
<path d="M12.8189 11.182C12.8055 11.4781 12.5567 11.7068 12.2609 11.6934L11.2456 11.653C10.6741 11.6261 10.2236 11.182 10.2438 10.6503L10.2842 9.57366C10.3111 9.04205 10.7951 8.63156 11.3666 8.65848L12.3819 8.69885C12.6777 8.71231 12.9131 8.9613 12.8996 9.25739L12.8189 11.182Z" fill="#3A405A"/>
<path d="M13.8748 10.475V9.33777C13.8748 9.0686 14.0765 8.84654 14.3454 8.81289L16.0129 8.60428C16.7323 8.52353 17.2365 9.09552 17.1424 9.87612C17.0752 10.4616 16.6785 11.0268 16.1541 11.296C15.5422 11.6055 14.8631 11.7267 14.1101 11.6594C13.8344 11.6392 13.6932 11.4844 13.6865 11.2018C13.6865 11.0807 13.7134 10.9663 13.7672 10.8653C13.8412 10.7442 13.8748 10.6163 13.8748 10.475Z" fill="#3A405A"/>
<path d="M21.4391 19.7414V13.3687C21.4391 13.113 21.5803 12.8775 21.8089 12.7564L23.7588 11.7201C23.8865 11.6528 24.0479 11.6999 24.1151 11.8277C24.1353 11.8681 24.1487 11.9085 24.1487 11.9556L24.1218 20.5825C24.1151 21.9755 22.9855 23.0993 21.6005 23.0993C17.9833 23.0993 7.41389 24.0078 4.56311 22.3254C1.79303 20.6969 1.6989 16.6997 2.68053 13.8936C2.74777 13.6648 2.98981 13.5302 3.22514 13.5975C3.42684 13.6581 3.55459 13.8532 3.53442 14.0619C3.33943 18.0389 5.26908 20.098 9.32336 20.2259C13.2432 20.347 17.1495 20.3268 21.0425 20.1586C21.2711 20.1451 21.4459 19.9634 21.4391 19.7414Z" fill="#3A405A"/>
<path d="M20.2017 32.3513H22.6087C23.1735 32.3513 23.6307 32.8022 23.6374 33.3675C23.6374 33.5693 23.5836 33.7645 23.4693 33.9327C22.9449 34.7335 22.1246 34.9892 21.0152 34.6864C20.2891 34.4912 19.926 34.7739 19.926 35.5276V43.8517C19.926 44.3766 20.316 44.814 20.8337 44.8745L23.3617 45.1841C23.9332 45.2447 24.3501 45.7561 24.2963 46.3281C24.2492 46.8126 23.8727 47.1962 23.3886 47.2567C21.1362 47.5865 17.2164 47.6605 17.2299 44.1276C17.2433 41.1465 17.2433 38.1654 17.2299 35.1844C17.2299 34.9219 17.0147 34.7066 16.7458 34.7066H15.7305C15.428 34.7066 15.1859 34.4711 15.1725 34.175L15.1321 32.9637C15.1254 32.7349 15.233 32.6003 15.4549 32.5667L16.8601 32.3311C17.1088 32.284 17.2366 32.136 17.2366 31.8803V28.9665C17.2366 28.7041 17.3711 28.556 17.6333 28.5224L19.4352 28.2936C19.6503 28.2666 19.852 28.4214 19.8789 28.6435C19.8789 28.6569 19.8789 28.6771 19.8789 28.6906L19.8453 31.9947C19.8453 32.2302 19.9663 32.3513 20.2017 32.3513Z" fill="#3A405A"/>
<path d="M26.1729 30.7909L26.3746 29.0278C26.3947 28.8731 26.4821 28.7385 26.6099 28.6645C27.2284 28.3145 27.6453 28.1665 27.8605 28.2136C28.7009 28.402 29.3934 29.1893 29.4001 29.9767C29.4069 30.5352 29.0572 30.9591 28.5059 31.0601L26.7981 31.3696C26.509 31.4235 26.2334 31.2351 26.1796 30.9457C26.1729 30.8919 26.1729 30.8447 26.1729 30.7909Z" fill="#3A405A"/>
<path d="M60.9466 28.3484H62.6275C62.9032 28.3484 63.1318 28.5772 63.1318 28.8531V46.8338C63.1318 47.1097 62.9032 47.3385 62.6275 47.3385H60.9466C60.671 47.3385 60.4424 47.1097 60.4424 46.8338V28.8531C60.4424 28.5772 60.671 28.3484 60.9466 28.3484Z" fill="#3A405A"/>
<path d="M84.15 44.8079L87.2092 45.1713C87.4848 45.2049 87.6395 45.3529 87.6798 45.6288L87.8815 46.8401C87.9286 47.116 87.8076 47.2573 87.5319 47.2775C84.3651 47.5063 80.9966 47.7889 80.963 43.6437C80.9428 40.8241 80.9361 38.0045 80.9496 35.1782C80.9496 34.862 80.7949 34.7072 80.4789 34.7072H79.5847C79.2821 34.7072 79.1073 34.5592 79.0603 34.2563L78.8854 33.1056C78.8384 32.7893 78.9661 32.6077 79.2821 32.5538L80.6874 32.3183C80.8689 32.2914 81.0034 32.1299 81.0034 31.9415L80.9697 29.0277C80.963 28.7316 81.1109 28.5633 81.4068 28.523L83.1616 28.2807C83.3835 28.2471 83.5919 28.4018 83.6255 28.6306C83.6255 28.6508 83.6322 28.671 83.6322 28.6912V32.0155C83.6322 32.2375 83.7465 32.3452 83.9684 32.3452L86.4292 32.3587C87.0344 32.3587 87.5252 32.8499 87.5252 33.4555C87.5252 33.8526 87.3033 34.2227 86.9537 34.4178C86.3149 34.7678 85.5955 34.8418 84.7887 34.6466C84.2844 34.5255 83.7802 34.8283 83.6591 35.333C83.639 35.407 83.6322 35.4811 83.6322 35.5551V44.2291C83.639 44.5252 83.8609 44.7742 84.15 44.8079Z" fill="#3A405A"/>
<path d="M2.8212 41.8601C4.73741 45.9919 9.23544 44.7941 12.9065 44.8008C13.1485 44.8076 13.3637 44.8883 13.5452 45.0565C14.1033 45.568 14.2982 46.214 14.1234 46.9879C14.0764 47.1965 13.9486 47.3041 13.7335 47.3109C10.2843 47.358 5.23495 48.0309 2.51865 45.6218C0.373844 43.7241 -0.177485 40.7094 0.34695 37.9235C1.73199 30.6559 13.1889 30.279 13.8948 37.8225C14.2041 41.1266 5.47699 40.918 3.25823 41.1064C2.96912 41.1334 2.74725 41.3891 2.77414 41.6784C2.78086 41.7457 2.80103 41.8063 2.8212 41.8601ZM2.98257 39.0809L11.5214 37.9841C11.5618 37.9773 11.5887 37.9437 11.5819 37.9033V37.8898C11.313 35.7836 9.20854 34.3233 6.87548 34.6194L6.63344 34.6531C4.3071 34.9559 2.63295 36.9006 2.90189 39.0002V39.0136C2.90861 39.054 2.94223 39.0877 2.98257 39.0809Z" fill="#3A405A"/>
<path d="M26.7166 32.3992H28.4512C28.6731 32.3992 28.8479 32.5809 28.8479 32.7962L28.821 46.9277C28.821 47.1498 28.6395 47.3247 28.4243 47.3247H26.6897C26.4678 47.3247 26.293 47.1431 26.293 46.9277L26.3199 32.7962C26.3199 32.5741 26.5014 32.3992 26.7166 32.3992Z" fill="#3A405A"/>
<path d="M41.4883 39.0205C45.1459 39.8347 44.8231 45.1643 42.0665 46.6178C39.767 47.8291 34.7715 47.3244 31.7324 47.3244C31.524 47.3244 31.3761 47.2235 31.2954 47.0283C30.6432 45.3662 31.719 44.8077 33.178 44.8009C35.3228 44.8009 37.4542 44.7875 39.5855 44.7538C41.495 44.7269 42.0732 42.7619 40.9504 41.5036C40.789 41.3219 40.594 41.2209 40.3587 41.1873C36.7952 40.6691 34.5227 40.2519 33.5411 39.9356C30.7979 39.0608 31.0466 34.7474 32.8149 33.2602C34.6236 31.7461 39.5721 32.3585 41.9993 32.3517C42.4632 32.3517 42.8397 32.7218 42.8397 33.1862C42.8397 33.24 42.833 33.2938 42.8262 33.3477L42.6447 34.2628C42.5842 34.5522 42.4094 34.6935 42.1203 34.7003C40.4125 34.7137 34.3143 33.8591 34.0857 36.2816C34.0117 37.0622 34.563 37.7621 35.343 37.8832C37.4273 38.186 39.4712 38.5696 41.4883 39.0205Z" fill="#3A405A"/>
<path d="M54.4441 34.8287L47.5256 34.6471C47.0213 34.6336 46.6112 34.2433 46.5709 33.7386C46.5238 32.9782 46.8465 32.5812 47.539 32.534C51.1294 32.3187 57.8529 30.8383 57.8731 36.7264C57.8798 40.091 57.9067 43.4557 57.9538 46.8271C57.9605 47.0828 57.8395 47.2376 57.5907 47.2981C56.7435 47.5 56.1115 47.2645 55.6879 46.5916C55.5535 46.3829 55.3719 46.3291 55.1501 46.4435C50.8806 48.6103 43.8411 47.2443 45.8111 40.7505C46.9474 37.0225 56.5284 39.4652 55.4392 35.6026C55.3114 35.1517 54.908 34.8422 54.4441 34.8287ZM48.2316 42.1569C46.8869 45.7369 52.7094 45.9052 54.518 44.2632C55.6073 43.2673 55.4526 41.6253 55.3787 40.2593C55.3652 40.0372 55.2442 39.9295 55.0223 39.943C53.1666 40.0709 48.9644 40.1987 48.2316 42.1569Z" fill="#3A405A"/>
<path d="M74.777 37.1092C76.0208 33.8052 69.0754 34.6261 67.4887 34.6531C66.3793 34.6732 65.949 34.1484 66.2112 33.0784C66.312 32.6545 66.6953 32.3584 67.1323 32.3584C70.5748 32.3516 77.2781 30.999 77.5336 36.443C77.6008 37.9302 77.6076 41.4025 77.5605 46.86C77.5605 47.0955 77.4462 47.2368 77.2176 47.2974C76.3503 47.5195 75.6981 47.3041 75.2543 46.6379C75.1266 46.4495 74.9585 46.4024 74.7501 46.4966C72.7801 47.4185 70.8235 47.6541 68.867 47.1965C65.4851 46.4024 63.6563 42.9503 66.0364 40.0365C67.9391 37.7149 71.8522 38.5089 74.3399 37.5467C74.5416 37.4726 74.703 37.3111 74.777 37.1092ZM67.6836 42.4321C67.0449 46.4899 76.3973 47.035 74.7904 40.198C74.7433 39.9827 74.6021 39.8884 74.3803 39.9154C72.6389 40.1307 68.0198 40.2787 67.6836 42.4321Z" fill="#3A405A"/>
</g>
<defs>
<clipPath id="clip0_718_2058">
<rect width="156.009" height="59.4911" fill="white"/>
</clipPath>
</defs>
</svg>
