<svg width="188" height="53" viewBox="0 0 188 53" fill="none" xmlns="http://www.w3.org/2000/svg">
<g opacity="0.4" clip-path="url(#clip0_718_2203)">
<path d="M165.541 15.1825L163.658 16.2428C163.64 16.2529 163.64 16.2638 163.657 16.2755C163.668 16.2833 163.685 16.2826 163.706 16.274C163.645 16.3067 163.583 16.3067 163.525 16.3411C162.486 16.9449 161.469 17.5823 160.473 18.2525C160.231 18.4155 160.065 18.6309 159.975 18.9C159.954 18.9632 159.987 19.0311 160.051 19.0521C160.056 19.0537 160.062 19.0553 160.068 19.0568C160.173 19.0763 160.287 19.1005 160.398 19.1036C162.762 19.159 165.372 19.2581 168.228 19.4009C168.434 19.411 168.579 19.4227 168.661 19.4352C168.529 19.8269 168.171 20.1522 167.864 20.4128C167.849 20.4252 167.85 20.4369 167.866 20.4486C167.877 20.4572 167.887 20.4564 167.898 20.4479C167.859 20.4838 167.816 20.4689 167.763 20.5064C166.258 21.5471 164.771 21.5885 162.981 21.5596C162.787 21.5557 162.653 21.647 162.578 21.8334C162.569 21.8568 162.569 21.8826 162.577 21.9068C162.745 22.417 163.451 23.0739 163.808 23.3868C163.883 23.4765 163.98 23.5685 164.1 23.6629C164.403 23.904 165.69 24.9034 165.984 24.8496C165.98 24.894 165.988 24.9213 166.01 24.9323C168.717 26.3327 171.673 27.0816 174.738 27.3882C174.767 27.3906 174.781 27.4069 174.781 27.4358V29.3425C174.781 29.3738 174.756 29.3995 174.725 29.4011C171.538 29.5103 168.36 29.6921 165.19 29.9472C164.179 30.0283 163.11 30.0977 162.135 30.3934C162.08 30.4098 162.049 30.4683 162.066 30.5245C162.067 30.5307 162.07 30.537 162.073 30.5424C162.081 30.5573 162.117 30.5744 162.182 30.5924C162.49 30.6782 162.801 30.7656 163.123 30.8046C166.787 31.2485 170.722 31.4209 174.514 31.559C174.54 31.5606 174.559 31.5816 174.558 31.6074C174.558 31.6097 174.557 31.612 174.557 31.6144L174.137 33.7481C174.133 33.7708 174.119 33.7825 174.095 33.7832C171.234 33.8808 168.376 34.0376 165.522 34.2553C164.541 34.3294 163.565 34.4402 162.593 34.586C162.344 34.6235 162.106 34.6898 161.877 34.785C161.844 34.799 161.829 34.8373 161.843 34.87C161.85 34.8864 161.863 34.8989 161.879 34.9051C162.125 34.9964 162.384 35.0627 162.656 35.1056C163.538 35.2437 164.425 35.3467 165.317 35.4154C167.984 35.6205 170.693 35.7797 173.443 35.8928C173.459 35.8936 173.47 35.9061 173.47 35.9217C173.47 35.9248 173.469 35.9287 173.468 35.9318L172.551 38.1132C172.539 38.142 172.511 38.1615 172.479 38.1631C169.514 38.2957 166.411 38.4447 163.555 38.8731C163.369 38.9011 163.176 38.9807 162.99 39.04C162.949 39.0525 162.925 39.097 162.938 39.1383C162.945 39.1625 162.964 39.1812 162.987 39.1898C163.358 39.3217 163.752 39.4129 164.169 39.4621C166.576 39.7476 169.015 39.8904 171.43 40.0066C171.454 40.0082 171.473 40.0293 171.471 40.0534C171.471 40.0605 171.469 40.0683 171.465 40.0745C170.929 40.9108 170.352 41.7175 169.732 42.4946C169.682 42.5562 169.621 42.5929 169.537 42.6007C168.045 42.738 166.538 42.8324 165.07 43.1437C164.912 43.1772 164.775 43.2272 164.659 43.2935C164.619 43.3153 164.606 43.3652 164.628 43.405C164.638 43.423 164.654 43.4362 164.673 43.4425C165.804 43.8248 167.115 43.902 168.3 43.9987C168.313 43.9995 168.323 44.0105 168.323 44.0229C168.323 44.0292 168.32 44.0346 168.315 44.0393C166.993 45.3281 165.534 46.4383 163.938 47.3706C163.914 47.3854 163.891 47.3823 163.87 47.3628L162.187 45.7627C161.914 45.4249 161.615 45.1284 161.293 44.8725C161.286 44.8382 161.275 44.8132 161.26 44.7969C160.437 43.9036 159.678 42.9588 158.983 41.9609C158.97 41.9422 158.952 41.9235 158.929 41.9056C158.898 41.8822 158.88 41.8619 158.875 41.8447C158.549 41.3079 158.198 40.8024 157.825 40.3281L156.056 37.8097C156.07 37.8112 156.077 37.7988 156.078 37.773C156.078 37.7613 156.074 37.7488 156.066 37.7364C155.647 37.1021 155.232 36.492 154.821 35.9045C154.529 35.5176 154.263 35.2227 154.025 35.0206C153.568 34.6321 153.131 34.721 152.538 34.909C151.696 35.1766 150.834 35.3545 149.952 35.4411C149.755 35.4606 149.583 35.4512 149.439 35.413C149.38 35.3982 149.345 35.3389 149.36 35.2804C149.368 35.2484 149.39 35.2219 149.42 35.2078C149.839 35.0128 150.244 34.8139 150.635 34.6102C152.983 33.3869 154.967 31.2516 155.278 28.5257C155.459 26.931 155.315 25.3255 154.843 23.7082C154.834 23.6793 154.825 23.6785 154.815 23.7074C154.405 24.8324 154.095 25.7155 153.219 26.5878C153.2 26.6065 153.17 26.6073 153.15 26.5886C153.138 26.5769 153.133 26.5605 153.137 26.5441C153.482 24.7825 153.193 22.9038 152.149 21.4293C152.136 21.4106 152.109 21.4059 152.091 21.4192C152.082 21.4254 152.077 21.434 152.074 21.4441L151.53 23.9048C151.527 23.9243 151.515 23.9383 151.497 23.9454C150.331 24.4142 149.553 25.2467 149.165 26.4419C149.151 26.4856 149.174 26.5324 149.217 26.5464C149.223 26.5488 149.23 26.5495 149.238 26.5503C149.749 26.5917 150.204 26.4536 150.604 26.1368C150.62 26.1244 150.643 26.1267 150.655 26.1423C150.663 26.1517 150.665 26.1641 150.661 26.1751C149.87 29.0781 148.803 31.8773 147.319 34.4924C147.116 34.8497 146.844 35.264 146.503 35.7352C145.745 36.6215 145.103 37.3112 144.007 37.7925C143.613 37.9649 142.957 38.167 142.619 37.8799C141.836 37.216 141.11 36.474 140.44 35.6541C140.864 35.5464 141.23 35.3475 141.538 35.058C141.802 34.8107 142.301 34.2514 142.15 33.8652C142.14 33.8394 142.111 33.8269 142.085 33.8363C142.079 33.8386 142.074 33.8418 142.07 33.8457C141.437 34.384 140.302 35.4325 139.47 34.6391C139.246 34.4261 139.226 34.1905 139.413 33.9323L141.073 31.3554L142.289 29.685L144.325 27.1752C144.329 27.1698 144.329 27.1651 144.324 27.1596C144.311 27.1464 144.312 27.1425 144.328 27.1464L145.876 25.3965L148.169 22.9951L150.306 20.9799L152.668 18.9039C153.624 18.0808 154.614 17.289 155.637 16.5283L157.787 14.9173L161.946 11.9901C161.96 11.9807 161.976 11.9745 161.993 11.9721C162.044 11.9667 162.076 11.9409 162.089 11.8933C162.5 11.6663 162.896 11.4003 163.279 11.096C167.948 7.97769 172.813 5.13866 177.887 2.72717C179.808 1.81359 181.77 0.999877 183.772 0.286025C184.161 0.147155 184.941 -0.225764 185.155 0.326594C185.31 0.726819 184.974 0.924981 184.596 1.09506C178.584 3.79287 172.887 7.19596 167.359 10.766C166.389 11.3925 165.172 11.9448 164.33 12.4184C161.661 13.921 159.075 15.5547 156.57 17.3186C156.336 17.484 156.512 17.8296 156.789 17.6494C165.955 11.6788 176.23 7.79513 186.76 4.84922C186.902 4.80943 187.074 4.80553 187.276 4.8383C187.3 4.8422 187.322 4.85468 187.338 4.87262C187.487 5.04192 187.546 5.23696 187.514 5.45931C187.51 5.48895 187.497 5.51314 187.474 5.53264C187.323 5.66293 187.18 5.75343 187.046 5.80336C179.837 8.46607 172.472 11.5126 165.541 15.1825Z" fill="#3A405A"/>
<path d="M144.55 8.14639C144.408 7.62758 145.538 7.46842 145.836 7.46998C149.239 7.48715 152.641 7.55736 156.042 7.68141C157.432 7.73212 158.82 7.81638 160.206 7.93418C160.404 7.95135 160.588 7.98723 160.758 8.04262C160.784 8.05199 160.798 8.08085 160.789 8.10738C160.782 8.12454 160.768 8.13702 160.751 8.14015C160.253 8.22674 159.763 8.28526 159.28 8.31646C154.825 8.59966 150.338 8.67534 145.875 8.70655C145.498 8.70889 144.674 8.59732 144.55 8.14639Z" fill="#3A405A"/>
<path d="M34.206 37.1028C33.4555 37.0381 32.7198 37.1317 31.9911 37.3073C31.97 37.3127 31.9482 37.3002 31.9427 37.2784C31.9404 37.269 31.9412 37.2597 31.9451 37.2519C34.9276 30.6251 37.9313 24.0007 40.8187 17.328C41.8165 15.0218 42.7777 12.6977 43.5344 10.2995C43.5422 10.2753 43.5672 10.2612 43.5922 10.2667C44.4706 10.4672 45.1416 10.5187 46.0013 10.2675C46.0473 10.2542 46.0965 10.2792 46.1121 10.3244C46.4905 11.4034 46.8845 12.4761 47.2925 13.5434C50.1534 21.0111 53.4012 28.3166 56.6896 35.6034C56.9408 36.1604 57.1967 36.712 57.4581 37.2581C57.4651 37.2721 57.4588 37.2901 57.4448 37.2963C57.4401 37.2987 57.4346 37.2994 57.4292 37.2994C56.4314 37.2066 55.4476 37.081 54.4162 37.0833C53.5081 37.0857 52.5578 37.1972 51.6294 37.3096C51.5733 37.3166 51.535 37.2932 51.5155 37.2402C50.4818 34.4596 49.4122 31.6932 48.3051 28.94C48.2856 28.8908 48.2373 28.8588 48.1842 28.8588C47.8339 28.8588 47.486 28.8495 47.1404 28.83C44.3263 28.6716 41.5193 28.6872 38.7192 28.8768C38.6841 28.8791 38.6537 28.901 38.6397 28.9337C37.4991 31.6596 36.4131 34.4362 35.565 37.2721C35.558 37.2963 35.5338 37.3112 35.5089 37.308C35.0735 37.2433 34.6686 37.1426 34.206 37.1028ZM40.0799 26.4715C42.4219 26.6424 44.7601 26.6346 47.0951 26.4489C47.1154 26.4473 47.1302 26.4294 47.1287 26.4091C47.1287 26.406 47.1279 26.4029 47.1263 26.3997L43.5368 17.0003C43.5305 16.9847 43.5126 16.9769 43.497 16.9831C43.4892 16.9863 43.4837 16.9917 43.4806 16.9995L39.5821 26.4036C39.5735 26.4239 39.5829 26.4473 39.6032 26.4559C39.6086 26.4583 39.6141 26.459 39.6196 26.459C39.7717 26.4559 39.9254 26.4606 40.0799 26.4715Z" fill="#3A405A"/>
<path d="M91.4751 28.8759C91.2184 28.8408 90.8814 28.8603 90.6926 28.8486C87.7654 28.6653 84.8858 28.7238 81.9594 28.8666C81.9243 28.8681 81.8939 28.89 81.8798 28.922C80.74 31.6518 79.6813 34.419 78.8067 37.2463C78.7982 37.2721 78.781 37.2854 78.7537 37.2846C78.6562 37.2838 78.5594 37.2729 78.4635 37.2518C77.3759 37.0115 76.3016 37.0326 75.2414 37.315C75.2149 37.322 75.1883 37.3056 75.1813 37.2799C75.1782 37.269 75.1798 37.2573 75.1844 37.2471C77.9712 31.1033 80.7236 24.9509 83.4425 18.7907C84.5566 16.2661 85.854 13.1969 86.7644 10.3142C86.7769 10.276 86.8175 10.2542 86.8565 10.2659C87.6484 10.5046 88.4402 10.5061 89.2329 10.2698C89.2898 10.2526 89.3288 10.2721 89.3491 10.3283C91.0748 15.1552 93.012 19.9134 95.0568 24.6131C96.8988 28.8455 98.7743 33.0623 100.683 37.2651C100.695 37.2908 100.687 37.3017 100.659 37.2994C99.6894 37.2073 98.7376 37.0841 97.725 37.0825C96.7685 37.0817 95.7855 37.191 94.829 37.315C94.8056 37.3181 94.7838 37.3049 94.776 37.283C93.7352 34.483 92.657 31.6978 91.5406 28.9267C91.5297 28.8993 91.5039 28.8798 91.4751 28.8759ZM82.8901 26.4473C83.682 26.4886 84.4778 26.5269 85.2767 26.562C86.9649 26.6353 88.6579 26.583 90.3384 26.4488C90.3579 26.4473 90.3735 26.4301 90.3719 26.4106C90.3719 26.4075 90.3711 26.4036 90.3696 26.4005L86.7925 17.0377C86.7652 16.9651 86.7363 16.9651 86.7075 17.0361L82.8371 26.363C82.8152 26.4161 82.8324 26.4442 82.8901 26.4473Z" fill="#3A405A"/>
<path d="M20.3655 36.9515L29.0082 42.3151C29.023 42.3245 29.0277 42.344 29.0183 42.3596C29.0152 42.3651 29.0097 42.3697 29.0043 42.3721C27.5235 43.05 26.1075 43.8427 24.7555 44.7485C24.7368 44.7609 24.7188 44.7602 24.7009 44.7469C21.7799 42.4634 18.8551 40.1743 15.9271 37.8807C15.8756 37.8401 15.8249 37.8104 15.7547 37.8143C10.9879 38.0773 6.41846 37.0311 3.24631 33.3401C0.496222 30.1414 -0.322172 26.1836 0.222384 22.0706C0.408844 20.6624 0.741974 19.3774 1.22256 18.2158C3.18545 13.4708 7.59417 10.9548 12.5233 10.4297C19.8077 9.65346 27.4642 12.8576 28.8084 20.8239C29.9639 27.6714 27.1459 34.3418 20.3725 36.882C20.3522 36.8898 20.3421 36.9125 20.3499 36.932C20.353 36.9406 20.3585 36.9476 20.3655 36.9515ZM14.3449 35.839C17.489 35.9115 20.3709 34.3005 21.957 31.5769C22.9276 29.9105 23.4191 27.9593 23.5821 26.0494C23.8247 23.201 23.7943 20.6257 22.7895 17.9966C21.6613 15.0444 19.3864 12.9465 16.1916 12.4543C12.283 11.8527 8.71683 13.5621 6.93727 17.1103C5.69603 19.5865 5.31063 22.5543 5.41517 25.3231C5.61645 30.6805 8.53115 35.7056 14.3449 35.839Z" fill="#3A405A"/>
<path d="M163.278 11.0959C162.895 11.4002 162.499 11.6663 162.088 11.8933C154.984 12.1476 147.883 12.3021 140.785 12.3575C140.233 12.3614 138.559 12.1866 138.426 11.5274C138.273 10.7722 140.118 10.5873 140.589 10.5896C147.663 10.6185 154.735 10.7605 161.805 11.0156C162.01 11.0234 162.501 11.0507 163.278 11.0959Z" fill="#3A405A"/>
<path d="M63.9518 25.6353C63.8863 21.5246 63.9947 17.4147 63.8371 13.3032C63.8363 13.272 63.82 13.2564 63.7887 13.2564C61.1494 13.2299 58.5133 13.3227 55.8818 13.5349C55.8467 13.538 55.8334 13.5224 55.8428 13.4873C56.0955 12.5628 56.0987 11.6368 55.8513 10.7091C55.8428 10.6779 55.8615 10.6459 55.8927 10.6374C55.8989 10.6358 55.9052 10.635 55.9122 10.6358C56.2929 10.6662 56.6526 10.6881 56.9904 10.7013C63.5149 10.9572 70.0379 10.9416 76.5608 10.6545C76.5913 10.653 76.6038 10.667 76.5983 10.6967C76.4126 11.7163 76.3533 12.477 76.5999 13.4795C76.6077 13.5115 76.5952 13.5263 76.5624 13.5232C74.0292 13.318 71.4921 13.2314 68.9511 13.2618C68.8926 13.2626 68.8622 13.2923 68.8606 13.3508C68.8349 14.2963 68.8208 15.2606 68.8177 16.2436C68.7998 21.7618 68.7966 27.2799 68.8083 32.798C68.8122 34.2904 68.8949 35.7579 69.058 37.202C69.0658 37.273 69.0346 37.3034 68.9644 37.2941C68.1031 37.1849 67.2464 37.1185 66.3945 37.0944C65.4817 37.0694 64.5346 37.195 63.6054 37.3019C63.5781 37.305 63.5648 37.2925 63.5664 37.2652C63.8044 33.3808 64.0134 29.5307 63.9518 25.6353Z" fill="#3A405A"/>
<path d="M118.613 11.0063C122.178 11.9706 123.813 15.5687 122.822 18.9913C121.979 21.8982 119.244 23.5771 116.417 24.0741C116.379 24.0811 116.371 24.0998 116.393 24.1318C119.452 28.603 122.579 33 125.966 37.2168C125.982 37.2371 125.978 37.2667 125.959 37.2823C125.949 37.2901 125.936 37.294 125.924 37.2924C123.796 37.0358 121.569 36.9539 119.462 37.3026C119.436 37.3073 119.409 37.2971 119.392 37.2761C119.324 37.1941 119.255 37.0951 119.185 36.9788C116.669 32.8065 113.791 28.6927 110.918 24.6787C110.905 24.66 110.883 24.6483 110.859 24.6483L110.024 24.6389C110.001 24.6389 109.99 24.6506 109.99 24.6733C109.986 27.073 109.951 29.4822 110.008 31.8812C110.05 33.6748 110.093 35.4637 110.136 37.2472C110.137 37.2792 110.111 37.3065 110.078 37.3073C110.075 37.3073 110.071 37.3073 110.068 37.3065C108.345 37.017 106.622 37.0155 104.898 37.3034C104.869 37.3081 104.84 37.2878 104.836 37.2581C104.835 37.2542 104.835 37.2511 104.835 37.2472C104.956 34.4066 105.092 31.5668 105.135 28.7364C105.227 22.7353 105.305 16.6961 104.905 10.7036C104.904 10.6732 104.926 10.6466 104.957 10.6451C104.961 10.6451 104.964 10.6451 104.966 10.6451C108.146 10.9657 111.324 10.7793 114.508 10.6513C115.862 10.5967 117.299 10.6505 118.613 11.0063ZM109.999 22.7938C111.249 22.9054 112.728 23.0302 113.915 22.8024C117.232 22.1658 118.395 19.0272 117.837 15.9838C117.697 15.2169 117.39 14.5787 116.917 14.0685C115.157 12.1664 112.346 12.5144 110.028 12.7617C110.001 12.7648 109.988 12.7796 109.988 12.8061V22.6238C109.988 22.6401 109.985 22.6565 109.978 22.6713C109.963 22.7065 109.96 22.7392 109.97 22.7704C109.974 22.7837 109.986 22.7931 109.999 22.7938Z" fill="#3A405A"/>
<path d="M157.787 14.9175L155.637 16.5285C149.548 16.6807 143.465 16.7696 137.391 16.7953C136.578 16.7985 135.434 16.6682 134.823 16.1837C134.457 15.8919 134.405 15.4956 134.815 15.2015C135.568 14.6624 136.64 14.5859 137.547 14.5828C144.29 14.5617 151.049 14.7365 157.787 14.9175Z" fill="#3A405A"/>
<path d="M165.54 15.1826C167.155 15.2762 168.756 15.3324 170.332 15.5399C170.492 15.561 170.636 15.5945 170.763 15.6421C170.794 15.6538 170.81 15.6889 170.798 15.7202C170.791 15.7389 170.775 15.7537 170.755 15.7584C170.508 15.8153 170.276 15.8543 170.058 15.8762C167.943 16.0915 165.826 16.1765 163.705 16.2741C163.684 16.2827 163.667 16.2834 163.656 16.2756C163.639 16.2639 163.639 16.253 163.657 16.2429L165.54 15.1826Z" fill="#3A405A"/>
<path d="M152.667 18.9038L150.306 20.9798C144.804 21.1007 139.842 21.1678 135.421 21.1811C134.658 21.1834 132.58 20.9689 132.237 20.1076C131.997 19.5006 132.902 19.0926 133.375 18.9553C133.993 18.7766 134.625 18.6838 135.27 18.6775C136.723 18.6643 138.176 18.6666 139.629 18.683C143.972 18.7329 148.317 18.8063 152.667 18.9038Z" fill="#3A405A"/>
<path d="M168.66 19.4351C170.112 19.4928 171.858 19.5739 173.082 19.8454C173.121 19.854 173.146 19.893 173.137 19.9328C173.131 19.9601 173.11 19.9812 173.082 19.9874C172.615 20.0951 172.147 20.1676 171.68 20.2051C170.418 20.3065 169.157 20.3876 167.897 20.4477C167.887 20.4563 167.876 20.4571 167.865 20.4485C167.849 20.4368 167.848 20.4251 167.863 20.4126C168.17 20.152 168.529 19.8267 168.66 19.4351Z" fill="#3A405A"/>
<path d="M148.169 22.995L145.875 25.3964C145.627 25.3862 145.238 25.3862 144.71 25.3948C141.262 25.4533 137.816 25.4861 134.368 25.4923C133.454 25.4939 131.701 25.3332 131.084 24.5702C130.549 23.9086 131.433 23.3991 131.935 23.2212C132.617 22.981 133.323 22.8546 134.051 22.8429C135.072 22.8257 136.092 22.8218 137.113 22.8319C140.789 22.8678 144.474 22.9224 148.169 22.995Z" fill="#3A405A"/>
<path d="M163.808 23.3867C166.55 23.5154 169.285 23.6083 172.025 23.7963C172.73 23.8447 173.432 23.9258 174.129 24.0397C174.233 24.0569 174.31 24.0826 174.362 24.1162C174.399 24.1396 174.409 24.1872 174.387 24.2238C174.375 24.2426 174.355 24.255 174.334 24.2589C173.602 24.3861 172.878 24.4735 172.162 24.5226C170.104 24.6646 168.045 24.7739 165.983 24.8495C165.69 24.9034 164.403 23.904 164.099 23.6629C163.979 23.5693 163.883 23.4772 163.808 23.3867Z" fill="#3A405A"/>
<path d="M144.327 27.1464C144.311 27.1425 144.31 27.1464 144.323 27.1597C144.328 27.1651 144.328 27.1698 144.324 27.1753L142.288 29.685C139.491 29.7287 136.714 29.7506 133.958 29.7506C133.188 29.7498 132.436 29.6398 131.701 29.419C130.983 29.2029 129.86 28.5101 130.951 27.7237C131.582 27.2681 132.85 27.0535 133.554 27.0473C136.384 27.0216 139.975 27.0543 144.327 27.1464Z" fill="#3A405A"/>
<path d="M141.072 31.3553L139.412 33.9322C137.732 33.9439 136.096 33.9525 134.504 33.9571C133.667 33.9595 131.269 33.7933 130.941 32.7814C130.867 32.5536 130.931 32.3453 131.134 32.1557C131.94 31.406 133.481 31.2991 134.53 31.2976C136.698 31.2929 138.878 31.3124 141.072 31.3553Z" fill="#3A405A"/>
<path d="M140.439 35.6542C141.109 36.4741 141.835 37.2161 142.618 37.88C142.957 38.1671 143.612 37.965 144.007 37.7926C145.103 37.3113 145.744 36.6216 146.502 35.7353L154.821 35.9046C155.231 36.4921 155.646 37.1022 156.065 37.7364C156.073 37.7489 156.077 37.7614 156.077 37.7731C156.077 37.7989 156.07 37.8113 156.056 37.8098C150.425 37.9541 144.794 38.0555 139.161 38.114C138.088 38.1257 137.016 38.1117 135.943 38.1421C135.054 38.1671 132.729 38.0407 132.259 37.1217C131.711 36.0513 134.391 35.6635 134.948 35.637C135.797 35.5972 137.627 35.6027 140.439 35.6542Z" fill="#3A405A"/>
<path d="M157.824 40.3282C158.198 40.8026 158.548 41.3081 158.874 41.8449C152.559 42.0251 146.268 42.1484 140 42.2147C139.11 42.224 138.221 42.2272 137.332 42.2233C136.573 42.2209 135.879 42.0953 135.25 41.848C134.765 41.6568 134.163 41.1193 134.794 40.6325C135.495 40.0911 136.599 39.9998 137.449 39.9967C144.233 39.9725 151.031 40.1457 157.824 40.3282Z" fill="#3A405A"/>
<path d="M30.5572 50.6231C30.1562 50.5412 29.8192 50.5279 29.4166 50.6192C29.4025 50.6231 29.3877 50.6138 29.3846 50.5989C29.383 50.5935 29.3838 50.5872 29.3862 50.5818C30.3723 48.409 31.3452 46.2277 32.3055 44.0362C32.6496 43.2521 32.9656 42.4431 33.2534 41.6106C33.2573 41.5989 33.2706 41.5919 33.2823 41.5958C33.5437 41.6746 33.8066 41.6762 34.0703 41.6013C34.0952 41.5943 34.1116 41.6028 34.1202 41.627C35.2007 44.6642 36.5434 47.6468 37.8861 50.5693C37.8962 50.5919 37.8868 50.6177 37.8642 50.6286C37.8556 50.6325 37.8463 50.6333 37.8377 50.6317C37.2284 50.5264 36.6183 50.5248 36.0074 50.6286C35.9606 50.6372 35.9138 50.6106 35.8966 50.5654L34.8528 47.8574C34.8426 47.8309 34.8231 47.8169 34.7951 47.8153C33.7504 47.7599 32.7065 47.7591 31.6619 47.8145C31.6471 47.8153 31.6338 47.8247 31.6284 47.8379C31.2461 48.7421 30.9044 49.6619 30.6024 50.5966C30.597 50.6161 30.5767 50.627 30.5572 50.6231ZM32.2572 47.0203C32.9687 47.078 33.6818 47.0663 34.3964 46.986C34.4237 46.9829 34.4331 46.968 34.4229 46.9423L33.2612 43.8879C33.2573 43.8778 33.2456 43.8731 33.2363 43.877C33.2316 43.8786 33.2277 43.8825 33.2254 43.8872L31.9623 46.9462C31.9521 46.9696 31.9599 46.9836 31.9857 46.9875C32.077 47.0024 32.1675 47.0133 32.2572 47.0203Z" fill="#3A405A"/>
<path d="M62.6178 50.6183C62.1848 50.5527 61.9031 50.5223 61.4904 50.6206C61.4756 50.6237 61.46 50.6144 61.4569 50.5995C61.4553 50.5941 61.4561 50.5878 61.4584 50.5832C62.7964 47.6341 64.253 44.5868 65.3304 41.6331C65.3405 41.6066 65.3593 41.5972 65.3866 41.605C65.637 41.6776 65.8882 41.676 66.1386 41.6003C66.1659 41.5925 66.1839 41.6019 66.1933 41.6276C67.2933 44.6718 68.6219 47.6419 69.9638 50.5847C69.9716 50.6019 69.9646 50.6222 69.9474 50.6307C69.9412 50.6339 69.9334 50.6347 69.9263 50.6331C69.303 50.5254 68.6804 50.5246 68.0578 50.6315C68.0251 50.6378 67.9923 50.619 67.9798 50.5878L66.9297 47.8752C66.9165 47.8409 66.8837 47.8175 66.8463 47.8151C65.8141 47.7597 64.7827 47.7597 63.7506 47.8151C63.7256 47.8167 63.7084 47.8292 63.6983 47.8526C63.323 48.7474 62.9837 49.6563 62.6817 50.5793C62.6708 50.6105 62.6497 50.623 62.6178 50.6183ZM64.3224 47.0209C65.0472 47.074 65.7704 47.0623 66.4905 46.9866C66.5022 46.985 66.5108 46.9749 66.51 46.9632C66.51 46.9616 66.5092 46.9593 66.5084 46.9577L65.3312 43.8956C65.3273 43.8847 65.3148 43.8792 65.3039 43.8831C65.2984 43.8854 65.2945 43.8893 65.2922 43.8948L64.0408 46.9437C64.0306 46.9694 64.0384 46.9843 64.0657 46.9889C64.15 47.0045 64.235 47.0147 64.3224 47.0209Z" fill="#3A405A"/>
<path d="M77.8559 45.9533C77.1951 45.3971 77.0555 44.4655 77.2185 43.6651C77.6991 41.3043 80.6216 41.3028 82.3075 42.1438C82.3216 42.1508 82.3278 42.1672 82.3231 42.182L81.9323 43.353C81.9136 43.4076 81.8543 43.4365 81.7997 43.4186C81.7685 43.4076 81.7443 43.3835 81.7341 43.3522C81.2738 41.9222 78.743 41.8473 78.5526 43.4911C78.3607 45.1435 80.7839 45.209 81.8199 45.9962C83.1103 46.9761 82.9527 49.0404 81.8098 50.0461C80.5444 51.1594 78.3974 50.9136 77.0414 50.1498C77.0172 50.1366 77.0094 50.1163 77.018 50.0898C77.167 49.6638 77.2575 49.223 77.2895 48.7682C77.2942 48.6972 77.3551 48.6433 77.426 48.648C77.4744 48.6511 77.5165 48.6808 77.5361 48.7253C77.8528 49.4492 78.3864 50.0905 79.2594 50.1608C79.9405 50.2162 80.4625 50.018 80.8237 49.5655C81.323 48.9406 81.3191 48.0301 80.734 47.4583C80.5881 47.3155 80.3454 47.1719 80.0068 47.0268C79.286 46.7187 78.4699 46.4706 77.8559 45.9533Z" fill="#3A405A"/>
<path d="M40.6731 50.6255C40.0341 50.5677 39.5754 50.5326 38.9482 50.6302C38.9185 50.6348 38.8912 50.6153 38.8865 50.5857C38.8857 50.5818 38.8857 50.5771 38.8857 50.5732C39.0394 48.2124 39.0418 45.7962 39.0074 43.6422C38.9996 43.1507 38.9614 42.5242 38.892 41.7636C38.8896 41.7425 38.906 41.723 38.9279 41.7214C38.931 41.7214 38.9349 41.7214 38.938 41.7214C39.5208 41.8221 40.1044 41.8244 40.6887 41.7292C40.7238 41.7238 40.7402 41.7386 40.7371 41.7745C40.6926 42.2761 40.6669 42.6303 40.6598 42.8371C40.5693 45.4218 40.5873 48.0049 40.7145 50.5865C40.7152 50.6153 40.7012 50.6286 40.6731 50.6255Z" fill="#3A405A"/>
<path d="M44.8596 46.4118H44.6614C44.6177 46.4118 44.5959 46.4337 44.5967 46.4774L44.6622 50.5701C44.663 50.5974 44.6411 50.6193 44.6138 50.6201C44.6107 50.6201 44.6076 50.6201 44.6045 50.6193C44.0466 50.5264 43.4896 50.528 42.9333 50.624C42.9138 50.6279 42.8943 50.6146 42.8904 50.5951C42.8896 50.592 42.8896 50.5889 42.8896 50.5857C43.009 47.6445 43.0714 44.7103 42.9177 41.7706C42.9162 41.7418 42.9294 41.7293 42.9583 41.7316C44.1496 41.8338 45.3682 41.7449 46.3848 41.7277C47.5621 41.7082 48.627 42.1084 48.9352 43.3154C49.3143 44.7992 48.1792 45.95 46.8092 46.2074C46.7772 46.2137 46.7702 46.2301 46.7881 46.2574C47.7789 47.7428 48.8298 49.1846 49.94 50.5826C49.9501 50.5951 49.9486 50.613 49.9361 50.6232C49.9299 50.6286 49.9213 50.631 49.9127 50.6294C49.2028 50.5194 48.4928 50.5171 47.7828 50.6224C47.7563 50.6263 47.736 50.6169 47.722 50.5943C46.8451 49.1768 45.9151 47.7951 44.9321 46.4485C44.9134 46.4243 44.8892 46.4118 44.8596 46.4118ZM44.6505 45.7791C44.8994 45.8291 45.2496 45.8244 45.5055 45.8197C46.7179 45.7979 47.4232 44.8617 47.2477 43.6867C47.0276 42.2083 45.7084 42.3737 44.6411 42.4392C44.624 42.44 44.6099 42.4548 44.6099 42.4728V45.73C44.6099 45.7542 44.6263 45.7752 44.6505 45.7791Z" fill="#3A405A"/>
<path d="M53.7473 48.2077C54.5556 46.0833 55.2827 43.9316 55.9287 41.7526C55.9372 41.7253 55.9544 41.7159 55.9817 41.7245C56.3219 41.8291 56.6644 41.8314 57.0084 41.7323C57.0521 41.7198 57.0966 41.7448 57.109 41.7877C57.7464 43.9613 58.458 46.1098 59.2451 48.2342C59.2646 48.2865 59.2842 48.2865 59.3037 48.2342C60.1018 46.1122 60.7961 43.9566 61.3867 41.7674C61.3953 41.7362 61.4148 41.7245 61.4452 41.7331C61.8134 41.8275 62.1825 41.8283 62.5523 41.7347C62.5858 41.7261 62.5967 41.7378 62.5835 41.7698C61.4187 44.6751 60.3592 47.6187 59.4051 50.5997C59.3981 50.6215 59.3754 50.634 59.3536 50.627H59.3528C59.029 50.5248 58.706 50.5256 58.3823 50.6293C58.3487 50.6395 58.3136 50.6215 58.3027 50.588C57.6029 48.3903 56.9015 46.1988 56.1097 44.0869C56.0956 44.0494 56.0816 44.0494 56.0675 44.0876C55.2702 46.2323 54.5314 48.3973 53.8503 50.5825C53.8409 50.6122 53.8214 50.6231 53.791 50.6145C53.4766 50.5264 53.163 50.5295 52.8486 50.6239C52.8228 50.6317 52.7963 50.6176 52.7877 50.5919C51.8414 47.6405 50.8201 44.7157 49.724 41.8174C49.6982 41.7495 49.7217 41.7206 49.7934 41.7323C50.391 41.8283 50.9879 41.8283 51.5839 41.7323C51.6034 41.7292 51.6221 41.7409 51.6276 41.7596C52.2642 43.9261 52.9554 46.0755 53.7013 48.2069C53.7153 48.2498 53.7309 48.2498 53.7473 48.2077Z" fill="#3A405A"/>
<path d="M73.0509 46.0454C73.874 44.6668 74.6003 43.2383 75.2315 41.7607C75.2432 41.7334 75.2728 41.7178 75.3024 41.7248C75.7128 41.8192 76.124 41.827 76.5351 41.7474C76.5507 41.7443 76.5655 41.7552 76.5687 41.7708C76.5702 41.7779 76.5687 41.7849 76.5648 41.7911C75.4756 43.4857 74.4482 45.2161 73.4815 46.9824C73.4449 47.0502 73.4269 47.1595 73.4285 47.3093C73.441 48.3898 73.4776 49.4703 73.5377 50.5524C73.5401 50.5914 73.5104 50.6242 73.4714 50.6265C73.4659 50.6265 73.4597 50.6265 73.4542 50.6257C72.912 50.5282 72.369 50.5282 71.8252 50.6257C71.7948 50.6312 71.7652 50.6109 71.7597 50.5805C71.7589 50.5766 71.7589 50.5735 71.7589 50.5696L71.8416 47.1298C71.8416 47.1158 71.8377 47.1017 71.8307 47.0892L68.6648 41.7826C68.6539 41.7654 68.6593 41.7428 68.6773 41.7318C68.6843 41.7272 68.6937 41.7256 68.7015 41.7272C69.3872 41.8278 70.0722 41.8294 70.7564 41.7311C70.7697 41.7295 70.7822 41.7365 70.7876 41.7482C71.4711 43.2095 72.2106 44.6419 73.0072 46.0446C73.0212 46.0696 73.0361 46.0703 73.0509 46.0454Z" fill="#3A405A"/>
<path d="M116.068 42.9839C115.695 42.8076 115.779 42.0868 116.063 41.8683C116.555 41.4907 117.55 41.7856 117.472 42.5252C117.408 43.1345 116.464 43.172 116.068 42.9839Z" fill="#3A405A"/>
<path d="M118.117 42.9839C117.794 42.8341 117.826 42.2443 117.981 42.0033C118.261 41.5656 119.132 41.6654 119.403 42.0469C119.685 42.4433 119.49 42.9153 119.019 43.0432C118.693 43.1322 118.392 43.1127 118.117 42.9839Z" fill="#3A405A"/>
<path d="M85.895 43.101C85.5962 42.9434 85.6056 42.3513 85.771 42.1118C85.984 41.8036 86.4185 41.8098 86.7571 41.8847C87.4234 42.033 87.5342 42.8974 86.8819 43.1384C86.5231 43.2719 86.1938 43.2594 85.895 43.101Z" fill="#3A405A"/>
<path d="M89.2706 42.3986C89.4891 43.4066 87.3171 43.6726 87.6783 42.2589C87.8461 41.6036 89.1279 41.7347 89.2706 42.3986Z" fill="#3A405A"/>
<path d="M99.5611 50.6457C99.5003 51.8729 98.8668 52.6117 97.6614 52.8637C97.0349 52.994 96.4755 52.8325 95.9833 52.3792C95.8818 52.2856 95.7203 52.1499 95.8186 52.0048C95.9076 51.8729 96.1861 51.954 96.3663 51.9837C97.0591 52.0976 97.6754 51.8277 97.9329 51.2004C98.0109 51.01 98.0538 50.7112 98.0624 50.3032C98.0889 49.0339 98.1147 47.7809 98.1389 46.5444C98.1396 46.4937 98.1162 46.4632 98.0671 46.4523C97.7698 46.3829 97.5171 46.1832 97.851 45.9187C98.4018 45.4818 98.9651 45.0613 99.5408 44.6571C99.5658 44.6392 99.5783 44.6462 99.579 44.6766L99.6305 49.1626C99.6313 49.1883 99.6446 49.2008 99.6703 49.2008H101.452C101.48 49.2008 101.503 49.1774 101.503 49.1493V43.9534C101.503 43.9277 101.495 43.9051 101.479 43.8856C101.237 43.5969 101.035 43.412 101.441 43.0906C101.955 42.6849 102.484 42.2964 103.027 41.925C103.038 41.9172 103.052 41.9195 103.06 41.9305C103.063 41.9344 103.065 41.9398 103.065 41.9453L103.062 45.9819C103.062 46.0076 103.084 46.0287 103.109 46.0287C103.119 46.0287 103.127 46.0263 103.135 46.0209C103.694 45.6589 104.187 45.5972 104.915 45.5957C106.8 45.591 108.686 45.5926 110.572 45.6011C111.688 45.6058 112.758 46.251 113.089 47.3425C113.242 47.8433 113.189 48.5463 113.185 49.122C113.184 49.1649 113.219 49.2001 113.262 49.2008H113.263H118.099C118.131 49.2008 118.157 49.1751 118.157 49.1439L118.164 48.2498C118.164 48.2209 118.149 48.2061 118.12 48.2061H116.111C116.079 48.2061 116.062 48.1897 116.062 48.1578C116.042 47.3987 115.895 46.5022 116.583 45.907C117.473 45.1362 118.579 44.6556 119.653 44.2795C119.677 44.271 119.689 44.2795 119.689 44.3053L119.7 49.1423C119.7 49.1743 119.727 49.2008 119.759 49.2008H121.69C121.715 49.2008 121.729 49.1876 121.729 49.1618V43.8146C121.729 43.7857 121.715 43.7685 121.686 43.7639L121.506 43.7342C121.48 43.7295 121.46 43.7155 121.445 43.6929C121.351 43.5407 121.379 43.4042 121.528 43.2841C122.066 42.8503 122.627 42.4586 123.214 42.1083C123.25 42.0873 123.268 42.0974 123.268 42.1388L123.27 50.5864C123.27 50.609 123.252 50.6278 123.23 50.6278L99.5907 50.6176C99.572 50.6176 99.5619 50.627 99.5611 50.6457ZM118.109 47.0991C118.137 47.0991 118.159 47.0764 118.159 47.0484V46.3322C118.159 46.3134 118.144 46.2978 118.125 46.2978C118.121 46.2978 118.117 46.2986 118.113 46.2994C117.772 46.4156 117.268 46.652 117.206 47.0515C117.203 47.071 117.216 47.0889 117.235 47.0913C117.237 47.0913 117.238 47.092 117.24 47.092L118.109 47.0991ZM103.129 49.2024H111.622C111.658 49.2024 111.689 49.1727 111.689 49.1353V47.9042C111.689 47.4439 111.304 47.071 110.83 47.071H103.921C103.446 47.071 103.062 47.4439 103.062 47.9042V49.1353C103.062 49.1727 103.091 49.2024 103.129 49.2024Z" fill="#3A405A"/>
<path d="M124.36 43.7632C123.931 43.7921 124.132 43.3489 124.352 43.1851C124.863 42.8051 125.388 42.4416 125.927 42.096C125.943 42.0851 125.966 42.0905 125.977 42.1077C125.981 42.1139 125.982 42.1202 125.982 42.1272L125.977 50.5577C125.977 50.6053 125.938 50.6435 125.892 50.6435L124.477 50.6458C124.452 50.6458 124.44 50.6333 124.44 50.6084V43.8381C124.44 43.7967 124.406 43.7632 124.365 43.7632C124.363 43.7632 124.362 43.7632 124.36 43.7632Z" fill="#3A405A"/>
<path d="M94.4572 47.3755C94.3222 47.3138 94.2247 47.2155 94.1646 47.079C94.1537 47.054 94.1537 47.026 94.1639 47.0002C94.3792 46.4705 95.4558 45.8448 95.9473 45.5616C95.9645 45.5522 95.9856 45.5585 95.9949 45.5748C95.998 45.5803 95.9996 45.5858 95.9996 45.592L95.9816 50.582C95.9809 50.5944 95.9707 50.6046 95.9582 50.6046L85.309 50.6186C85.2786 50.6194 85.2645 50.6038 85.2669 50.5726C85.323 49.8619 85.401 49.1558 85.4369 48.4466C85.5025 47.157 87.1978 46.2411 88.315 45.6357C88.3352 45.624 88.3493 45.6045 88.354 45.5819L88.4507 45.0623C88.4577 45.0248 88.4429 44.9999 88.407 44.9882C88.2564 44.9375 88.1308 44.8501 88.0318 44.7268C88.0138 44.705 88.0115 44.6738 88.0263 44.6496C88.1012 44.5263 88.2065 44.4007 88.3431 44.272C88.8424 43.8 89.3471 43.3287 89.8566 42.8591C89.8706 42.8458 89.8925 42.8466 89.9049 42.8606C89.9112 42.8669 89.9143 42.8755 89.9143 42.8848L89.9174 49.1613C89.9174 49.1831 89.9346 49.2011 89.9564 49.2011H94.4908C94.5064 49.2011 94.5196 49.1886 94.5196 49.173L94.5313 47.4909C94.5313 47.4371 94.5064 47.3989 94.4572 47.3755ZM88.4031 49.1886C88.4101 49.1886 88.4164 49.1823 88.4164 49.1753V47.2702C88.4164 47.2428 88.3938 47.221 88.3672 47.221C88.3594 47.221 88.3524 47.2226 88.3454 47.2265C87.5254 47.647 86.5744 47.959 86.8272 49.1425C86.8319 49.1667 86.8467 49.1784 86.8709 49.1784L88.4031 49.1886Z" fill="#3A405A"/>
<path d="M161.292 44.8724C161.615 45.1283 161.913 45.4248 162.187 45.7626C155.554 46.0091 148.433 46.1613 140.824 46.2182C140.308 46.2221 138.409 46.0809 138.418 45.3405C138.426 44.6782 139.939 44.473 140.42 44.4628C141.563 44.4387 144.008 44.4574 147.753 44.5198C152.26 44.5955 156.773 44.7133 161.292 44.8724Z" fill="#3A405A"/>
<path d="M144.723 49.0058C144.446 48.8147 144.523 48.5338 144.774 48.3677C145.061 48.1773 145.363 48.0829 145.68 48.0852C150.149 48.1126 154.644 48.1937 159.105 48.4636C159.632 48.4956 160.177 48.5588 160.74 48.6516C160.769 48.6555 160.788 48.6821 160.785 48.7102C160.782 48.7312 160.767 48.7484 160.747 48.7539C160.116 48.9427 159.29 48.9388 158.63 48.9723C154.375 49.1907 150.117 49.3171 145.856 49.3522C145.439 49.3554 145.061 49.2399 144.723 49.0058Z" fill="#3A405A"/>
<path d="M91.7768 52.4612C91.0544 52.6984 90.4614 52.3723 90.6658 51.5531C90.8156 50.954 92.1271 51.0117 92.2488 51.7193C92.312 52.0899 92.1544 52.3372 91.7768 52.4612Z" fill="#3A405A"/>
<path d="M94.0322 52.3733C93.7365 52.527 92.9439 52.6495 92.7676 52.2462C92.3736 51.3466 93.2661 50.8879 93.962 51.2608C94.3825 51.4871 94.5066 52.126 94.0322 52.3733Z" fill="#3A405A"/>
</g>
<defs>
<clipPath id="clip0_718_2203">
<rect width="187.614" height="52.9843" fill="white"/>
</clipPath>
</defs>
</svg>
