<svg width="171" height="38" viewBox="0 0 171 38" fill="none" xmlns="http://www.w3.org/2000/svg">
<g opacity="0.4" clip-path="url(#clip0_718_2404)">
<path d="M58.733 0.000215311C57.6462 0.0357307 56.5168 0.130438 55.3472 0.286706C53.0268 0.599242 50.2803 2.63072 50.2117 5.14048C50.098 9.30998 50.0838 16.0319 50.1691 25.3109C50.1998 28.699 50.0885 32.5086 50.1643 36.1194C50.1667 36.1833 50.1998 36.2164 50.2638 36.2164H58.8372C58.9153 36.2164 58.9555 36.1762 58.9555 36.0981L58.9579 0.218043C58.9579 0.0688784 58.8821 -0.00452007 58.733 0.000215311Z" fill="#3A405A"/>
<path d="M111.035 11.5924C107.529 11.1757 103.947 11.8813 101.053 14.0217C101.039 14.0335 101.02 14.0383 101.003 14.0383C101.001 14.0383 100.999 14.0383 100.996 14.0359C100.994 14.0359 100.992 14.0359 100.989 14.0335C100.97 14.0312 100.954 14.0217 100.942 14.0075C100.942 14.0075 100.94 14.0075 100.94 14.0051C100.94 14.0028 100.94 14.0028 100.937 14.0004C100.928 13.9862 100.921 13.972 100.921 13.9554V0.116237C100.921 0.0499415 100.887 0.0167937 100.821 0.0191614C97.5585 0.0452061 93.7442 0.490332 92.449 3.88087C92.2146 4.4941 92.0986 5.50747 92.0986 6.92099C92.1034 16.6356 92.1034 26.3574 92.0986 36.0862C92.0986 36.1738 92.1412 36.2165 92.2289 36.2165H100.258C100.331 36.2165 100.371 36.1809 100.378 36.1075L100.592 34.0311C100.594 34.0169 100.599 34.005 100.606 33.9956C100.608 33.9932 100.61 33.9932 100.613 33.9932C100.62 33.9861 100.627 33.9861 100.634 33.9814C100.644 33.979 100.648 33.9743 100.658 33.9743C100.66 33.9743 100.663 33.9719 100.665 33.9719C100.679 33.9743 100.691 33.979 100.703 33.9885C104.018 36.7776 108.152 37.514 112.3 36.6403C119.566 35.1107 122.914 28.4031 121.602 21.4657C120.553 15.8969 116.545 12.2459 111.035 11.5924ZM107.972 30.077C105.159 30.5174 100.906 28.8766 100.921 25.4671C100.928 24.2572 100.686 22.4436 101.273 21.3734C102.599 18.9654 105.675 18.0018 108.178 18.4966C114.514 19.7444 114.343 29.0731 107.972 30.077Z" fill="#3A405A"/>
<path d="M18.8018 29.414C18.7994 29.4069 18.7923 29.3998 18.7876 29.395C18.7829 29.3879 18.7758 29.3785 18.7687 29.3737C18.7615 29.369 18.7544 29.3643 18.7473 29.3595C18.7402 29.3548 18.7331 29.3501 18.7237 29.3477C18.7142 29.3453 18.7047 29.343 18.6953 29.343C18.6881 29.343 18.6787 29.3406 18.6716 29.3406C18.6503 29.3406 18.629 29.3453 18.61 29.3572C17.4404 29.9964 16.2044 30.2545 14.9046 30.1338C12.3214 29.8946 12.2149 28.0455 12.2007 25.9169C12.1794 22.8697 12.1841 20.3931 12.2149 18.4871C12.2173 18.39 12.2646 18.3427 12.3617 18.3427H17.5256C17.5398 18.3427 17.554 18.3379 17.5659 18.3332C17.5777 18.3308 17.5872 18.3284 17.5966 18.3237C17.6061 18.319 17.6156 18.3119 17.6227 18.3048C17.6322 18.2977 17.6393 18.2929 17.6464 18.2835C17.6535 18.2764 17.6582 18.2669 17.6629 18.2574C17.6677 18.2479 17.6748 18.2385 17.6771 18.229C17.6819 18.2195 17.6819 18.2077 17.6843 18.1959C17.6866 18.1816 17.689 18.1674 17.689 18.1532L17.0284 12.3713C17.0166 12.2624 16.9242 12.1819 16.8129 12.1819L12.3427 12.1985H12.3404C12.3309 12.1985 12.3214 12.1938 12.312 12.1938C12.3025 12.1914 12.2907 12.1914 12.2812 12.1867C12.2717 12.1819 12.2646 12.1748 12.2551 12.1701C12.248 12.1653 12.2386 12.1606 12.2315 12.1535C12.2244 12.1464 12.2196 12.1369 12.2149 12.1298C12.2102 12.1227 12.2031 12.1156 12.1983 12.1061C12.1936 12.0967 12.1936 12.0872 12.1912 12.0754C12.1889 12.0659 12.1841 12.0564 12.1841 12.047V12.0446L12.1865 2.27549C12.1865 2.16894 12.132 2.11685 12.0231 2.11922C10.2402 2.18315 8.12116 2.24471 6.43064 3.10891C2.57131 5.08357 3.39289 8.75586 3.35975 12.3145C3.35975 12.4068 3.31476 12.4542 3.22242 12.4613L0.0970751 12.6768C0.0473537 12.6815 0 12.7312 0 12.7904V18.2219C0 18.3 0.0402507 18.3403 0.118384 18.3403H3.20348C3.29819 18.3403 3.37395 18.416 3.37395 18.5108C3.37159 21.4633 3.37395 24.4253 3.37869 27.3967C3.38579 34.7957 7.76128 37.5778 14.6655 36.8841C19.5879 36.3892 18.8539 33.2165 18.8184 29.4755C18.8184 29.4542 18.8113 29.4329 18.8018 29.414Z" fill="#3A405A"/>
<path d="M169.89 29.4191C169.893 29.3267 169.852 29.3031 169.772 29.3433C167.321 30.5958 163.308 30.9226 163.303 26.978C163.301 24.1439 163.306 21.3026 163.318 18.4543C163.318 18.3785 163.356 18.3406 163.431 18.3406H168.638C168.754 18.3406 168.806 18.2815 168.794 18.1654L168.117 12.3362C168.107 12.2486 168.034 12.1846 167.949 12.1846H163.434C163.358 12.1846 163.32 12.1468 163.318 12.071L163.282 2.2427C163.282 2.17877 163.249 2.14562 163.183 2.14325C159.491 2.11958 154.403 3.05955 154.477 7.9299C154.498 9.38366 154.493 10.8445 154.462 12.3101C154.46 12.4072 154.41 12.4593 154.313 12.4664L151.2 12.6819C151.107 12.689 151.062 12.7363 151.062 12.8287L151.098 18.1844C151.098 18.2886 151.15 18.3406 151.257 18.3406H154.32H154.323C154.335 18.3406 154.344 18.3454 154.356 18.3477C154.368 18.3501 154.38 18.3501 154.389 18.3548C154.399 18.3596 154.408 18.3667 154.415 18.3738C154.425 18.3809 154.434 18.3856 154.444 18.3927C154.451 18.3998 154.455 18.4117 154.462 18.4188C154.47 18.4282 154.477 18.4354 154.481 18.4472C154.486 18.4567 154.486 18.4685 154.489 18.4803C154.491 18.4922 154.496 18.5016 154.496 18.5135V18.5159C154.489 21.5702 154.489 24.634 154.5 27.7072C154.526 35.3857 159.951 38.0233 166.94 36.7092C170.693 36.0013 169.869 32.1916 169.89 29.4191Z" fill="#3A405A"/>
<path d="M30.1505 11.6563C27.7899 11.9475 23.8169 12.4258 24.2857 15.8448C24.4325 16.9102 24.5106 17.791 24.7024 18.7405C24.719 18.8257 24.7687 18.8494 24.8492 18.8115C27.0891 17.7531 29.2294 17.5424 31.7652 17.54C34.3626 17.5377 38.3995 18.0515 38.1106 21.6788C38.1035 21.7569 38.0656 21.7806 37.9922 21.7522C32.4282 19.4792 21.8304 19.0838 20.6229 27.2689C19.1171 37.4713 32.7833 39.4057 38.5392 34.3128C38.5534 34.2986 38.5723 34.2938 38.5913 34.2891C38.5936 34.2891 38.596 34.2867 38.5984 34.2867C38.6007 34.2867 38.6055 34.2867 38.6078 34.2867C38.6149 34.2867 38.6221 34.2867 38.6292 34.2891C38.6363 34.2915 38.6434 34.2915 38.6481 34.2938C38.6552 34.2962 38.6599 34.2986 38.667 34.3033C38.6741 34.308 38.6789 34.3104 38.6836 34.3175C38.686 34.3199 38.6883 34.3199 38.6907 34.3246C38.6931 34.327 38.6931 34.3294 38.6931 34.3317C38.7049 34.3459 38.7144 34.3649 38.7168 34.3838L38.9133 36.0885C38.9228 36.1619 38.9819 36.2164 39.053 36.2164C40.3955 36.2235 41.7427 36.2235 43.0899 36.2164C45.4055 36.2093 46.9019 35.8707 46.9184 33.2568C46.9445 29.2909 46.9539 25.325 46.9445 21.3639C46.9255 12.2838 36.9505 10.8182 30.1505 11.6563ZM38.1177 29.2649C38.1177 29.3667 38.0775 29.4661 38.0041 29.5395C36.1691 31.3366 33.979 31.9261 31.4314 31.3129C30.1647 31.0098 29.5017 29.5371 29.658 28.332C30.1647 24.4726 35.8282 25.7915 37.9922 27.1647C38.0775 27.2192 38.1201 27.2973 38.1201 27.3991L38.1177 29.2649Z" fill="#3A405A"/>
<path d="M88.149 18.5487C86.1554 11.7866 77.6601 10.9697 71.8854 11.6469C69.7213 11.9002 65.7862 12.2933 65.8809 15.3831C65.9093 16.2994 66.0585 17.4028 66.3284 18.6979C66.345 18.776 66.3876 18.7973 66.461 18.7665C68.0024 18.0965 69.8397 17.7011 71.9777 17.5827C74.6556 17.4335 80.0918 17.4998 79.7058 21.6646C79.6987 21.7522 79.6537 21.7782 79.5756 21.7451C73.2444 19.1477 61.6049 19.3608 62.185 29.3288C62.604 36.5337 70.7276 37.8999 76.2419 36.4508C77.5583 36.1052 78.8748 35.3972 80.1912 34.3247C80.2883 34.2465 80.3404 34.2702 80.3522 34.391L80.5274 36.0862C80.5369 36.1691 80.5842 36.2117 80.6671 36.2117C82.012 36.2212 83.3615 36.2212 84.7135 36.2141C86.9415 36.2022 88.5278 35.8447 88.542 33.3137C88.5633 29.8545 88.5634 26.3929 88.5468 22.9337C88.5373 20.8738 88.4047 19.4129 88.149 18.5487ZM79.7319 29.1773C79.7319 29.2554 79.7058 29.3312 79.6609 29.3927C78.2829 31.2538 75.5766 31.8409 73.4173 31.3792C71.007 30.8655 70.46 27.8159 72.2855 26.4923C74.2459 25.0741 77.7643 25.9809 79.6514 27.1979C79.7058 27.2334 79.7319 27.2808 79.7319 27.3423V29.1773Z" fill="#3A405A"/>
<path d="M149.562 18.6197C147.351 10.991 137.065 10.8371 130.945 11.9546C129.11 12.2885 127.145 13.3752 127.318 15.5393C127.403 16.6 127.512 17.6513 127.647 18.6907C127.649 18.7073 127.654 18.7215 127.661 18.7333C127.666 18.7428 127.671 18.7475 127.678 18.7546C127.682 18.7617 127.687 18.7665 127.692 18.7712C127.699 18.776 127.706 18.7807 127.713 18.7831C127.72 18.7878 127.727 18.7925 127.734 18.7949C127.742 18.7973 127.749 18.7973 127.756 18.7996C127.765 18.802 127.772 18.802 127.782 18.802C127.796 18.7996 127.813 18.7973 127.827 18.7902C130.088 17.7507 132.401 17.5045 134.897 17.5542C137.53 17.6063 141.334 18.0254 141.124 21.6669C141.119 21.7379 141.083 21.7592 141.017 21.7332C137.814 20.4689 134.52 20.0687 131.137 20.5304C125.637 21.281 122.561 25.3274 123.816 30.863C125.286 37.3434 133.999 37.8927 138.893 35.9891C139.84 35.6197 140.728 34.9781 141.578 34.3648C141.59 34.3554 141.604 34.3506 141.619 34.3483C141.621 34.3483 141.621 34.3459 141.623 34.3459C141.628 34.3459 141.63 34.3459 141.635 34.3459C141.642 34.3459 141.647 34.3459 141.654 34.3483C141.659 34.3506 141.666 34.3506 141.671 34.353C141.675 34.3554 141.68 34.3577 141.687 34.3601C141.692 34.3648 141.697 34.3672 141.701 34.3719C141.704 34.3743 141.709 34.3767 141.711 34.379C141.711 34.3814 141.711 34.3814 141.713 34.3838C141.72 34.3956 141.727 34.4098 141.73 34.424L141.905 36.0672C141.915 36.1548 141.964 36.1998 142.052 36.2022C143.39 36.2164 144.727 36.2187 146.065 36.2069C148.187 36.1903 149.884 35.9394 149.922 33.4841C149.953 31.552 149.958 27.8916 149.932 22.5027C149.922 20.734 149.799 19.4365 149.562 18.6197ZM140.702 29.8212C139.132 31.4526 135.605 32.2079 133.703 30.8985C132.283 29.9231 132.316 27.6903 133.495 26.6367C135.259 25.0622 138.853 25.9524 140.716 26.9753C141.46 27.3849 141.223 29.2814 140.702 29.8212Z" fill="#3A405A"/>
</g>
<defs>
<clipPath id="clip0_718_2404">
<rect width="170.108" height="37.182" fill="white"/>
</clipPath>
</defs>
</svg>
