<svg width="61" height="61" viewBox="0 0 61 61" fill="none" xmlns="http://www.w3.org/2000/svg">
<path opacity="0.1" d="M1.6967 30.7444C1.6967 28.6759 3.37359 26.999 5.4421 26.999C7.51061 26.999 9.1875 28.6759 9.1875 30.7444C9.1875 32.8129 7.51061 34.4898 5.4421 34.4898C3.37359 34.4898 1.6967 32.8129 1.6967 30.7444Z" stroke="#3A405A" stroke-width="0.6832" stroke-miterlimit="10"/>
<path opacity="0.18" d="M8.43031 25.4492H8.4425C11.3667 25.4492 13.7373 27.8198 13.7373 30.744V30.7562C13.7373 33.6804 11.3667 36.051 8.4425 36.051H8.43031C5.50609 36.051 3.13551 33.6804 3.13551 30.7562V30.744C3.13551 27.8198 5.50609 25.4492 8.43031 25.4492Z" stroke="#3A405A" stroke-width="0.6832" stroke-miterlimit="10"/>
<path opacity="0.26" d="M4.5992 30.7497C4.5992 26.9664 7.66616 23.8994 11.4495 23.8994C15.2328 23.8994 18.2998 26.9664 18.2998 30.7497C18.2998 34.5331 15.2328 37.6 11.4495 37.6C7.66616 37.6 4.5992 34.5331 4.5992 30.7497Z" stroke="#3A405A" stroke-width="0.6832" stroke-miterlimit="10"/>
<path opacity="0.35" d="M6.03996 30.7564C6.03996 26.1139 9.8033 22.3506 14.4458 22.3506C19.0881 22.3506 22.8516 26.1139 22.8516 30.7564C22.8516 35.3987 19.0881 39.1622 14.4458 39.1622C9.8033 39.1622 6.03996 35.3987 6.03996 30.7564Z" stroke="#3A405A" stroke-width="0.6832" stroke-miterlimit="10"/>
<path opacity="0.43" d="M7.50269 30.756C7.50269 25.2579 11.9597 20.8008 17.4579 20.8008C22.9559 20.8008 27.4131 25.2579 27.4131 30.756C27.4131 36.2542 22.9559 40.7112 17.4579 40.7112C11.9597 40.7112 7.50269 36.2542 7.50269 30.756Z" stroke="#3A405A" stroke-width="0.6832" stroke-miterlimit="10"/>
<path opacity="0.51" d="M8.95467 30.7566C8.95467 24.4028 14.1055 19.252 20.4593 19.252C26.8131 19.252 31.9639 24.4028 31.9639 30.7566C31.9639 37.1104 26.8131 42.2612 20.4593 42.2612C14.1055 42.2612 8.95467 37.1104 8.95467 30.7566Z" stroke="#3A405A" stroke-width="0.6832" stroke-miterlimit="10"/>
<path opacity="0.59" d="M23.4611 17.6904H23.4733C30.6828 17.6904 36.5273 23.535 36.5273 30.7444V30.7566C36.5273 37.9661 30.6828 43.8106 23.4733 43.8106H23.4611C16.2517 43.8106 10.4071 37.9661 10.4071 30.7566V30.7444C10.4071 23.535 16.2517 17.6904 23.4611 17.6904Z" stroke="#3A405A" stroke-width="0.6832" stroke-miterlimit="10"/>
<path opacity="0.67" d="M26.4742 16.1406H26.4864C34.5516 16.1406 41.0898 22.6787 41.0898 30.744V30.7562C41.0898 38.8214 34.5516 45.3596 26.4864 45.3596H26.4742C18.4089 45.3596 11.8708 38.8214 11.8708 30.7562V30.744C11.8708 22.6787 18.4089 16.1406 26.4742 16.1406Z" stroke="#3A405A" stroke-width="0.6832" stroke-miterlimit="10"/>
<path opacity="0.75" d="M13.3218 30.7497C13.3218 21.8253 20.5564 14.5908 29.4807 14.5908C38.405 14.5908 45.6396 21.8253 45.6396 30.7497C45.6396 39.674 38.405 46.9086 29.4807 46.9086C20.5564 46.9086 13.3218 39.674 13.3218 30.7497Z" stroke="#3A405A" stroke-width="0.6832" stroke-miterlimit="10"/>
<path opacity="0.84" d="M14.7743 30.7554C14.7743 20.9721 22.7053 13.041 32.4887 13.041C42.2721 13.041 50.2031 20.9721 50.2031 30.7554C50.2031 40.5388 42.2721 48.4698 32.4887 48.4698C22.7053 48.4698 14.7743 40.5388 14.7743 30.7554Z" stroke="#3A405A" stroke-width="0.6832" stroke-miterlimit="10"/>
<path opacity="0.92" d="M16.2263 30.756C16.2263 20.1168 24.851 11.4922 35.4901 11.4922C46.1292 11.4922 54.7539 20.1168 54.7539 30.756C54.7539 41.3951 46.1292 50.0198 35.4901 50.0198C24.851 50.0198 16.2263 41.3951 16.2263 30.756Z" stroke="#3A405A" stroke-width="0.6832" stroke-miterlimit="10"/>
<path d="M17.691 30.7439C17.691 19.249 27.0093 9.93066 38.5042 9.93066C49.999 9.93066 59.3174 19.249 59.3174 30.7439C59.3174 42.2387 49.999 51.5571 38.5042 51.5571C27.0093 51.5571 17.691 42.2387 17.691 30.7439Z" stroke="#3A405A" stroke-width="0.6832" stroke-miterlimit="10"/>
</svg>
